<mxfile host="app.diagrams.net" agent="Mozilla/5.0 (Windows NT 10.0; Win64; x64) AppleWebKit/537.36 (KHTML, like Gecko) Chrome/136.0.0.0 Safari/537.36" version="27.0.9">
  <diagram name="Page-1" id="gx9healEwXHTnKMPEHd8">
    <mxGraphModel dx="2208" dy="748" grid="1" gridSize="10" guides="1" tooltips="1" connect="1" arrows="1" fold="1" page="1" pageScale="1" pageWidth="850" pageHeight="1100" math="0" shadow="0">
      <root>
        <mxCell id="0" />
        <mxCell id="1" parent="0" />
        <mxCell id="0uebhjib72tp26NV08e5-54" value="" style="edgeStyle=orthogonalEdgeStyle;rounded=0;orthogonalLoop=1;jettySize=auto;html=1;" edge="1" parent="1" source="0uebhjib72tp26NV08e5-12" target="0uebhjib72tp26NV08e5-53">
          <mxGeometry relative="1" as="geometry" />
        </mxCell>
        <mxCell id="0uebhjib72tp26NV08e5-12" value="get control panel dimension from config &#xa; dialog_config = self.config.get_Test_Name_Dialog_config()" style="shape=parallelogram;strokeWidth=2;perimeter=parallelogramPerimeter;whiteSpace=wrap;rounded=1;arcSize=12;size=0.10714285714285784;" vertex="1" parent="1">
          <mxGeometry x="630" y="165" width="400" height="85" as="geometry" />
        </mxCell>
        <mxCell id="0uebhjib72tp26NV08e5-16" value="Start recording a new test&#xa;def start_recording(self)&#xa;" style="rounded=1;whiteSpace=wrap;absoluteArcSize=1;arcSize=14;strokeWidth=2;fontColor=default;fillColor=default;verticalAlign=top;" vertex="1" parent="1">
          <mxGeometry x="104" y="268.5" width="380" height="681.5" as="geometry" />
        </mxCell>
        <mxCell id="0uebhjib72tp26NV08e5-39" value="" style="edgeStyle=orthogonalEdgeStyle;rounded=0;orthogonalLoop=1;jettySize=auto;html=1;entryX=0.5;entryY=0;entryDx=0;entryDy=0;entryPerimeter=0;" edge="1" parent="1" source="0uebhjib72tp26NV08e5-38" target="0uebhjib72tp26NV08e5-48">
          <mxGeometry relative="1" as="geometry">
            <mxPoint x="305.0410526315792" y="220" as="targetPoint" />
          </mxGeometry>
        </mxCell>
        <mxCell id="0uebhjib72tp26NV08e5-38" value="Main Gui Form&amp;nbsp;" style="strokeWidth=2;html=1;shape=mxgraph.flowchart.start_1;whiteSpace=wrap;" vertex="1" parent="1">
          <mxGeometry x="222.87" y="50" width="160" height="80" as="geometry" />
        </mxCell>
        <mxCell id="0uebhjib72tp26NV08e5-55" value="" style="edgeStyle=orthogonalEdgeStyle;rounded=0;orthogonalLoop=1;jettySize=auto;html=1;exitX=0.5;exitY=1;exitDx=0;exitDy=0;exitPerimeter=0;entryX=0.5;entryY=0;entryDx=0;entryDy=0;" edge="1" parent="1" source="0uebhjib72tp26NV08e5-48" target="0uebhjib72tp26NV08e5-16">
          <mxGeometry relative="1" as="geometry">
            <mxPoint x="278.13" y="320" as="sourcePoint" />
            <mxPoint x="273.13" y="360" as="targetPoint" />
          </mxGeometry>
        </mxCell>
        <mxCell id="0uebhjib72tp26NV08e5-48" value="Press the Record button&#xa;&#xa;self.create_control_buttons_frame()&#xa;ttk.Button(frame, text=&quot;Record&quot;, command=self.start_recording)&#xa;" style="strokeWidth=2;shape=mxgraph.flowchart.start_1;whiteSpace=wrap;" vertex="1" parent="1">
          <mxGeometry x="90" y="140" width="430" height="110" as="geometry" />
        </mxCell>
        <mxCell id="0uebhjib72tp26NV08e5-77" value="" style="edgeStyle=orthogonalEdgeStyle;rounded=0;orthogonalLoop=1;jettySize=auto;html=1;entryX=0.5;entryY=0;entryDx=0;entryDy=0;" edge="1" parent="1" source="0uebhjib72tp26NV08e5-50" target="0uebhjib72tp26NV08e5-51">
          <mxGeometry relative="1" as="geometry" />
        </mxCell>
        <mxCell id="0uebhjib72tp26NV08e5-50" value="try to kill any existing listener&#xa;self.killOldListener()" style="rounded=1;whiteSpace=wrap;absoluteArcSize=1;arcSize=14;strokeWidth=2;" vertex="1" parent="1">
          <mxGeometry x="150" y="290" width="320" height="50" as="geometry" />
        </mxCell>
        <mxCell id="0uebhjib72tp26NV08e5-56" style="edgeStyle=orthogonalEdgeStyle;rounded=0;orthogonalLoop=1;jettySize=auto;html=1;entryX=0;entryY=0.5;entryDx=0;entryDy=0;" edge="1" parent="1" source="0uebhjib72tp26NV08e5-51" target="0uebhjib72tp26NV08e5-53">
          <mxGeometry relative="1" as="geometry" />
        </mxCell>
        <mxCell id="0uebhjib72tp26NV08e5-79" value="" style="edgeStyle=orthogonalEdgeStyle;rounded=0;orthogonalLoop=1;jettySize=auto;html=1;" edge="1" parent="1" source="0uebhjib72tp26NV08e5-51" target="0uebhjib72tp26NV08e5-63">
          <mxGeometry relative="1" as="geometry" />
        </mxCell>
        <mxCell id="0uebhjib72tp26NV08e5-51" value="Show the test name dialog and wait to get the data &#xa;&#xa; dialog = TestNameDialog()" style="rounded=1;whiteSpace=wrap;absoluteArcSize=1;arcSize=14;strokeWidth=2;" vertex="1" parent="1">
          <mxGeometry x="150.13" y="375" width="320" height="55" as="geometry" />
        </mxCell>
        <mxCell id="0uebhjib72tp26NV08e5-52" value="" style="shape=image;verticalLabelPosition=bottom;labelBackgroundColor=default;verticalAlign=top;aspect=fixed;imageAspect=0;image=data:image/png,iVBORw0KGgoAAAANSUhEUgAAAawAAAIrCAIAAAA89zoGAAAgAElEQVR4Ae2da3Bc1Z3g75et3Q+7m0zIy4FkUjXfEoiNjWWhITVfJrVJZiohIQZjMAhbqLLTtRkDMxuPEwIzHiKMB+LJhonDwxCHGCdCwQPBmATbYBtbRrKsZ+tlyRKyZFmWkYQQxgTQ1rmPc//9UKtvqx+3+/xOUfTpc8/zd27/fE7f1r3WbEL4cL7wAQECEChaAm+++eYHH3zwZvDQ09MTvNCbzzzzzKlshidutJb96IBTo4y7bQzMFwYTgpXgwNn5HPjhBwQIQKBoCZSOBH0H+rGBgSdWW8vueWXAjdyz2rKDkzQwMJDgwEFfgincl3S63ydAAAJFSOD8+fPvv//++eChu7s7eKHztbW1/dkM2290rGZZ1o3bvYq332gtTVgePqFyrn5CLQ2fWO3F/IWitqErwaQGlO57Pzb8iQABCBQngfHx8T/96U/jwUN3d3fwQuO//e1v+7IZHr/RWnr3/r6+/XcvtW583K3ZTbSd6Aixv79/u9w4e8tDX4J6VWi5+nuh2rKqX7DffPDBC7dX/KTbVqBU359UeL7q6oc633vvvfeeq7r6wc733rv4XJXt5arnLl6MiV+cP7hFLevqB6Nubi9Jp3gJfp7og1d7/xLYjSa245XRlcxbxCuhW/FLJG9DFYg9kpiiOpasHq8x3b24Eagy+th8mePK8hYC8xIYGxu7ePHiWPDQ2dkZvNDYb37zm5PZDI+tspb+8GVV48s/XOrE+voeX2UtvXufY0QtRG3D/lOn5H45xoMDAwPWhx/2/KTCsqqrq20J2upTEuzy/Ge7T/1Pqc92n22s59aV/1vHu074z3XWut0XnLBbxN2k5C/tW7a4ZXavs8q3tF+4cEGX9VKS5PEzJa/WP+5VIupNXiRJK7t3O31r31LuD80prZKsdevEMBNTdDuJ9SSMUed1I7vXWZbLI9lY4rPzHgIBCYyOjl64cGE0eOjo6AheaHTXrl092QyP3mBd+YM/OjU+aguxt7f35R8utVY9Zrv2sVWWK0RtQ2dVqPfLp+Is6K0EP3zhduv2F9wN8Au3X/1Q1/vvO/qz3fee88/Lu+/+57ryf1O+urB7XfmWtnecsHuttfbZGSc8K+Ju0nwvrQ+Ulz/QOjMjinpJuqif8OxaO7M+EhdJVsk8Rfwa/Fa8NFGdl2S/JqYnpsgC3lHvdWZmJrExJ3HtAy6PlEBk5cQhEIDAmTNnZmZmzgQPbW1twQud2blzZ1c2wyPXW1dufMmt8Q8/uNK68gd/6O7uefQGd4O4apW3VFRrRrk8/NGB/lMiaBW6ElRbYFuC3vrPN6Cnv3eV+i5ceMcODvK33fC726zb6qadUCfibtJ8L26Rls0rVmxumaMaXW3L5hXuYP3MooFklcxTRJTWrXhpCQlzHxBZ626z4jrnHUzSPZm5ZfOK2+qmvUzeq92mV4PXAV4hkCGB4eHh6enp4eChtbU1eKHhX//619GchU4vOFLstoOzSuzt7bVXhiedTXJfX5/9jaH6nzah40ElQXv9pyT4e1uBcQvAd9/19TczM/O2HRz8b7mhrtKqfGbKCc+IuJuU+uWZSmvF/SempqZO3L/Ciaj8sdXoPKKqZGkpK7Er9VsQVblRWeOJ+23X6mHF547tnzoqUkRFcfUkGaOf2TsY/2q3LaqP7wvvIRCEwNDQ0NTU1FDw0NzcHLzQ0FNPPdWRsxBnV0eJXV1d3d3dUoXag1qF0oPxEtQGlAvAd955x9Gfdp/DfNIOExO1lVZl7YQTZNxOOV5T5i7ddB4368SEOlZWc9x5f7ymTMdFlTF5dMkJu1WVP7b+OSpxy9VW2s3FFrGPzdFKbaXldzCu8bjhJAw8LrvXcrIxqqx+z72Y92pXlLJ62RRxCKQmMDg4ODExoX8gkn6kqakp/cw6544dO9qyGlpbW2V97XZwNKud2NnZqVU415LQ8aC6MGIvAz94//3f327d/rytwPfeU98AOpc8pP60+CYmJt58883zdhhXYdct1i27zjlBxt2kOV5ev2/58vteFwdFUe+Y9ypy6ajIrtPOnROpiYXFQVHkXGJG/+gcRRKTE1P8Ss7pfolcsa3uusW75u2+Lr/v9Tkzx9TMGwgEItDX13fu3Lm+4KGhoSF4ob4nnnjiRM5Csx1a7NDa2tre3i5t6Kiwp6en1w4nT8ZvjR0P+hKssqqety8BOwZ0vvt7++2333rrrcnJyYmJCW29c+fOjY2NnT17dnR09IwKv77ZuvmpESc8JeJuUvKXxIxH/uUqt56nbrau+pcjIyOJeXRdKrOdR6c4kcRKdIa5iiS28tRTYjjJWknSM1GL1/2RxHoSu6czy346bSZm1nmIQCBTAl1dXSMjI86XaIH+f+TIkUD5ncyPPfZYQ85Cox2OHz/eZIfm5uaWlhZnqdjR0RGNRhOXhNrj+stBJcH3Vfh9lVX1nLcGvHDhwszMzLT6zv7+xjff1NY7c+bMyMjI8PDw6dOnh4aG3njjDXvR+8vV1uonB5zwpIi7SUlfXvnRMrn0WfYj9XcuA0+6f+PiVJcsj5fD8puMr9/L4vXJez9HkSStiCSvkrhGEocpUp5cbTnjSVqP1x23Zp1Zt/DKj5a5OOKB6CxEIJAxgba2toGBAbmjTDP+6quvpplTZtu2bduRnIWjXqivrz927FhDQ0NjY2NTU1Nzc3NbW1t7e3sKD/bb4dSpU5ZtQHUtWO+CXQNOTz9Tad36m/Nnz551rDc4OHjq1Kn+/v6+vr6TJ0/29vb29PTYV2Mevd66/hH334hHRDyDfzYoAgEI5JZAQ0NDV1dXBouzP/zhDxmU+n+5Dz/72c8efvjh//iP//j5z3/+i1/84tFHH3388cefeOKJX/7yl7/61a+eeuqpnXZ4+umnd9nhN7/5zW/tUGuHOSX41lt1t1q37jx7dn3qcMM1i1S45ob169fLeOpSHIUABApEIBKJrF+/PhI8VFVVBS9UmBLRaLS7u7uvr29wcHBoaOj06dMjIyNnzpwZHR09e/bs2NiY8y3q+Pj4+fPnlQSTLgMnJibOnTs3PDy8fv36WQIEIACBIiEQiURaWlo6Ozt7enpOnTo1lwcdFY6Pj8dI0PkttHMx5M033zx79uzQ0BASLJKpp5sQgIAiEIlEmpqa2tvbu7q6+vr6tAeHh4dHRkZG7TBmh3PnzvkSdK4I628Dp6amxsfHR0dHBwcHkSBnFgQgUEQEIpFIQ0NDa2trNBrt6enp7+8fGBh44403Tp8+PTw8rDfFZ8+edSWo98JyGTg5OXnu3LmRkZH+/n4kWETTT1chAIFIJFJfX3/ixImOjo6urq6TJ0/29/fLTbGzGNRfDlqOBJ2/jVM/i5mefuuttyYmJsbGxk6fPt3X14cEOasgAIEiIhCJRI4ePXr8+PG2traurq6enh5nUxy3GBwdHXW+FlQS1L+Ofvvtt6enp6empvQXgicfX7Vo0TVFNH66CgEIGE4gEom89tprDQ0NLS0tzmViuRiU3ww6O2LL+Xlg3F74/Pnzo6NH711mWatWXZORBH//+99/67rr/s/6uwyfD4YPAQjkmUAkEjl06NDrr7/e3Nzs7IidxaD+ZlBfHnF2xL4Enb3w1NTUxMTE+Pj4mTNnBgcHu7sfDSrB8+fP33777RXXlD9+dPqv/uqv8jx+moMABAwnEIlEDh48WF9f39TU1NbW1tnZ2d3dffLkSXmZWF8eGRsbs65+sNP9QrD1Ae9Ofbfusq+KDAwMdHU9ElSClZWVjx+dfvzo9Fdqeq+99lrD54PhQwACeSYQiUReeeWV+vr648ePO9eIu7q6ent7ncvEQ0ND+hqx87WgZVlV//nuu++8s3uttWJzs7pXwpu/vXX5vx4bHh4+depUZ+cvAklQG/BLq//fV2p6V65cOTY2lmcENAcBCKQmIP9sPzGeumx2j1qW1djYmFhnY2OjZfnPwkzMkCIlEokcOHDg6NGjjY2NLS0tc+2IncWgWglWWVf/W8e777Rt8ZaBNpM1O0+fPt3f3x+NBpDgO++8c801Vz9+dPrPv7zuKzW9f33jP6xatSpFX2dn91RbllW9R+TZU21VbO0VCUGidnUxc5p5XbO9Wyu8qjKoxelKxdZeVU0G5dMbdk4rT68L5CpGAin8kuJQLkba2Nj4X/7rf4vzYNLE9FuPRCL79u1zro00Nze3t7fLHbFzjVj+FZ2U4No6+8cx58+rmyZkIME1a9Y4G2HLsr5S07ts2bL5loFKeRUVUoMLkqCHKf1K5shpC9CXc+/WrVLUXjNzvyoF+sXnzpfRkTn6nFFdFDKTQArTpTiUI1Zxyot7m0Gj3/nOd+6///6HHnropz/96cMPPxx3S4UdO3boWyo491NQEtzSfmFm5tnbLHWbe+eqyOjo6NDQUF9fX0fHtjS3wydPnlyyZPHjR6cdA36lpveGG26YbwD253nP1gp/qZSVT3j6lSTNqRS4MIUlrXY+GOkez2nl6XaCfEVNIIXpUhzK3ZC1+HRkIW1VV1fv3r177969+/btO3jw4JEjR+rr6xsaGvQttvStBru7u3t7e7UEZ9Tzfbz9n7VmZ1AJ3nXXXXIZWHHt333zm9+cbyTu51l8rEXUXo7ZPVJG2lOtxRSbJ4muYjO4g3LyyUrF7llWksKBfunYzmxV23rLcva9frW225N0pmLrVm/XL46qITr/GqhIdbV6EKozcDECv3LvoPcPSFp9m29COG4GgRSmS3Eop2wc/SVujTNoNLAEL168KP9kOGEl2JHmX4x85zvf0cvAv76ve/ny5R988MF8A4j52NtfBSamKP+pD7q24J7qigp37dgrF5F+Y2lU4mbWOf3C6stATywiddb5BtO1pTKOFpa39fU3wbJaHfcP277SxXVjMTl1qtcHeVQflImel+fpm1cfr4Ug4P57NsdL3nqUwnQpDuW0e6UgwRtuuEFLcPnf/O+NGzemgUx/hvVKz0sR6xp1wlTv0W5SSnR30HPpKmUl7nrN6Z2XU/ZVNS1Xht6x2HTPybIGHdcRR522s2I6qzPoiMjpLwntpv3Fn+O+ZEUC9M0bDq8GE0hhuhSHcgdM74J1ZCFtFWwluHr16tnZWecLwb/8y7/88MMP0xiG/Dw7n2MvJfZTbVflWMRZFvZurajeE6MV2VqKSlQ2Vbe7evNyytL28SQWjO1SniToN6pHK/vsxf1saiQp+xYzVN6YSSCF6VIcyhGrOPHFvc2g0YJJsKKi4qa16yzL+uhH/6y+vj69rnufYSe3IyexzdS7Pn1cboSrq+1tcpKWdLVqERVXiV+V2n7rnLG12Isv34Pu1WF/Pys8KWvQcR2JW9+5K0x7oE6/hL38zoriOqoyzr0SVAPxlq9+lbqw7EbsSHlnJIEUpktxKBeokiovaWL6rRdMgq2trYsXL7Ysq6amJu3uyk+pKiTs4C3YnG9PHCH5InCOJvVb7AfertH9BqZ6j+0KWaOX4AvP67ssqNvxE3WSHIKO60hsZ2y32tdP9IUR55tGu0vV1fLCiPdjSa9JdaXEbdStRvVZNORlFNoXR2VOb4i8GkvA/UTM8ZJPLLn4sXTBJDg7Ozs5OZnnf0byOVvZbEsJK9G72WyBuiBgLAFPgpv+1vri955O4ycy2bo6PDs7++677yLBdM48f+ObTm7yQAACQQgUUoKzs7M7d+4M0luj8vr7Vf31nVHjZ7AQyA8BW4J3f01v9r/5oPqx9O/uUt/W2WHlz93nsrs/ls7iSjA/I6QVCEAAAikIJFsJPvQty/r2T+2Hsr/w/SXWkn/aG3X+oFj9xQgSTEGTQxCAQNERSCLBZ+74kvWtnzbZEmxr+/lK6/ptcRJs31K+9lnnxvoZ/8VI0ZGiwxCAQEkSyESC7VvKyx9oRYIleUIwKAiYRiCJBOvjtsMrt0XFSjB6MWo7UD1nzr23fsN9y90vEFdt60j3b4dNA814IQCBcBLwJLj3x39riyz+wsiSDXtiL4w8F32wvHxLq/2wTf2AEXErLSQYzommVxCAQHICWoJp30qrqqp8S3vcU5aQYHK6pEIAAqEnEFiCV7s3VRXb4fFxJBj6iaaDEIBAcgKBJZjOT2QmCRCAAASKhAASLJKJopsQgEBuCCDB3HClVghAoEgIIMEimSi6CQEI5IaA87S5Bx988N///d8ffvjhbdu2PfLII4899tj27duffPJJ52lzv/71r3fu3Pn000/v2rUrrT+by01XqRUCEIBA9glEIpGXX3758OHDx44dO3HiRFtbWzQa7erq6u3t7e/vHxwcHBoaGh4eHhkZGR0dPXv2LBLM/hxQIwQgUEACSLCA8GkaAhAoPIHAEnT/QM4q39xi/9nc8Zoyq2zTUf3wdfUXI4UfFj2AAAQgkB6BwBJ8MKqeO9z6QLm1YvOJqamkd5FJr2lyQQACECg8gQwlODPz7G3WivtPIMHCTyE9gAAEFkJg4RKsvcXfDu/fsMRatGjRQjpEWQhAAAL5JJChBMV2WEvw0N1LrSUbXuQ7wXzOH21BAAILJBBYgt6FkbV17v0EPQkeunep5d5PcIF9ojgEIACBvBEILEHnwoi4lRYSzNtk0RAEIJB9AtmT4BDb4exPDzVCAAK5JpBFCQ719W1faaV7YaS20ttYe69lNU0ZjdauqbJWlK2ttDKtTNRCFAIQMIFAYAlm+36CgYSVNLNKLCuzhAaTZjNhNhkjBCAQmEDBb6AQSFhJM9uJtTVl/uIvabbAaCgAAQiYQKDgt9KKFVZTTZm7O3YWdvK92ECLVd/kpFuDqMiP+mXcIvahWreVytpJ3YCvUJ3kLC79ykw4HxgjBIwjECoJCt/UVior1VbKXa72Xews6VKJEZ1RHrLcLwxtQbruU3FHkzqnas3tgy9IXSERCECgRAiESYL+EsxeDXrrNKEgYSifv0h0pRmb4i4tnWrEIW8JadfkpSf2wW+IGAQgUIIEwibBmI2uw9vxkn3AU1XMRMhElbey1ktx3qnMTd5Xht4hlZgs7heJaYM3EIBAqRIIkwSVlZL/tsVzmNSWnpHYREeZTjX6iEpMbyWY2AddiW6QCAQgUEIEAkuwSu0uyx9onZmerrN/6ld2X8P46OjOm666d39fX0fHtmuC3UAh1jGuwrztcLLrGupYzHoxtgZ71ee51KuurLLSvXgsM88R9wq5DclcJTTxDAUCEHAI2BK8+2vW1368b9/BgwePHDlSX1/f0NDQ1NTU3Nzc1tbW0dERjUY7Ozu7u7t7e3utKqtq94UL9p/N1anLFhMT4+rh61KCVwAXAhCAQLEQQILFMlP0EwIQyAmBbElQ315/2zWLWAnmZKqoFAIQyAWBWAk+8E3rijseuuNL9ndy1/2s+YXvL7Gj1pUbX0q9HUaCuZgd6oQABHJOIEGClnXFHb9raGj66bcty1ry/RfUd4Lbrres6x9J+Z0gEsz5VNEABCCQCwIJErzijmecCyM/vc5a/P0XnAsj2663rvzBH1JdGEGCuZgd6oQABHJOIJgEX/7hXFeHkWDOp4oGIACBXBAIJsHHViHBXMwCdUIAAgUjEEyCvS/PK0Eevl6wuaRhCEAgAwK2BHfv3bt3X9o/lk76FyN6O4wEM5gFikAAAgUjEFiCC7+ztLWhk/8gAAEI5I1Aar8WRoKzBAhAAAJ5IWBt6JxMGZBgXuaBRiAAgQIRQII+eMuy/DfEIAABMwggQX+ekaDPghgEjCEwrwQDP23O/lti536C01Mn7i+znPsJBrg6bG3oLAh/JFgQ7DQKgcISmFeCmTx3uH1LuVX+QMv09NTU1IR7P8HCSnBPtVWxtTcOdXwiEowDxFsImEAgJxK8cGH3Wqt8cwsSNOEUYowQKG4CuZbgM5X+dvjQ3UvVXnnRfLfXz8F2OH7RZ09afCIrweI+l+k9BDIikBMJiu2wluDRe6+ylt69v6Nj/r8YiZFg79YK546FllW9Z3Z2Vr23I/ZwXY/ZL3vcnNV77Ex2KW8PHJMhJlHtkfdUW6p2JJjRKUQhCBQ3gexL0JbPumdnZqbVd4KeBI9uusq6abt60FIgCSo9ucpT9rP1tafaS1L2so/aFnPcJqK23JzSItWv0jGob1UkWNznMr2HQEYEsi/B2D+bW5gEfUGpwQnleWpzF3XugtAmkDQ+Z2KFa1ZVFAlmdApRCALFTSBfEhzNaDucXIJqt1uxtdf5v40/qeMcber1oetL26U60aqo8HfXSLC4z2V6D4GMCORNgqNDQztW2VvlIBdG/L1rzJeByn/V1cqEzqAzlqCqQRdGghmdQhSCQHETyLUEF/w7QbUYdIJWniIu7ChXfHPFtehkBp1ot1GxFQkW97lM7yGQEYHQS3COUXnfD85xOKNkJJgRNgpBoLgJFKcExdeBWcSPBLMIk6ogUCwEik6CzvY4ZmucLdZIMFskqQcCRURgXgkGvoFC7E9kFvydYBGxpKsQgEAREphXgtxUtQhnlS5DAAJpEwipBPP2bAEaggAEIDCZMmRpJbhzjfM7lyUbXly/fn3KFjkIAQhAIEQEsiLBXWusNTuGhvr6tq+0lny9CgmGaILpCgQgkJpANiS46xZrzc4hJcG+FzcsueLrVamb5CgEIACB8BAILMGq5y5euHBhxr2LjLo63HBf2fJNRx0JdmxbueiaG8IzPHoCAQhAIDWBwBJM/IkMEkyNmKMQgECYCSDBMM8OfYMABHJOIAsSHOc7wZxPEw1AAAK5IlB+bfXu3bv37n088kX3bi7XPlTf0NDQtPsfFrsJK7dFo52dnd3d3b29vVbidni84b7lXB3O1QRRLwQgkFsCX1j0haqf79676WvW3/744MGDR44cqa+vb2jY+m1r8f99vrmtra3j5yuv/Ke9vgQTL4yMj4+Per8TXLlt/tvr53ZA1A4BCEAgCIFryxf9r7t37338u1+0rMu/97Qrwd/d5S0D7dXg9dt8CSZZCY6Pj44GeO5wkO6RFwIQgEBuCbgS3Lt33759T3/vcsuy1HZYSfDbP2u2V4IdHdHY7fBz69x9svNSuQsJ5naOqB0CEMghgS8sKr9bfSeoJHjw4MHfrr/iijuesbfDaj+stsMJEoz/naDaDrMSzOEcUTUEIJBDAn99k31hZNPXvNXdNx9S3wnKCyOWxXY4hzNA1RCAQEEJZOMnMqwECzqFNA4BCCyEABJcCD3KQgACRU+gYBKsrfQ24N5rWU1TRjhlTZnWkVHDFIIABEqAQGAJWpZVvqXdvYHCM67JvBsobF+5ZENVsPsJ1lZa6ZsraWY/sammLEBlJTB7DAECEFgwgcASvHjxuXVW+QOtM9PTdZVWZe3ExPj4rjXW8nsP2fcTLKgEJyd9IS6YDBVAAAJGEMhAghfbt5SXP9A6XXebVfnMhJLg+NFNy6+695C6qeoCJajWck6orFX85Xux7XUOuhMkxafjOjIpzKgSKyvLLKuy1tFlrducvxb1G1SZ7OAnuSlxCbIpt0u8QAACRUMgo6fN7V5nrX22ZfOKFfefcCSo/mzuph19fX0dHUH/bE4qRMRrK5WYatVaU7AUGfxUP1HZyfWZnxgrQe+4qtpy3/jFVKIwnV1Xij7oTvoS9btFDAIQKAoCkUjk5ZdfPnz48LFjx06cONHW1haNRru6unp7e/v7+wcHB4eGhoaHh0dGRkZHR8+ePWvfQCFHEvRXWPZisLLWWQgKw0i1abxihegZTIgvfiXoXX2JqcoVneqAL12RqNUp16ZeJ3VHiEAAAkVIIGwS9B2kYTputA/EmMvLMG+izqAj0ozuplvVn1SCdjN+H2LzeH3gFQIQKFYCmUhw7u8EF74dFmsugbSppszbmop1oZtBqk2XEa5SK0WnlMzppwr3xW2HY4ws+hDbSVmrbp8IBCBQJAQykKB3dbhl84r4q8MLlGDsZtO5ehFzncT5Jk9/b+cwnkNCepdcWen9CkfmVHH7IolqwLeds+RTaZ5tdT06l5/Hv8SS2U8ci+QkoZsQKGUCgSVoWda63d6DlrzfCa7ZWXS30pJCLOUJZmwQgEBqAoElWCr3E0SCqU8MjkLAFAK5kGBRPHITCZpyijNOCKQmkAsJrk/dJEchAAEIhIcAEgzPXNATCECgAASQYAGg0yQEIBAeAkgwPHNBTyAAgQIQQIIFgE6TEIBAeAhkQ4K7bnF+0bz07v3Bb6AQHhT0BAIQMJHAwiVYe4t1y071tLkdq6ylG17sWL++KH4iY+JkM2YIQCCRwIIlWFtp3bLLeeTm/ruXLtnw4vobrklsRqZsJEAAAhDIIwHpn8T4QiV4vKas7L4G97nD21dZK7dVff2KxGZkysaNG2cJEIAABPJCYOPGjZMpAxLMyzzQCAQgUCACSLBA4GkWAhAIB4GcS3Aio+8EwwGHXkAAAqVPIPcSPF5TFnd1uOrrkykD3wmW/nnHCCEQGgK5l+DExLj3O8FV29O6qeocEtxTbVVs7Q0NuXx2pHdrhbFjzydn2jKSQF4kOD7uXh1O72lzQoJSfDKezlwFyh8oczqtkwcCECgOAtmXYJV7v3vnxXn4OhIsjrOBXkLAQALZl+DC7yytV4LV2qfVe2Zn7cXanq0VdqK/MVZbRSeoTF7YE1t2djY+m3yfkNmtJWmLcs2o4ypSXV1hWdV75u+nymQH2YfkCW5HnDrVVwEJRbwc+kjF1q3e9wZ297a6JHxiOqvdXVVBfK1yOLoBIhAoTQKhlqArPvd7QFtVzkdZRR2TaA2pvOJzPptQ1jvoZNtTrVVkT6yox59o0aLShG7bq8p3k8rppc5VymtQV5WiD3ONJb6I7qtPxBaa7qrg5Lavm5dl/b7bMTkcnY0IBEqTQHFJ0PusavvYn3i9XvQ040yV8FpiNqEKO7fI7E90TKLnH5mo4zoSJ1/VUWVr1Zy3/rP17CVqdcrlmD0gP7uoM77bXl97t1ZoNhqOH4mrIaZqsQzU7crhePPE6JIAACAASURBVE3wCoESJVACEoz9SPvzJD7JsQ7SWWylOHISmfXhGInoKmROHdcRoRtVj1fKe3Xq9nzq5XCWa7F5/F6omKzftVbMsBcqwZjK4pqL7QnvIFBqBIpcgsoOYjEVMztSHHNm8+whM+taRCnfUH5MNC6LJy2lEl3TiAqclkQf0hmLKuQViemqU7+q3q0mrlfOWlEd91eNqgLRYbc+WVA3QQQCpUkg5BK0P6CW4w/5yRRx+0Pv7ohjFzTqw+2Wjd1sOlcvYsvEZHbnWrViX+7wq1FH3KyWVV0dcwnC/+4yWSm/n56CdD2eHmN2pjFj8cabWESflt6h+Asjolferyy9rDFednHYffGa05UTgUDpEgi7BAtKPjMXZFYqiwMteAeyOBaqgkDOCSDBFIgzs0lmpVJ0I+ihgncgaIfJD4FCEsiRBHevtco3121eYe+xbtk1fnTTcme7pW6qun6e5w7r3wkWEoxqOzObZFYqi2MteAeyOBaqgkDOCeROgpa1YvOJqSl1FxnLWr7p6NDQUN/2VZa18oaikWDO6dMABCBQcAK5k2D55pbpqampiYnaW6yyTUdHlQT7tq+0lny9qlhWggWfHToAAQjknEBIJZjHpwvQFAQgYDqByZQhs9vr298JZroSTNkfDkIAAhDIKwEkmFfcNAYBCISNQGYSvDAzMzM97XwnODEe8H6CYUNAfyAAAZMJIEGTZ5+xQwACk0iQkwACEDCaABI0evoZPAQggAQ5ByAAAaMJIEGjp5/BQwACSJBzAAIQMJpAphJ8dq1l3faM+rO5ifHxXWuWbzqk/mwurecOG82bwUMAAiEjkIEEo1vKLWvt2tuQYMjmku5AAAIZEMhAghcvXLgwM/MsEswAN0UgAIGwEciKBIM9fD1sCOgPBCBgMgEkaPLsM3YIQCDzvxiR22FWgpxJEIBAsRIo/EpQ3Zq6sjZk/GorrbKapoV3Klv1LLwn1AABCCQnUGgJNtWUlVVWlmXFOMlHmFFqtuSVrXoyGgSFIACBNAhkVYLbV1lLNlTN94wR2SvlwJom5/8yvdDxbMkrW/UUmgftQ6B0CWQswST3E9y+ylq5rWPep80JmJ79vFfvUFNNmfuwcG+jHJci5aLjKlJZWebsru0HQNmVeFVMTspKVNw/outwexD/XiXL0vabJMVj8kxOTnr1eK/eAHmFAATCQiCLEtyxylq1rSOIBH33+TFHNrHbY6WW2BQpFR1X3ovNJjRkayvmaG2ltqCIOhOj69TzJFJqK1U9oowXTciDBDU/IhAIK4EsSjDwn83Fm89ZWcUu0RS3xBQtF3VYq0dHbNj+UtBWX/JKnCYdq8kpiq0qZhmoV5ee+ia94qoJEVTdCfXIRohDAAIhIFBACfqW8sxhKynRVokpMXLRotER6U3PtEkqUXad4xtJUZUzSekUT5InoZ4QTDldgAAEJIHCSTDeD1ohKhKzb03cycrFob8JFjXqqF+ZH/PHryyY9Nq0Lq/z+s3oJFuilZVlznLSWZPG9dyrx3v1yxKDAATCQaBgEkzUgragvYt0V4eeYPxlo5uiEyorvd/0ySpVZSrEOE6X0V8GqiWl/8afEj+nqsP5xaBXparW7YSd5HVRlY7P43XJe/VbIAYBCISDQMEkGI7hKwlKiYWkV3QDAhDIG4HAEnww6txFJslPZIrvfoLeF4Z5w01DEIBA2AgEluDFi6UhQWfjGvvdY9gmh/5AAAK5J2CsBHOPlhYgAIFiIBBYgt52uHXzCvfaxS27uItMMUw1fYQABJIRyEyC7Q+UWys2t0y5zxhBgsnQkgYBCBQDgYwk2L6l3FpbNz2NBIthiukjBCCQigASTEWHYxCAQMkTyEiCF9gOl/yJwQAhYAqBzCToPG2OCyOmnCWMEwIlTCCwBEvld4IlPKcMDQIQCEAgKxLctcZdFKqXRYuuCdA+WUuCgLWxO/V/JTFKBlGaBLIiQX4iU5onR/qjSm1Aa2N3+lWREwJ5JoAE8wy8NJtDgqU5r2aMCgmaMc85HiUSzDFgqs8hASSYQ7jmVI0EzZnr0hspEiy9OS3AiJBgAaDTZJYIZFWC21fZV4cXZalvVFM0BJBg0UwVHU0gkEUJ6kdu3pDQStIEbjmfFEtRJiLBopy2HHY68dPtpag7eaa4j6eXLe2+iUdaZHiT+OxJcMdN1qrtHQGeOxx4tGljIWO+CSDBfBMPe3uJn+7ElKRjSDObX3bhT8gILEHnZ9Frn42/vf6he69aevd+JOhPjkkxJGjSbKcz1kSXJaYkrSfNbH5Z77HffkrQWGAJzvVnc9mRYMLSVmhe0Gmq8Z9zmTDiKCHvBOaVYN57RIP5IJDw4dMJ4tPqpukUHfGfzlhWUxPzzMha72GRzoMeda1JIr4yUuyxk5QTSaGSoHj+pf7iQFuwtrKsTD0r3XmwZYoBR6PRM2Nj/JdPAvNKMJ+doa38EIhGo8IkcdGYh9Z6f1XrfGq1BP3Pu20yfdRyvzP0j8dVnvStrjbp0VSJWZPg0MK/E1Qk/K82Xft5D4RTi97aGtuCXtIc48rHv4C0EUtgXgnGZuddiRCY4yM4aT86PG6hoiXlRWI+x16iegiuLijjczflHQmW2ys1OTmZPQkeuneptWqbujCS6dXhpBJUzzMvq2lyNv72NjiGnRgK0cIRmFeChesaLReEQKKRdIoXifkge4kLk6C/hgoy6MASnOvCyNDQUF+w3wnqYev+iuWvEKJiJTbClZWV+l8KXZJIYQkgwcLyD1/rST/desOrI+7WL3Y7rD/fiZXMPVBVhS44d7ZkRwJLcK4LI0qCfX0Brw573xV4XwKoZZ+bJsYjhyfjycZDWkEIIMGCYA9xo4n+0ik6Ym+a7c97/IUR9c1/0j114oj9Lx8zWwYuZDv87G2+wSzLWrMjsAQTx0NKsRJAgsU6cyHpt1rcZCyxhY6hgCvBhXad8uEhgATDMxfF2BO1nBN7vzwPAQnmGXhpNocES3Neczsq/8svq3DLwIVsh+P/YiT4d4K5BUzt+SSABPNJm7ayS4CVYHZ5GlobEjR04kti2EiwJKax0INAgoWeAdrPnEBWJRjsd4KZd5qSYSOABMM2I/QnfQJZlGDQ+wmm30lyQgACEMgVgexJMPDfDudqSNQLAQhAIH0CgSXo/EQ6G/cTTL+T5IQABCCQKwKBJTjXn80Fv59groZEvRCAAATSJ4AE02dFTghAoAQJZE2Cwe8nWII0GRIEIFB0BLInwcD3Eyw6VnQYAhAoQQKBJTjXhZHg9xMsQZoMCQIQKDoCgSU414UR/na46OaeDkMAAgu5gQL3E+T8gQAESoEAK8FSmEXGAAEIZEwACWaMjoIQgEApEECCpTCLjAECEMiYABLMGB0FIQCBUiCABEthFhkDBCCQMQEkmDE6CkIAAqVAAAmWwiwyBghAIGMCBZVgFp6bPGk/rz3jp/X5PbBSP/KPh75nfIpREALhJlA4CcrHLTfV1NSm+cB5B6d4iP2C+Pr1LMxyfj0L6g6FIQCBvBMonASTeCNJ0hxA0s85RwVusqxHxlOXSjy6kLKJtZECAQjkj0DhJDgZ99R5sTOtdJeFzs0avOcyK9FUVpa5ic6LyqkFZEdqKp0j/g7Ze8RzWU1NZfyeV5eNXYd6RSz/odA6Z2IrsT3XGfM3ibQEAQhkTqCAEpx0vs9LJho5Hi0VKU2dKOVly8gWqC3Y+JhtNt+Ndht+PWI7rOpxCosvHHXOuVrxatYZ5SCIQwACYSVQWAnaVGw52dKJ9YdtG3tZ5/hFHk0aT5bYVFPm2UmsGfVs+G1o79nicx3oKDa2b8la8VejumYiEIBAcRAIgQSdBaEyjfCLMqNjIq0xcVTm9OPJMujSajpkBmd6ElP83ugcSLA4zmV6CYGMCBROgrU1NU1Ol/VOVChJR/XBGIXpw1JtcyX6Nk34HYwsovnFbYcdF+ucOjJH0/K4rpIIBCAQVgKFk6CSmhccz9hLNZWk3tqbZMuyr4Ukboe9wiqnto6OSD3pSq35LoyIKfIaF9LUletITCvuYCpr/e6I+ohCAAKhJVBACeadiVKbp9u8N06DEIBAOAkYJEG1WPMvkoRzOugVBCCQbwIlL0F/Z+tf/803ZNqDAATCS6DkJRhe9PQMAhAIAwEkGIZZoA8QgEDBCCDBgqGnYQhAIAwEkGAYZoE+QAACBSOABAuGnoYhAIEwEECCYZgF+gABCBSMABIsGHoahgAEwkCgABLcSIAABCCQRwKpVVsYCc4SIAABCOSFwMaNGydTBiSYl3mgEQhAoEAEkGCBwNMsBCAQDgJIMBzzQC8gAIECEUCCBQJPsxCAQDgIIMFwzAO9gAAECkQACRYIPM1CAALhIIAEwzEP9AICEMgBgWPHjiXWGpcYcgnuqbYqtm6tdh41UrG11x1P79YK7+kj1XuctHlzehkTkZACAQiUIoGpqambb765rq5ODq6uru7mm2+emprSieGXoGU5+tpTnRibVTZ03KgOJ8vpmXNPtRfTYycCAQiUOIE4DyYacHZ2NvwS1O6y13q9s7b4/GXdnmpHfd5RNadeXCwY1cLRL1TiE8/wIAABTUB7MKkBTZAg5tMnAxEIGErA8WDcLlizKMKVoFroeas6tdbTu+WENaOdU6fqMROBAARMIzBlh6SjLkYJOjviuIsl3hZYjVLE5Y6YRWHSU4BECJhNIOQSNHtyGD0EIJB7Akgw94xpAQIQCDEBJBjiyaFrEIBA7gkgwdwzpgUIQCDEBJBgiCeHrkEAArknEFIJ5vHpAjQFAQiYTmAyZSjA7fVT9oeDEIAABPJKAAnmFTeNQQACYSOABMM2I/QHAhDIKwEkmFfcNAYBCISNABIM24zQHwhAIK8EkGBecdMYBCAQNgJIMGwzQn8gAIG8EkCCecVNYxCAQNgIIMGwzQj9gQAE8koACeYVN41BAAJhI4AEwzYj9AcCEMgrASSYV9w0BgEIhI0AEgzbjNAfCEAgrwSQYF5x0xgEIBA2AkgwbDNCfyAAgbwSQIJ5xU1jEIBA2AggwbDNCP2BAATySgAJ5hU3jUEAAmEjgATDNiP0BwIQyCsBJJhX3DQGAQiEjQASDNuM0B8IQCCvBJBgXnHTWBgI1JV0SIdwSQOoS4eAzIMEJQ3iRhCoq6sbLNFQV5eWAiAgT3QkKGkQN4IACoCAPNGRoKRB3AgCKAAC8kRHgpIGcSMIoAAIyBMdCUoaxI0ggAIgIE90JChpEDeCAAqAgDzRkaCkQdwIAgtWwKv3LLPcsOyeVwezG55cbWVeaSiuDj+52qMjRyLHZQNc/WR2wTm1pUlgUgQkKGAQNYPAgiQY9/l99Z57svxZlrIYDBrSVMCCCKTukzKglriC5b3xx+XHUleV0dE0CUyKgAQFDKJmEFiAAtSnOjcrmEEvLEgRaSpgAQS8biZ/TeDjJ7jj8hOS17DQ1DQJTIqABAUMomYQyFwBc3+C/S2g60j7M3+PuzH0VkODg4OqCie4GeMTilmCSfi8es8yZ/QeEMFiMAcBCZrxIWaUCyOwIAnO8xnWCrOt6HhORZ2YkkRsBTr/4OCTq+1DIiW4I9JUQOYEUndJG8/Ppr3o/jPhqt/PkOVYmgQmRWAlKGAQNYNA5grQn+jBhOAvBR3LSZd58cTiKkUEZQgvc0IL6SSkqYDMCaTuROIA1cpXAHky4V+B1BUGP5omgUkRkKCAQdQMAgtQQJJP+aC7x9VrPfGZd68ce15LLJ2YUtQStDf7MWs9f4AeBH9drMhlPSDBSQIE5iWwAAnaCzVvczto609dHfY+4LYE5pagOKzKqqCU4BRwE/y6vIQgr2kqYEEEUvcnxnFydJpREgqpqwx0NE0CkyKwEhQwiJpBYKEKUKsbL7gC85KWrV4td39xK8FB13pOYXfF5BVVicW+HVYDdP+diBmjm+rbXtrRKZSt/yPBSQIE5iWwUAkOhjekqQAIyJOElaCkQdwIAigAAvJER4KSBnEjCKAACMgTHQlKGsSNIIACICBPdCQoaRA3ggAKgIA80ZGgpEHcCAIoAALyREeCkgZxIwjwrDUIyBMdCUoaxCEAAeMIIEHjppwBQwACkgASlDSIQwACxhFAgsZNOQOGAAQkASQoaRCHAASMI4AEjZtyBgwBCEgCSFDSIA4BCBhHAAkaN+UMGAIQkASQoKRBHAIQMI4AEjRuyhkwBCAgCSBBSYM4BCBgHAEkaNyUM2AIQEASQIKSBnEIQMA4AkjQuClnwBCAgCSABCUN4hCAgHEEkKBxU86AIQABSQAJShrEIQAB4wggQeOmnAFDAAKSABKUNIhDAALGEUCCxk05A4YABCQBJChpEIcABIwjgASNm3IGDAEISAJIUNIgDgEIGEcACRo35QwYAhCQBJCgpEEcAhAwjgASNG7KGTAEICAJIEFJgzgEIGAcASRo3JQzYAhAQBJAgpIGcQhAwDgCSNC4KWfAEICAJIAEJQ3iEICAcQSQoHFTzoAhAAFJAAlKGsQhAAHjCCBB46acAUMAApIAEpQ0iEMAAsYRQILGTTkDhgAEJAEkKGkQhwAEjCOABI2bcgYMAQhIAkhQ0iAOAQgYRwAJGjflDBgCEJAEkKCkQRwCEDCOABI0bsoZMAQgIAkgQUmDOAQgYBwBJGjclDNgCEBAEkCCkgZxCEDAOAJI0LgpZ8AQgIAkgAQlDeIQgIBxBJCgcVPOgCEAAUkACUoaxCEAAeMIIEHjppwBQwACkgASlDSIQwACxhFAgsZNOQOGAAQkASQoaRCHAASMI4AEjZtyBgwBCEgCSFDSIA4BCBhHAAkaN+UMGAIQkASQoKRBHAIQMI4AEjRuyhkwBCAgCSBBSYM4BCBgHAEkaNyUM2AIQEASQIKSBnEIQMA4AkjQuClnwBCAgCSABCUN4hCAgHEEkKBxU86AIQABSQAJShrEIQAB4wggQeOmnAFDAAKSABKUNIhDAALGEUCCxk05A4YABCQBJChpEIcABIwjgASNm3IGDAEISAJIUNIgDgEIGEcACRo35QwYAhCQBJCgpEEcAhAwjgASNG7KGTAEICAJIEFJgzgEIGAcASRo3JQzYAhAQBJAgpIGcQhAwDgCSNC4KWfAEICAJIAEJQ3iEICAcQSQoHFTzoAhAAFJAAlKGsQhAAHjCCBB46acAUMAApIAEpQ0iEMAAsYRQILGTTkDhgAEJAEkKGkQhwAEjCOABI2bcgYMAQhIAkhQ0iAOAQgYRwAJGjflDBgCEJAEkKCkQRwCEDCOABI0bsoZMAQgIAkgQUmDOAQgYBwBJGjclDNgCEBAEkCCkgZxCEDAOAJI0LgpZ8AQgIAkgAQlDeIQgIBxBJCgcVPOgCEAAUkACUoaxCEAAeMIIEHjppwBQwACkgASlDSIQwACxhFAgsZNOQOGAAQkASQoaRCHAASMI4AEjZtyBgwBCEgCSFDSIA4BCBhHAAkaN+UMGAIQkASQoKRBHAIQMI4AEjRuyhkwBCAgCSBBSYM4BCBgHAEkaNyUM2AIQEASQIKSBnEIQMA4AkjQuClnwBCAgCSABCUN4hCAgHEEkKBxU86AIQABSQAJShrEIQAB4wggQeOmnAFDAAKSABKUNIhDAALGEUCCxk05A4YABCQBJChpEIcABIwjgASNm3IGDAEISAJIUNIgDgEIGEcACRo35QwYAhCQBJCgpEEcAhAwjgASNG7KGTAEICAJIEFJgzgEIGAcASRo3JQzYAhAQBJAgpIGcQhAwDgCSNC4KWfAEICAJIAEJQ3iEICAcQSQoHFTzoAhAAFJAAlKGsQhAAHjCCBB46acAUMAApIAEpQ0iEMAAsYRQILGTTkDhgAEJAEkKGkQhwAEjCOABI2bcgYMAQhIAkhQ0iAOAQgYRwAJGjflDBgCEJAEkKCkQRwCEDCOABI0bsoZMAQgIAkgQUmDOAQgYBwBJGjclDNgCEBAEkCCkgZxCEDAOAJI0LgpZ8AQgIAkgAQlDeIQgIBxBJCgcVPOgCEAAUkACUoaxCEAAeMIIEHjppwBQwACkgASlDSIQwACxhFAgsZNOQOGAAQkgcASHBsbGx0dPXPmzPDw8NDQ0ODgYH9/f09PTzQabW5urq+vj0QisgHiEIAABMJMILAEL168eOHChZmZmenp6ampqYmJifHx8dHR0aGhob6+vo6OjvXr14d5wPQNAhCAgCQQWIL19fVHjx597bXXDh06dPDgwVdeeWX//v1//OMf9+zZ89xzz9XW1t56662yAeIQgAAEwkwACYZ5dugbBCCQcwJIMOeIaQACEAgzASQY5tmhbxCAQM4JIMGcI6YBCEAgzASQYJhnh75BAAI5J4AEc46YBiAAgTATQIJhnh36BgEI5JwAEsw5YhqAAATCTAAJhnl26BsEIJBzAkgw54hpAAIQCDMBJBjm2aFvEIBAzgkgwZwjpgEIQCDMBJBgmGeHvkEAAjkngARzjpgGIACBMBMILEFuqhrm6aRvEIBAUAKBJdjZ2dnR0dHW1tba2trc3NzU1NTY2FhfX3/48OEDBw7s3bu3qqoqaCfIDwEIQKBQBAJLkJVgoaaKdiEAgVwQQIK5oEqdEIBA0RBAgkUzVXQUAhDIBQEkmAuq1AkBCBQNASRYNFNFRyEAgVwQQIK5oEqdEIBA0RBAgkUzVXQUAhDIBQEkmAuq1AkBCBQNASRYNFNFRyEAgVwQQIK5oEqdEIBA0RBAgkUzVXQUAhDIBQEkmAuq1AkBCBQNASRYNFNFRyEAgVwQQIK5oEqdEIBA0RBAgkUzVXQUAhDIBYFcSPC6XHSUOiEAAQjkggASzAVV6oQABIqGQCYS3LnGcsNNOwYHB/v7D/zgSjfh2p/8pGLRoqIZPR2FAASMJ5CJBEdHR8+cOTM8/KubrGX3vDrYv/1G64bHotFoc3NzfX19JMJ22PjTCgAQKB4CGUnQXwraEjxw95WWtWTDi0iweOadnkIAAi6Bqqqqurq6559//qWXXtq/f/+rr756+PDhI0eOHDt2rLGxsampqbm5ubW1ta2trb29PRqNWmPH/vUqa81TaiV4+N5ltgT7+3t6el7csMSyrGt/wkqQcwsCECgmAsFXgk/fYl216ciZM8OH/3mZsx22JRiNRp//x8VX3PEM2+Fimn/6CgHjCQSX4NixTVfZl0GW3XSTsxLcfqN3oeS6n6jvBCPGUwUABCBQNAQykOCYd2FkeGhoyL46rLbD4sIIEiya6aejEIAAEuQcgAAEjCaABI2efgYPAQggQc4BCEDAaAJI0OjpZ/AQgAAS5ByAAASMJoAEjZ5+Bg8BCCBBzgEIQMBoAkjQ6Oln8BCAABLkHIAABIwmgASNnn4GDwEIIEHOAQhAwGgCSNDo6WfwEIAAEuQcgAAEjCaABI2efgYPAQggQc4BCEDAaAIBJbjTGhvjfoJGnzEMHgIlRgAJltiEMhwIQCAYASQYjBe5IQCBEiOwaNEi9YCQb2w5duzYiRM/+461eMOGlc4jQ5befWBwcHBoaGj48D87TxVZvmkT2+ESOwEYDgRMJ2CvBH/8DevyO+ocCVrWym1dXV29j62yrBufVBLccZNl3fzUyOjoaP2m5UjQ9DOG8UOgxAi4K0Ffgos3vBhVEux97EZr6T2vDg4dunfZsn9+bURJ8OxZLoyU2PwzHAgYT+C6SOTll3d873K9EkSCxp8TAICAUQRujURe3vF3l6dYCbIdNuqEYLAQMI2A2g5/4W++kWIlODQ0/KubnEslXBgx7fRgvBAofQIBfyJzlgsjpX9OMEIIGEUACRo13QwWAhCIJ4AE44nwHgIQMIoAEjRquhksBCAQTwAJxhPhPQQgYBSBSCTyxz/+8dChQ/X19U1NTW1tbdGo82Pp3v7+fvfP5oaHR9wfS6e8MHLixIn6+vpIJGIUQQYLAQgUNYE4Cba2tgaT4MDAQH9/f09PTzQaRYJFfSrQeQiYSSC1BAcGBtQNFFgJmnlyMGoImEAgtQSDbYebm5vZDptw0jBGCJQSgTgJzv+dYGdnZ0dHR1tbW2tra3Nzc1NTU2NjY319/eHDhw8cOLB3796qqqpSAsRYIACB0iZQVVVVV1f3/PPPv/TSS/v373/11VcPHz585MiRY8eONTY2NjU1NTc3t7a2trW1tbe3R6NR9RcjZ8+eHR0dHRkZOX369ODg4KlTp3p7ezs7O1taWo4dO8aFkdI+YxgdBEqMQCQS2bdv32uvvfb666+fOHGivb29s7Ozu7v75MmTp06dGhwcPH369MjIyJkzZ+xbadlXh6UE33jjDSRYYucEw4GAUQS0BBsaGpqbm+Mk+MYbb8RL8Ny5c3ESHBgYOHnyZFdXV2tr6+uvv85K0KgTiMFCoNgJRCKRAwcOHD16tLGxsaWlpaOjo6urq6enp6+vb2BgIE6CY2NjlpbgmTNnhoeHh4aGBgYG+vr6urq62traGhsbkWCxnxP0HwJGEYhEIq+88kp9ff3x48fjfiSofx/j7IVHR0ddCSY+dfPUqVM9PT0dHR1NTU1I0KgTiMFCoNgJRCKRQ4cO2U9ZSvKFoPMjQf2FYIwE9bWRN954Y2BgoLe3NxqNNjc3I8FiPyfoPwSMIhCJRI4cOdLQ0NDS0uL8rUjiXnjUDmfPnlUSvMoLy7yw1A5XXnnlkiVLFi9e/EVCkRC44ooriqSndBMCuSVw+eWXf8kOixcvXrJkyZV2cMzmeU69OvKzPuqFjyQL/9ML/2OO8N8JoSFwySWXhKYvdAQC+SOQKCfPW+o1mdhUmme+j6YrQV1pYnukhITAJz7xiZD0hG5AIEcEPvKRj1xyySWf+MQnPpksfMoLnxZhkRc+kyxceuml1p+JoNUoI0k9qp1IJDwEPvnJT4anM/QEAlkn8NGPftSzXPyrkJ6Ket5bJL13abJw2WWXWR8TQfgwJiqdKONJ/UhioQh8+tOfLlTTtAuBPBD4gv10gQAAAYhJREFU5Cc/KWWnTScj0nqf+cxnpPcuSxY++9nPxkjwYx/7WIz8xBvpPuLhJLBo0aJwdoxeQSArBOIEl/hWKu/SSy+Nk95nE8Ln7GBdEhvEujA+KpRINIwEPvOZz4SxW/QJAlkiEOc4+TbOd5dddlmc8Rzfyf//uRcCSNCRYpaGQzXZJ3DZZZdlv1JqhEBoCMxrOi0+KbvPfe5znu7iXz9vh3gJXnLJJfErwGTvQ4OFjvgEkKDPglgpEtCOSxGJ09+8Bvz85z9vfTxZiN0iz/kumR5JKxiByy67bCFtX3HFFX//93//j3a44447vv3tb3/84x9Pp8K1a9d+97vf/Yu/+AuZ+atf/eqdd9755S9/WSYWJH7ppZded911ztDuuOOO66+//nOf+1xBepJOo3IW7rrrrurq6vLy8rkKfvnLX77zzju/+tWvzpUhUPqnPvWpb3zjGw6oO++881vf+lag4ulkXuBZMZf7nn/+eeemWGNjY+fOnRsfH29oaHBsGL/2E+8/74X/D+Hc10M860gpAAAAAElFTkSuQmCC;" vertex="1" parent="1">
          <mxGeometry x="1060" y="205.81" width="412.87" height="535.39" as="geometry" />
        </mxCell>
        <mxCell id="0uebhjib72tp26NV08e5-57" style="edgeStyle=orthogonalEdgeStyle;rounded=0;orthogonalLoop=1;jettySize=auto;html=1;exitX=1;exitY=0.5;exitDx=0;exitDy=0;" edge="1" parent="1" source="0uebhjib72tp26NV08e5-53" target="0uebhjib72tp26NV08e5-52">
          <mxGeometry relative="1" as="geometry" />
        </mxCell>
        <mxCell id="0uebhjib72tp26NV08e5-53" value="open the Test name forn GUI &#xa;class TestNameDialog&#xa;&#xa;from user get :&#xa;Test name - String &#xa;Purpose - String &#xa;Accuracy level- Number (1-10)&#xa;Starting point - Enumeration points " style="rounded=1;whiteSpace=wrap;absoluteArcSize=1;arcSize=14;strokeWidth=2;" vertex="1" parent="1">
          <mxGeometry x="570" y="396" width="250" height="155" as="geometry" />
        </mxCell>
        <mxCell id="0uebhjib72tp26NV08e5-60" value="" style="edgeStyle=orthogonalEdgeStyle;rounded=0;orthogonalLoop=1;jettySize=auto;html=1;exitX=0.25;exitY=0;exitDx=0;exitDy=0;" edge="1" parent="1" source="0uebhjib72tp26NV08e5-53">
          <mxGeometry relative="1" as="geometry">
            <mxPoint x="610" y="375" as="sourcePoint" />
            <mxPoint x="380" y="100" as="targetPoint" />
            <Array as="points">
              <mxPoint x="632" y="335" />
              <mxPoint x="570" y="335" />
              <mxPoint x="570" y="80" />
              <mxPoint x="460" y="80" />
              <mxPoint x="460" y="100" />
            </Array>
          </mxGeometry>
        </mxCell>
        <mxCell id="0uebhjib72tp26NV08e5-61" value="Cancel Button" style="edgeLabel;html=1;align=center;verticalAlign=middle;resizable=0;points=[];" vertex="1" connectable="0" parent="0uebhjib72tp26NV08e5-60">
          <mxGeometry x="-0.5099" y="-6" relative="1" as="geometry">
            <mxPoint as="offset" />
          </mxGeometry>
        </mxCell>
        <mxCell id="0uebhjib72tp26NV08e5-78" value="" style="edgeStyle=orthogonalEdgeStyle;rounded=0;orthogonalLoop=1;jettySize=auto;html=1;" edge="1" parent="1" source="0uebhjib72tp26NV08e5-63" target="0uebhjib72tp26NV08e5-66">
          <mxGeometry relative="1" as="geometry" />
        </mxCell>
        <mxCell id="0uebhjib72tp26NV08e5-63" value="Create test directory for later use according to  &quot;Test name&quot;" style="rounded=1;whiteSpace=wrap;absoluteArcSize=1;arcSize=14;strokeWidth=2;dashed=1;dashPattern=8 8;" vertex="1" parent="1">
          <mxGeometry x="150" y="461" width="320" height="40" as="geometry" />
        </mxCell>
        <mxCell id="0uebhjib72tp26NV08e5-64" value="" style="edgeStyle=orthogonalEdgeStyle;rounded=0;orthogonalLoop=1;jettySize=auto;html=1;entryX=0;entryY=0.75;entryDx=0;entryDy=0;endArrow=none;startFill=1;startArrow=classic;exitX=1;exitY=0.5;exitDx=0;exitDy=0;" edge="1" parent="1" source="0uebhjib72tp26NV08e5-63" target="0uebhjib72tp26NV08e5-53">
          <mxGeometry relative="1" as="geometry">
            <mxPoint x="480" y="480" as="sourcePoint" />
            <mxPoint x="560" y="345" as="targetPoint" />
            <Array as="points">
              <mxPoint x="490" y="481" />
              <mxPoint x="520" y="480" />
              <mxPoint x="550" y="480" />
              <mxPoint x="550" y="512" />
            </Array>
          </mxGeometry>
        </mxCell>
        <mxCell id="0uebhjib72tp26NV08e5-65" value="OK button&amp;nbsp;" style="edgeLabel;html=1;align=center;verticalAlign=middle;resizable=0;points=[];" vertex="1" connectable="0" parent="0uebhjib72tp26NV08e5-64">
          <mxGeometry x="-0.5099" y="-6" relative="1" as="geometry">
            <mxPoint x="35" y="-42" as="offset" />
          </mxGeometry>
        </mxCell>
        <mxCell id="0uebhjib72tp26NV08e5-76" value="" style="edgeStyle=orthogonalEdgeStyle;rounded=0;orthogonalLoop=1;jettySize=auto;html=1;" edge="1" parent="1" source="0uebhjib72tp26NV08e5-66" target="0uebhjib72tp26NV08e5-68">
          <mxGeometry relative="1" as="geometry" />
        </mxCell>
        <mxCell id="0uebhjib72tp26NV08e5-66" value="check if its Multiwindow state (config)&#xa;True - will eliminate the Main GUI &#xa;False (default) - do nothing " style="rounded=1;whiteSpace=wrap;absoluteArcSize=1;arcSize=14;strokeWidth=2;dashed=1;dashPattern=8 8;" vertex="1" parent="1">
          <mxGeometry x="152" y="561" width="317" height="60" as="geometry" />
        </mxCell>
        <mxCell id="0uebhjib72tp26NV08e5-72" style="edgeStyle=orthogonalEdgeStyle;rounded=0;orthogonalLoop=1;jettySize=auto;html=1;exitX=1;exitY=0.25;exitDx=0;exitDy=0;entryX=0;entryY=0.25;entryDx=0;entryDy=0;" edge="1" parent="1" source="0uebhjib72tp26NV08e5-68" target="0uebhjib72tp26NV08e5-69">
          <mxGeometry relative="1" as="geometry">
            <mxPoint x="360" y="655.0000000000002" as="sourcePoint" />
            <mxPoint x="590" y="655.0000000000002" as="targetPoint" />
            <Array as="points">
              <mxPoint x="530" y="674" />
              <mxPoint x="530" y="700" />
              <mxPoint x="590" y="700" />
            </Array>
          </mxGeometry>
        </mxCell>
        <mxCell id="0uebhjib72tp26NV08e5-74" value="Stating point&amp;nbsp;" style="edgeLabel;html=1;align=center;verticalAlign=middle;resizable=0;points=[];" vertex="1" connectable="0" parent="0uebhjib72tp26NV08e5-72">
          <mxGeometry x="-0.0339" relative="1" as="geometry">
            <mxPoint as="offset" />
          </mxGeometry>
        </mxCell>
        <mxCell id="0uebhjib72tp26NV08e5-144" value="" style="edgeStyle=orthogonalEdgeStyle;rounded=0;orthogonalLoop=1;jettySize=auto;html=1;" edge="1" parent="1" source="0uebhjib72tp26NV08e5-68" target="0uebhjib72tp26NV08e5-143">
          <mxGeometry relative="1" as="geometry" />
        </mxCell>
        <mxCell id="0uebhjib72tp26NV08e5-68" value="GO to Stating Point&#xa;go_to_starting_point(starting_point)" style="rounded=1;whiteSpace=wrap;absoluteArcSize=1;arcSize=14;strokeWidth=2;" vertex="1" parent="1">
          <mxGeometry x="152.13" y="658.5" width="317" height="60" as="geometry" />
        </mxCell>
        <mxCell id="0uebhjib72tp26NV08e5-69" value="GO to Stating Point (Desktop, googleap, none...)&#xa;def go_to_starting_point(point_name)&#xa;&#xa;use function &#xa;def minimize_all_windows() for go to desktop" style="rounded=1;whiteSpace=wrap;absoluteArcSize=1;arcSize=14;strokeWidth=2;" vertex="1" parent="1">
          <mxGeometry x="590" y="685" width="250" height="120" as="geometry" />
        </mxCell>
        <mxCell id="0uebhjib72tp26NV08e5-73" style="edgeStyle=orthogonalEdgeStyle;rounded=0;orthogonalLoop=1;jettySize=auto;html=1;exitX=0;exitY=0.75;exitDx=0;exitDy=0;entryX=1;entryY=0.75;entryDx=0;entryDy=0;" edge="1" parent="1" source="0uebhjib72tp26NV08e5-69" target="0uebhjib72tp26NV08e5-68">
          <mxGeometry relative="1" as="geometry">
            <mxPoint x="410" y="695" as="targetPoint" />
          </mxGeometry>
        </mxCell>
        <mxCell id="0uebhjib72tp26NV08e5-75" value="True \ False&amp;nbsp;" style="edgeLabel;html=1;align=center;verticalAlign=middle;resizable=0;points=[];" vertex="1" connectable="0" parent="0uebhjib72tp26NV08e5-73">
          <mxGeometry x="-0.1955" y="-6" relative="1" as="geometry">
            <mxPoint as="offset" />
          </mxGeometry>
        </mxCell>
        <mxCell id="0uebhjib72tp26NV08e5-146" style="edgeStyle=orthogonalEdgeStyle;rounded=0;orthogonalLoop=1;jettySize=auto;html=1;exitX=0;exitY=0.5;exitDx=0;exitDy=0;entryX=0.5;entryY=0;entryDx=0;entryDy=0;" edge="1" parent="1" source="0uebhjib72tp26NV08e5-80" target="0uebhjib72tp26NV08e5-82">
          <mxGeometry relative="1" as="geometry" />
        </mxCell>
        <mxCell id="0uebhjib72tp26NV08e5-80" value="Start Recording&#xa;start_recording(test_name, starting_point)&#xa;" style="rounded=1;whiteSpace=wrap;absoluteArcSize=1;arcSize=14;strokeWidth=2;" vertex="1" parent="1">
          <mxGeometry x="153.13" y="873.5" width="317" height="60" as="geometry" />
        </mxCell>
        <mxCell id="0uebhjib72tp26NV08e5-82" value="Main function to start the event&#xa; RecordTest.Py &#xa;main(test_name=None, starting_point=&quot;none&quot;)" style="rounded=1;whiteSpace=wrap;absoluteArcSize=1;arcSize=14;strokeWidth=2;verticalAlign=top;" vertex="1" parent="1">
          <mxGeometry x="-680" y="680" width="460" height="950" as="geometry" />
        </mxCell>
        <mxCell id="0uebhjib72tp26NV08e5-94" value="" style="edgeStyle=orthogonalEdgeStyle;rounded=0;orthogonalLoop=1;jettySize=auto;html=1;" edge="1" parent="1" source="0uebhjib72tp26NV08e5-83" target="0uebhjib72tp26NV08e5-84">
          <mxGeometry relative="1" as="geometry" />
        </mxCell>
        <mxCell id="0uebhjib72tp26NV08e5-83" value="called when the program exits, ensuring the lock file is removed&#xa;register_cleanup(lock_file)" style="rounded=1;whiteSpace=wrap;absoluteArcSize=1;arcSize=14;strokeWidth=2;" vertex="1" parent="1">
          <mxGeometry x="-600" y="750" width="317" height="60" as="geometry" />
        </mxCell>
        <mxCell id="0uebhjib72tp26NV08e5-95" value="" style="edgeStyle=orthogonalEdgeStyle;rounded=0;orthogonalLoop=1;jettySize=auto;html=1;" edge="1" parent="1" source="0uebhjib72tp26NV08e5-84" target="0uebhjib72tp26NV08e5-85">
          <mxGeometry relative="1" as="geometry" />
        </mxCell>
        <mxCell id="0uebhjib72tp26NV08e5-84" value="Close any existing mouse listener threads&#xa;close_existing_mouse_threads()" style="rounded=1;whiteSpace=wrap;absoluteArcSize=1;arcSize=14;strokeWidth=2;" vertex="1" parent="1">
          <mxGeometry x="-600" y="840" width="317" height="60" as="geometry" />
        </mxCell>
        <mxCell id="0uebhjib72tp26NV08e5-97" value="" style="edgeStyle=orthogonalEdgeStyle;rounded=0;orthogonalLoop=1;jettySize=auto;html=1;" edge="1" parent="1" source="0uebhjib72tp26NV08e5-85" target="0uebhjib72tp26NV08e5-96">
          <mxGeometry relative="1" as="geometry" />
        </mxCell>
        <mxCell id="0uebhjib72tp26NV08e5-85" value="Create the floating window with test name&#xa;EventWindow(test_name=test_name)" style="rounded=1;whiteSpace=wrap;absoluteArcSize=1;arcSize=14;strokeWidth=2;" vertex="1" parent="1">
          <mxGeometry x="-600" y="933.5" width="317" height="60" as="geometry" />
        </mxCell>
        <mxCell id="0uebhjib72tp26NV08e5-86" value="" style="shape=image;verticalLabelPosition=bottom;labelBackgroundColor=default;verticalAlign=top;aspect=fixed;imageAspect=0;image=data:image/png,iVBORw0KGgoAAAANSUhEUgAAA1MAAAB+CAIAAABOANy+AAAgAElEQVR4Ae29CVRU15b//1b3ojt5+l778kqGMhEiOCNBQYEYxaEAFSKICJoEVGYVoyUgGJxwFpQ4AaJGTVADGI0DximJYyUqRkDmUgSRQcAk/V5e+tfdv9W//7/v3XV3nbo1WEChIPsuFpx77jn77PM5d/jWPucWf5B07c3GxkZK2ytBYNCgQV37XCPvugQBGxubLuEHOUEEugYBuiK6xji8OC+MGXFXV9fDhw9v2LBh6NCh7fDsD+2o8yKrtFv5WQ8c4jA1YKRfyKAx4/u9+dYroZ26dyfaofws3+w/cmaolfXbqlOub9+hk3wGuk16kWcgtfWCCRhz1xO5NNBt0tBJPpK+fSHfyvrtkTNDLd/sLypGu0SgOxJoxxXBdbNv3/7DR47wnm0/ZVa/ge0RB92R1avhszEjPmHChCNHjuzbty83Nzc8PNzCwqJNfX81ld+wCVPdl26clnJsxr5LM/ZdGrc4uXuLplfC+3YoP6v+Np7rDnhvyx06ycfKxnbcxxv8si7aT5nVplOcCncvAsbc9UQ9sp8yyy/r4riPN1jZ2A6d5OO9Lddz3QGr/hQ7FHGi3W5JoB1XhEQiGR2y5L2YZN+M/Bn7LvlmfjNkgne37HyPdNqYEZ8wYcLnn38+efLk8PDw3NzcnTt3jho1ynhar6byc5gWOGXT5+/vPAnKb+Ly7V1BOx1Pjz6eHt0VPJFKpXs3hpw/tGR38kdvvdkPXHrrzX57N3CZS0OnGHYyODh4woQJojKzZ8/28fERZbK77VZ+MIj4+6UrP3Nz87Fjx1pbW+u8zKytrX34bciQIZMnT7aystJZrOOZLi4uDg4OHbfTDgtWVlbu7u6d1DVj7noin+2nzMLTAxKdp/zCUzNWHL84ZKSzyIeXtTtkpPPyo2c850bqdCA8NWPL1aIVxy8u3HN42aGvdJYxSeayQ1+Fp2aYxFSXMuIsm7Li+EVn2RSRV24+MyLTstx8ZkC+vevYyLQs2YfzRcVMstuOK0IikYz7eIPnugO+md/AFfHSb5smQSEyIg+b8ujqBnnYFD+v0ZWX18rDxMMkKt++3Q1x/uc+W3xw67whA9X3fMjcEOffPpuGaxkz4qD8JkyYIJFIhg4dumHDhhMnTsTGxhoZ/HvVlN8Ah1HjF6+bELsVfnzSjs/Yd2ni8u3D3KfYT37/5U77gvI7nh7dWpDK/hSfWzXedQQrknSmtyfNNrKkzuqizL0bQ87sj8nZFTl53Eg49L7n6BMZC/I/+9iw8psxY0ZdXd2tW7dY8bd48eKnT59+9913olbY3R6i/FCQWVtbd0HlZ25u7u7ubmdnZ/jWY/hod1d+zrIpyd8otlwtgp+AZUmG+9uVjxpQfs6yKatPXwFRGJ6a0QWVn+fcyNWnr2jrqq4DvDsqv6GTp4+Xb4afCfHbIeznMP2jYZ7+Ng5d5RNLu4dYHjal8vJaP6/RrIXOVn6nshaeyFwQMM0FGnV6Z+AX28PO7I/pIsoPvJoxY0Z2dva+ffs8PDxYODrTr5Ty6/dW/8krdog+/YPym7h8u1/WxVH+81gt8oLTbMxvvOuI4nOrtifNNt4Hkyu/ExkLvs5atDzaG3xIXPh+3u7oU1mLDCs/qVQKOu/mzZtOTk5SqXT+/PmNjY0iLajdr56j/EBXkfLTecd5bqYxn3dFRtoa82Mf511ffIg6K9o1rPwwXkXKT8TNyF32VGGrdNmYn7X9KJ9PT2g/BJ1mR/ukHff59IS1fRvmBNkud5H0y1J+ubujtiwPAAjzA91z90Tl7onqUspPIpH069dvxYoVJ0+eXLNmTb9+/QwM2R/YCSM7Ozs/fvP09GSnclxcXEaOHOnu7u7n5+fj4wPzXBjbkEgkVlZWkydPNtBMuw+16Q0Pm6H2sLbPL+vi1M1fQNjPfenGYROnTd30BScB41K1FYlUKr2RG/9ttrzm2kYIqsVH+TT+sKW1ILXm2sYAbzeosj1pNgTqMBOjd40/bImP4iY6A7zdKi+vPXtgcWtBKkzsoqnic6vOHliMs70i5YfF0Dh4BS2CZMQwIasXb+TGnz2wuPjcqtaCVHTjRm48NgQuafd678aQ7LTwvRtD9m+aO8jOZsQwu8OpoZviA05mLnyu8mPFX2RkpDGyTyqVvhjl5+Li4uzs7Onp6e7ubm5uDnOvfn5+7CmtfZ47ODjAmY+nN5zSI0eO9PPzg2sEy4wcOVLnbC+E08COu7v722+/jTE/dAOtWVtbjx071tzcXCKR2NnZoXt2dnYuLqpPlqKrBh2Arum8KiUSiYuLC/oA9pHJhAkTPD09RUfx+oXO+vn52fEbFGOjg2h52LBh3Xq2l32cs4Exz7mRG78tEAUCYcJ0y9UiiJmxEipgWRIUTv5GoR24AssLdh3ccrUIZkJFpmB8MRMnkZcd+kpk1oCpBbsO6pztZfsSnprBui06JJFIApYlYUSQnc6GiuCn6LfI7WWHvlqw6+CK4xe3XC3a+G0BBBrZ2CoQYDuSmPMNdBP5sE1os8UW0b5EItFud8hI5xXHL2IcV6TsWQe2XC0KWJaEDWEVMAu+zV2fhuqZda/LKr9hk3399p7n1vZlnJuctAcify7zY4d7zfTNyPfLujjMU8cEJcTMDqXMhwdfUf5KN6chEokEZNblL5a2FqSmJHILrK/nxMGT6NHVDRh48/Ma/ejqBsiHYvKwKWCKLYZ1c3dzixN0lkHIfl6ji/JXYhPXc+JSEmelJM7C52Du7khUgWzMT5/Z3N2R13Pi0AfsDjgjkUjACDqAiQ1x/l+lR29NnHXk03CndwZamPfdsXrOpytnf74ttKspP/DZw8Pjs88+y8rKGjKEG0SJRGJhYREfH8+KtD/g1A/7+Bk8eLBI+eETEYvZ2dnBEwgeXfoeV9Bwu3+3TfkNGjZ10+czsi6OW7jacfpHE2K3TIjdMnH5Nu4zUNbFGVkX3Zdu1NZAUqn0ek48Sq4Ab7eKS2tByW1Lml2Uz03FbkuajQUy1gcHeLuxOfFRPhWX1gZ4uwV4u9Vc23g9Jx5aYU3FR/k0/LA5b49qnd941xFF+au28TE/thi2mLcnGu2ANTzEduF6TnzDD5vRW3CSLbktabbIDlTP3BiSvT08Zp5XXvqC6Z5jZk8fm7MzMnzOpBMZRik/CPU1NDT893//940bNyD4xzqmnW6T8rPo95bL/NgJcSnv7zgJY4e/PdZkjV+6cdhkX50nlYuLC6ooUG/wQQVPVzyBJRIJnOdsDgbqrKysPD098azG6hKJxMHBAS8HbR9cXFxEMT8wBZk42couFhw2bNikSZPwAxUrttC+g4MDXm7Dhg0zNzd3cXFBN1z4DTSco6OjRCKBhkCzskzQAbQMtbCzIIuh4ywZBwcHpMEaZO2YJN2mmN+g9zzGL93osSYLTw9IvL/j5IS4FNew5VIbHfPanPLLuwBajRM9B4+D53PXbQfJErAsae25m86yKQHLklbkXWBX9YWnpEN5LCORSD5I2qhT+a09dxONs6aWHTwenpIukUjCU9LR/tx124eMdGZzsIqzbIo+U+Ep6awSYoeA7Sa6DaZA5XAiKe9CwLIktuTHWUcBDhdNPKJ7BSHrJLi97OBxdGPZweOICBrynBu59txNz7mRoo5wsuzU99rotNmyOWwttl0sg50FwoAayLAOBCxL2nylCF2FEYcqOGrLDh7HfJYtp/y2a67z294l1vkNcZ/ql3HON/3scK+ZLvNjx8s3jZdvmpy0xzc9f0bWRb/M8zrvnH5eo6uvrC86qxJ813LiruXEgThr+GFzzi7VKtKcXZFYJiVxFqShLgq+1R/7+nmNrrikWnWHxXJ2RYJNwMiWYcFimlN+Z9XK7xqv/MClikuq2V552BRIozVMoB1M5OyKbClIQT+rr6yXh01B9yQSSUriLNZDrLg+zv/4nuh5s8bn7IqaH+g+3tX+yKcR0R9NPpwauv7lrfPr16/f7Nmz33nnHfQTEv369YuPjz9x4kRycjJ7L/Xx8cnMzETx9weMMeATS2QIoggYGsQnB7vWx0BdbWttymmT8uNnez+dkXVxzIeLfLbniR4GflkX9M32Xs+JR03GSq4Ab7ei/FUB3m7Xc+JBpYGgYXUb5EABVsNJpVLWFOxiK6wFthi2yKo3aEI7BzSrtk00AgVYz1GQgfKbOsnp6I7ItXL/jcsDMteHeE0Y1UWUn0QisbYfOS0lRzSI3M0r64LL/Ni+5rpfYmdD0axYwdNVdK7i+YynJRRgVaOoDCvasBYm0D6KSNYN9mMSuAoaztnZ2cHBAdLshy4wq7NFtqesMEVPHPhN3/WLxTDmB9KT7TimMQG1ECZrxFRp9m71fJt9+46ZK/fLuqB9nkxLydG3qgke/5uvFG2+og5QsW2hEmJFBhRAVbHs4HE2SsRWhzQXXjr1PUhJ1FhwCOSmtrRiq0gkEizA5otMYRmdDqDARbcxIfIEJeCyg8eXHzkDcnDZweOs6oUqOltELQsRRJSzoipsRyQSiTZeKC9iK+oyF5MT4LPtYjHPuZHLj5wZMtJZ21XWAZ1pNlMikeCZAI7h7y6r/GC212d7ntPsaO2LQt9sr0gwoaLCBITEUM9JJBI3pyG3TiSCeBIJJlbkoYBjNRZULzq7EnQYUmUTWBEyjVR+bk5D9JllvZJIJNdy4v5XyLKtYBOsGxKJBJSfx7h3stYHf7p6zpL5nodTQye+a/9SlJ+FhcWqVau+5rdVq1aJ3ucwvNTPy8sLxJ+Xl9cfYNbJ0tJS5wQWIGCfMfAggbAEPiM7deoHxYoxCeuBgx29Zw8b7+W9Pc8v66LH2iz3ZVvgxzVE/mZ/a51GruXE5e2JgkN5e6Ka76TgT71i85aEWbdOJsZFqdbDSaXS8a4jRDl5e6Ly9kTNnOZWfmktloRMbJHd5ZXfStBk2i2CBcgvyl8J73/wyk+VRpus51Kp9FpOHNiExMxpbkX5K2dOU01YYy2pVJq5MTh7e9hoxyFr5TOO7og4tiMiZq6nh/vIExkLloR6sSV1pmNiYhobG69fvx4REVFfX//DDz+4u7vrLImZbYr5wYln4+A8NSXHj1N7qh/frAtu4QnmlnpfmGXPVQcHB19m8/b2fvvtt0XnubaoAsFkZWWFcThRGdGu6DbBKr9JkyZZWVmhAoOSOM8LH7qsra2dnZ3xN04Bs2Z1Ki22p2gTQpLYaYz5aX9yE9nHzrIdx7TIAdEua6rj6bYpP4mkr7mFy7xlvlkX8CTxy7o4LTVnwKh39TnjLPNK5GJ+XqCuEvMuzJRzL3k4y7zWnrux+fvCzd8Xrj13AwrMlCexu2Ep6XJeDy0/csYjJEJfE2Bt1anvocyQkc6JeRfAMvxOzLswcXYIugF2WMcgR37w+Ex5krPMizXFNg3iRqcnrDVwWyKRhKWkh/HhRrDvERIBIgnyZ8qTwlLS8bdciIay3WTNYr784HE0izbZXm/89o5HSATbEYlE4hESsYqL+XEDgZt2j7RzsBdsu1xAiMeF5dETNM46oDMt6p1oF+24TZ0eteOA7INQyBk/Y3bUjgPjZ8zGAiZMtPWKsHFwHuYxw2H6h35ZF6enn3WP2waRv/HyTUMnTdfpmK/n6PJLa+WhqoHw9RxdeDbJ13O0PNSr/NJaX0/udQrMRAvXcmJTEgJydkXk7NK4EHJ2ReADtPlOSr1iM1iG/MKzSTCV7Os5+uH365vvpKQkqNbPoWXt5qAtbogZlzDN+q/PbM6uiGs5sdgEug2WtXuHJdfHzji+J2rCu/bRH07K2RFxODV01eLp7wwbwCm/WNXL3VjYJAmdI25vb79nz57U1NTDhw/LZDIPD4/Dhw+npqbu2bPH3t5+6NCh69evP3HiRFxcnIEVfl5eXvv27cvMzFTF/ERRDZH37DOGfezB4wqjhqJaJtltU8wPRcbbwx1B+XEL/jZ+7rnuwNvD38Gj2glWP7H6DEqyKk1fDiotkfK7lhOHzbGtsDa1W8QqfKQwCow8V/mxejQuyvvbbPm2pNmsA6xZVH6zp489lbUwd1eU+7sORio/lH0wyTtv3jxjxF87lB8XIXNx9/70ODzUnyv7RPEtkeTCOVB2OlX7zMfPMyiGRGVQD+k8w3UqP5wnZWN+oJ+GDRtmZ2eHaZRorHGdLbJXJSo/Nr6I3WdLivoCrbD2dabZTC4ca20NopZ10lRpnXc9w8bNLa3GLliN4s+w7ANNxkoukBEiHcAWkEgkM+VJify0Lyo/1Iv6fGMNohZhC7MFIF+Ug7XYfJBTIFVF+pI1Luomq/xYPTdTngS7IJLCUtI9QiIgHb3zILbCWmadwXxWgUF116nTEZHOjhhQflgR7Iu6jAoPEqg4sRUYLxhWPAqmWOd1ptlMfR5yl8DAQSHrtoWnZrjPnOM2dXropp2hm3cOHMEttDD51o4rQiKR2HsFwG1zesY5j+T94xavN+AYq5xAXf14IsHNaQhKK5BirDp0cxry44kEeaiXSFH976cpFFU6WxSVFzWNVURSzHjlBxa0zYraZQ1e+nxJSkIAqwvRDS7mJyi/8a72OTsjTmYu8PMa8+KVn0QiCQkJOXnyZEZGhpzfMjIyvv7663nz5rm6umZnZ+/YscOYr/Qbwm/qdX4ODg64QArWP+EDg13Ww643gskpURCFRdbxdPuUn83g4VM3ZftxYYALk1bsmBCXYj1wCKt7ROlrOXG5QswvLsq7+uoGjNtBydw9UdVXN8yc5iqVStPXBc+c5srmxEV5l11cM3Oa68xprmUX12Bd1lRclHe9YhO2Ms7FvujsylR+nR9bTOSYVCpNTZpddHblOBd7TEBsD0xdy4lDx3L3REFJqVQ6zsX+Wk7crRMaoUrWeMaG4C+2cTG/QXY2+zfPg0ihh7vjifTnxPz8/PxqampEQb6YmJiGhoZvv/2WbUKUbp/yk0gkA10n+nx6wnfveVeD0T442caMGTNixAhIW1tbe3p6wiQmnoojRozw8PCAGVU4z9kc1DQirTNixAhcZjdixAhvb2+RWbQ/ZswYUJZoytra2tvbGzJZ4WVubv7uu+9OnDgRTDk5OWEarWFizJgx6ACs8xP19N133zU3N8dMaAhQYKZI+6IzbGf1pcfwG/gzZswYZIgemirRvuecuaXVuCUbffeen5aSM2Ck3mgfOOkk80rMPe8EMT9Hp8Tc8zPlSVz86evvIHOmPGlt/g1IQxU8GpayR34wjw+e7cEyc5I2sIWxlVVff4fRuLCUPYm554c4OrGg5AfzMDMkedsQRyc2h5ObfBUnmZc+U2EpezZc5sJprFl0ALuJbnuERGy4fAck3RCh7xKJBJqA8kMcnZZnn8a62pZZJ9HtsJQ9UJJTftmnJ84OQZ89QiLW5t/wCIkQdQSpipoISxGzZXPYWvKDeTgKLGEnmdfy7NPLs0+LRpl1QF9afjAPhphXlmr7Iicd35s4d0Pagp0HF+w8OG/jp06TNCKXosId2W3fFTHEfdr09Hy/rAvT95x57+MNo0PkBnzw9Rz94Pt1177kQmKuo4YUnknK2cmdUfJQr7KLayDmx82QfhlbeCbJdRT33sDWhABIy0O96hWbtvJxO3mo16rF0+WhXg++X4cRRFG7WBHyoTmozpZk87cmBDTfScEm0CV0z9dzdNnFNWyLWB2by9kZUa/YBGW2JgQ8+H4d9Mt11JBrX8aCimUdwPS62Bl5XMxvOL8WMCBrY7BNf6nDsAGHUkLXvcCYn0QicXd3P3r0aEZGxi5+y8jIOHbsmLu7+zvvvBMYGCia+UX/dSa4mB8e0H55EGeL4H1J0TuSMLWEDyS0Y8KEtbXu+VmRqtDefcv67aHuXo6+wUPHeeqb5MVa176MzRGUHye2Ppn99HYK/Fz7MhaK5eyJgpzCM0njXOylUinmVF9RiUJO+V1YExupnhdGU4Vnkk7vi8FWxrnYF55JSv1E9a0uWOzp7RRoUds4VHl6OyX1k9no8LUvYy99vrT6yoant1PQDXQYXcWemiQRHBysPbc7e/Zsb291x7Ubarfy4+JkrhOdPlhkYJIXTzlW5UgkEltbW5z6HDNmDBQbMWIEZOKpizkoaFgBBLXGjBkDtRwdHd99910Dys/W1lYUGAPxB9XhKHqCPtja2mLr2B02gQ5AR9ieWltbg/KzsrLy8PDw9fX19vZ+9913tZUfMnF3d7e0tHR3d7e1tWU7qy8NMhG6MHTo0M5b4KEPLItCZ9rc0mrM3GVvP0/2gcpZe/b6pu/uwU+oIFlCU/ZATkLO+YQcThrOlH8CORsu3fYICZdIJKGc8ssFB9jygzUlHbSy8uS3UAvKyw/mYqMz5Z+IMtEsFkvIOQ9mnWRe+kxF7fgsPvsU2wrCcZJ5QS9EbnuEhG+4dBs8QTd4lZOLPoSm7MHW0SCbQCehivxgLmL0CAmPzz412NEJ6a08+W1CznmPkHB9HcG62IQ2W8xZe/Y66mz5wdyYvdkwmmy+qDuDHZ0Scs7PlH/COqAvDYWBT0jyNmSIvr3gRLuviH4DBg2V+dpPm91/uCP+b0OdznPK6cKak1kL4Bl39dgyKLY01Kvsglr5SSSSq8eWQZl7nAQcjMWe3Nz09HbKk5ublvJTxluXB0Cxp7dTwNqXO8Mh58F3nOTitOZ36yDny53claW9oZGrx5ZdPbZsq/ClKuDDlzvD0T3wf2mol7bZrcsDwNUvd4b/8NXye2eSWD+h0S93hrPd0fbkBefoHHF3d/dcfnN3dwd/3N3d8/gNc4z306jv88Pgn7ZdnFHSPmSSHGtrayva9BO4cmxZzq4oncdzdkXpO6SzfGdndkT5meRcIiPdgoDOu1638JycfPEElh7ICd26W2e7Sw/kzFy6Queh7pX5Aq6I6R6jS8+vXhLq2b3ItMnbYzvCvz+qO/B5bEf4sR261WebmjBVYX0jPnr06AMHDsycORMamjlz5meffTZ6tMaXWhvpQ4eUX/sWev+1LRspP8OC7Puj8i93RmqX8Z/qcvfUJ/5TXbQPvaycQYMGtWXku0HZ0aNHT2e20aNHm8RpS0tLmUzGGJ5ua2trEsvdwoi1tXW38FPkZOiWXRsvF+DP8i/zBzuOEpXpvN1Rkz1Xn76KrW+8XOC/JNEkzcmCw9Zd+BEtr7vwoyw4zCSWTWJkyf6c0C27tE3JgsNiPz/5IodA2wdT5byAK2K6h/P9b1Z9PN/TVD631c7H8z1rr29s+HEL/NRe32hyZ45+GvbdEbm2Y9M9nAu+XjHdw1n70MvK0TfiwcHBx48fz8zMfI/f9u7de+LEiZCQECPVHlus/coPvtaVnSxm7YrS7SZIys+wUPvuiPzojghRme+OyPlXkgNF+S9399VTfu0+q6miAQL67noGqtChHktgyb5j8zfvZLs/yHFU/NGzyecVso9C2fzum34BV8R0mXPxuZUfz/PovpSe6/mRtNBvs5eKin2bvbResXlT3ExR/svd1Tniw4cP37lz5/z581evXn38+PGvvvpq9erVoaGhu3btGj6cW4PYps0o5dcmi6LCHSTYv3//l6tXqHVTERg4cGAHTwaq3hMI9O/fvyd0k/pIBIwkQFeEkaBemWJtHXGR6DJmtxOVn0mGgZSfqYTXS7dDys8kV8Qrb6Std71XHgh1sIcToCuip50A7RtxYwQfluks5Weqoerfv78lba8EAVJ+prooXm077bvrvdpMqHc9mQBdET1t9Ns94ijsnpswvfJr0yC98bztrbfeeiVkD3XC0s7O7nmjTceJwBtvvfUWUSACRAAJ0BWBKHpIQnvE2ySrniv7JBKJiZWfYf/aMWxvvfWWBW2vBAFbW9t2nABUpacR0L7r9TQC1F8iwBKgK4Kl0RPSzx1xw0Lrr3/963PFnymVn7Y3HR+kN99885WQPdQJiwEDBnT8fCALrzyBN99885XvI3WQCBhPgK4I41m9GiWNH3Ft0YU5hsWfyZQftocJk4wBKb9XRjOS8jPJFfHKGzH+rvfKo6AOEoE33niDroiedhq0dcRRdIkSBsRfZym/N954o78pNltbWxvaXgkCgwYNMsUZQTZecQK2traveA+pe0SgLQToimgLrVehrPEjjppYpPlg15Dy64iosNbagPpb/GZra3u/w1tZWVkxba8EgfLy8g6fDmTg1SdQVlb26neSekgEjCZAV4TRqF6RgkaOuK2t7Ztvvglyqz+zaekyVQYr9v4g7dim/S1x8BarhYWFjY3NK6FYqBNEgAgQASJABIgAEehCBGxsbHAxGH57iLYkgxyR0CPl14UGklwhAkSACBABIkAEiMBzCehUfpaWljrFnymVn3YDGPCjmN9zh40KEAEiQASIABEgAkSgHQRY5WdhYdGmsF+HYn6k/NoxWlSFCBABIkAEiAARIAIdIaBP+RkT9ntxyq/kfvHfGkr+s7n0YeX9jvSW6iKB+/fv1yjrfqn//Zf632uUdffvE1hkQwkiQASIABEgAq8sARsbG3Nzc+2lfp2r/PQF/CwtLcEV9g0PkH1/byxpfcyJv0dVejVKenq6p5fXR3Pnv7LDZaKOVZYrW+v+1lr3t8pyJZs2kXkyQwSIABEgAkSACHRRAiLlx0746hR/7FK/9sf8QPm9//77kZGRAwYMsLKywmlmkfJTyb6GkrLS4tKS4t94/afN8saNG4GBgU6jR60/8qOLi4t2gc7OqeO3zm7FgP2qqqq6urrnfpFNaUlpY03rsye/Pah8xFp7UPno2ZPfGmtaS0tK2Xxj0kqlsqGhQalU6iv80uHoc4zyiQARIAJEgAj0NAJtVX5WVlYo/jqq/GxtbRcuXLhgwYIBAwawr3fgGx6s7IP0b40lFWU6Yn7+/v7rj/y4/siP78nzPTw8KioqGhoaGoWtrq6ug+NaVlZWX19fXV0Ndmr5zUibdXV1tbW1RhZud7H79+/X1tY+efLEgPgruV/S/PjXhpqWkgYMXa0AACAASURBVPsl2g2V3C9pqGlpfvxrSdvFn7Y1nTnV1dX19fUGPNRZizKJABEgAkSACBABUxHQVn5s2E97VtaUys/KymrAgAHR0dHh4eEg/nDWGWZ7a5T3/7O5tFZ5H2TfP5q4yB+7Pai4/3+aS5dFBmw6xsm+Ye8nvSfPnzp16g8//FBfX19RUcEW7ki66yu/4uLi54q/stLyZ/W//drwH3xsT+NrrktLyhprWn9t+I9n9b+VlZZ3hJWBuqT8DMChQ0SACBABItBFCJgZ3F6kk2ZmZjk5Odot5uTkmJmZaecbk2NY+Rme8FXF/FxcXJKSkubOnbtu3boNGzYkJCTY29tPmTIlKSnJxcUFIoTh4eFLlizBaCGrKAcMGBAeHh4WFvb222+LlN/94uKmGm5t3z+aSv6rpfS3xpKq8vv4U6O8/x9PSxse3A2aNvqz/Nv9xwS8J88f6xPq7e1dUVEhUn4wI8lrwcwgMzP4zyRmZmbzDishMtjQ0ABKsba2FmYnIV+pVLIRRAhZ1fIbyxcDexUVny2yspLGfNXY2AhCB+zc2ubVq5dbYn5xbW0t5GAksq6u7vHjx/X19Y2NjehGcXFx7Y3NU6RTtt9uZEvW1dU1NDTU19ezrWOae2+jpkZf5K+stLyl7t8ryqrqqpt+qf+9rrqppKS0pKQUdp9UP60sr2qp+3ejlV9mkJlTYn4xsuUTxyP+OnH7ba6LGOkEONhxIIM+U4IIEAEiQASIQJciYEBUGTjUGV3Iycl5vVcvkfjTmWl86zY2Nn379mVf8mBjfsYqv9WrV4Pgk0qlS/nN3t4+ISEhICBAKpXa29vHxcV5eXnpVH4Q+QsLC5s/f761tbVond/94uKnNSW/NZY8rSn5v62l/9Wi/vm/raWtj0siPpqR9+2dnSdumZmZvSfPd3BwuHr1qrbyY4J2mR++7pLywxOUdLBADcNRIFBgYre2thakHlOdY1vLb8XFKulTXFwM4oYvlhf2F3cnJ04SwcYfOhbEfYBw2nBVPd2JYrGurq6xsRHcwCVx6A9vPCdSMikxn2uFlYaqBjT/gPjTueYPlB8IOwjy/dLwH7/wIUDIZAtoWtW5p0P5NTZ+FW0uQzmInQIVyHZKp0XKJAJEgAgQASLw0gkYkHcGDnWS2yKdJ9ptR6OmUX5JSUlTpkwBYYfRvnB+k0qlU6ZMiYuLs7e3N6z8wsPDtZUfdqnhUcnfG9Sr05QVXMCv/M55/8kOKPvek+d7e3sXFxezUTqMMNXyW3Fx5rw/v5fyA7ceDsJ70ASKRTYTo1lGKj9UaUFBaunHKbxjkWZBQR++7pL6o3qxYHV1NQTzUAIWFxeDNqqsrGSXFVZXZ4OcYksiGVHCQNhPW9g9qW56Ut2EFrQL4CFdCR3Kr6HheDAf2mSJoduk/HRhpDwiQASIABHoWgQMyDsDhzqvD6j2MNGRtnQqPzbsx07MQhr1m8ZsLyo/FxeXhIQEFxcXFHwoAbEmaxRme6Ojo7Vne9mOiZRfcXHxg4r765eH7Txxa/2RHyHg5+TxgUwmA+Unmu0tLuYmJflp0P3R5rINV7l3Nfjw3u3tU2BulpugVB6eJ5m0WVFXV5yf6GRm1qtXL0vLhZ9VVJSV7V9o6blhQxhM/U/afKO2FsJ4fEZQJoobKLn99leRkshMvgN1dYrNkyYl5nOxxtQfuSndRq5NbrO0tPxwfxlf9xg3c5oY9Oc//9nCwuLdNZf5yd+vYrjZ3q9i+JKvv/66eXQOFzzjfQNPgqANPvoYFOT0L/8y++jzZnu58J5gwfwv0ujsxmJ+PyizWKX89n3Ez+Lywi6T42BmZhaUiZX4g1zXVAXe+/Ofrays3FZfgtleUH7FxZnR5uZ/CcvGgCjqWnrDgz2xKU0EiAARIAJdjYABeWfgUKf2AjSf9sxvOxo1vfJDwSeVSmNiYqZPnx4XF4e6EMQfKr8BAwZERESA7MMv88N3e9n+aCu//32nwX/61Lxv7wyS/uuEuPyxS86+8847hYWF+pRfWVnZkydPqquzF1pa9urVy4xb7Rd5rLaWEzCMgIo8VltXlwMr2LhAYN5Ct9WXeD1nCTqmODNIVVFrtpd3mNNDKy+U5S20DMvm9GWdYuukSZvzi3GW+XAQL6S4wpwCc9qqqFPpyKBMTp7mLujdOyT3yROl8jC4gdPKgkYU/OWr89PK3OJF5xXnDCzyKy4WhF3pAXSg7up22V+mcBZ4CKD89n/wR54HZ1Ol8pgkV1LVvir3O6Wy4fiiXr2CD3Nf7wIxP86z6Jw6mDRHWUwxP/aUpjQRIAJEgAiICEBQQ99vUeHO2zUg7wwc6jx/iouLu4ryg3c4XFxcVq9evXTpUljSl5CQEB4eDgovICAgLi4uJiYGdvE3KD9bW9vIyEgD3+rCQmx4xK32w9c7qsrv1yjvy8OmH8i/PVj6r4HJ37wzcU5UVBRUwalb1gIE+Z48yYWZU4gC8l9Ed1iQfplBTok3amvrFFsh0MXH/Cx7BX+mivnxkcLi4sxICRf1Q0HGhrUwUxB8xTnR5pHHVIU336it/zHV5fUPVaE6vnR0Dig/1dsST57kfvi6C1eyPu/D110EYccd5STUjc1OgvCDsBuotNn/4rzpuua7HUJgTxBqHIyGRy2tir3v/nGeKh5Z3ZgTJgULIX+cd7rubw01p2c7r+DXKKomc3mGOtOqTAz1JX+nUn5OTpxirKsj5Sc6AWmXCBABIkAEugEBA/LOwKHO6xhO8mKiI211KOaHyi8pKSk6OnoDv4EEBJEHohDe80DZJ5VKQfnNmDEjOjoav8zPcMwPvuFF9IZHVLBv46MS+7dem/bJOWdn56KiImAhWueH3yGnVCobG78K+4s7L6e4stXV1TD7OmX7bcVWmVNiPrfOj1N+nBxiFGRm2F/ct99u5E3tj5RM4l9fhdlY7h1eCGvBGx78FG1jXZ0i0ckpMTPxvfeSb3Mv7aoWwNUptuL0cnV1dWYQFxvjY34ayo/XeTlgCn02oPxw8eJzz4YHlzdOt1jxFfelzWV1vPL7IIv7eufClFnj1lzL55yGl1N0qj1hkpcrok/59XJy4vhpKz9Y/IcrL5/rKhUgAkSACBABIvDiCRiQdwYOdZKfIrUn2m1Hox1Sfijv2Dc8WIWHa/7YTFR+OOcr+gceOmd7RX1TVtz/P09LA6aMjl8U9Nc//8sbb/z16NGjojJ6dllBIxTh9E5QkBMf/OLyuHlMQQBBGbYWpjEh2FHVFaqyk6SCTgLjqpa4sBwkWVOY1k6ofDNYnXVGZzpzzr/8a3R24y/1vz/7cd/75gln6/9RV91Ycu4THoLgvNphtcjjzenzCiqqjmIhnR5QJhEgAkSACBCBLkvAgLwzcKgzuqNT5+nMNL71zlV+4fwmkn0mUX7FxcWPqu4X3Tjl5mxvZmYml8uN7jMvx4RFBILM4WdGUfipVuAJhbh8Vsmo0ypbbEWNkvmJGmpSozXeupCjUQvtY4I7zG3QkHoaV2d1I0jwFv74Wq9+Et+0Gz+Xl6q+8pprRd0XVev8f0NRRTcbGxufPj2JkcgY6ZStCvj/KOgqJvg2nBJ1esMHX+FrDbnfT58+bW5uVu/zX4WosyJlEgEiQASIABHobALC41/3385unbXfSd/krP19fh16txd03pQpU9atW4df8icSfxjtg0Q7Yn7IRaFQvGABjk2/egnmXZdXr3PUIyJABIgAESACRKDYBDE/kaozZteEyq+goICUn2lOZGaJn2kMkhUiQASIABEgAkSgixHo9sqvuLg4JSWli1Htdu7A/DHOHXc7/8lhIkAEiAARIAJEwCgCr4LyM6qjVIgIEAEiQASIABEgAj2eACm/Hn8KEAAiQASIABEgAkSgxxAg5ddjhpo6SgSIABEgAkSACPR4AqT8evwpQACIABEgAkSACBCBHkOAlF+PGWrqKBEgAkSACBABItDjCZDy6/GnAAEgAkSACBABIkAEegwBkym/ES4TPzn5JDBh7wv+Pr8eM1LUUSJABIgAESACRIAIdJQAKb+OEqT6RIAIEAEiQASIABHoLgQ6pPySL/3ddeocqVS6LLtk843/j/2J/PQiBP8CE/Zuuv7/Nl3/f+u//8+pYasgM3z7N2Hb8pccurvu29+TL/3Df9kO+AduTpNnxB2rjM+tDpBvL61uUPBbYWlVVf2vhaVVyoZ/f9D0W+WTn28X/ASHFApFfUNTc8uzoqJizKEEESACRIAIEAEiQASIgE4CHVJ+7MSuztneaeGrky/9fVr4aqlUOmt55toLv7pMnS2VSsO3f7Ph+/8KTT1rZWU1f+vp2KMVw53HDXN6b8mhwg/WHrWwsHBwGa9s+PfiykcKhYLTfI1/Vzb+vbC0qqDwPuZDf0j56RxXyiQCRIAIEAEiQASIgDaBzlV+kZ9exODfCJcJK07UzlqeAcpvyaGf4L/3es1LTMh7NNojwCM4PmbfrSEj37WwsLCxsSmtbqh43ILKD1SgQqGoeNyC4UDt/lAOESACRIAIEAEiQASIgD4CHVJ+qOqkUqnOmB/MAsNs76Zr/7Px2v8YUH6+H29LOtO84mQ9zPY+aPoNlV9V/a8Fhff19YHyiQARIAJEgAgQASJABIwh0CHll3zp7yj+9Ck/LMBODYdv/0Y75uf78bYlhwox5ofewzo/Un4IhBJEgAgQASJABIgAEWgfgQ4pv09OPmGF3bLskmXZJazCC0zYu+HKf8E6PzZfp/Jzls1cnvcQ1vnZ2NhgfwwrP1rnh6AoQQSIABEgAkSACBABwwQ6pPxEOs916pzkS3+HN3xREeK7vZuu/Q/7hod2zM/S0pJ9t/dB02/4hoeB2V5SfoYHmI4SASJABIgAESACRAAJdEj5sWG8NqXh3Q78DV/pYmlpaSFsbMwPfaUEESACRIAIEAEiQASIQEcIkPLrCD2qSwSIABEgAkSACBCB7kSAlF93Gi3ylQgQASJABIgAESACHSFAyq8j9KguESACRIAIEAEiQAS6EwFSft1ptMhXIkAEiAARIAJEgAh0hAApv47Qo7pEgAgQASJABIgAEehOBEj5dafRIl+JABEgAkSACBABItARAqT8OkKP6hIBIkAEiAARIAJEoDsRIOXXnUaLfCUCRIAIEAEiQASIQEcIvGTlF+j9Ru33/5QQ/Wf4Mmfhi5wtjP8m56qi+zUlZToRFBYUNFU+aK562Fz1sOSnezrLdPfM8vLylpbWmpraNnWkvLy8qam5qKioTbWoMBHQR6C+vqG5uaUrnFFK5YPW1mdK5QN9rrYj//at203KxvrKJz/d+anlYXNN2aN2GGlrlcriymfVrSX3SmrKHrU8bP7pzk9goar8xrOGaz/dvdlWg1SeCBABIgAEXqbyc3frq7zwz6fTX+vI//CoKSmrKrqvPZx3bt1qrFB2WcF39+7dxsamjj+f2qf8lMoHjY1Nd+/e1eZm2hxTdbO+vqGt6ta0HdFnrbiqStnSXFqjkgKlNY/Kn9TpK/wS800yEAaMdFPlZ+R51aWUn0KhaKm/1lJ/7SWeTtQ0ESAC3ZrAy1R+Z/e+przwz+Nd+7Zb+RmQd1VF9+vKKm/9+GPXHJ6ioqKmpuby8vKX4l5NTW19fcMLaNok3TQgOF5AFww3UVxVVfW0qaK+/nZBgUKh6LLKzyQDYRIjhnm+yKNtOq/qK5/UlD0CCVhZXPkC/Cy5V9L84OlPd36qLK5sUjbevnUbG/3p7s2fG689Ul7HHEoQASJABIwn0CHl9+uptT/sjmnTf+yFwlZWVkHvv/Hk6j+tWPBnKysrVvktneJ3OiYx3jewueohO41bU1IG87asnissKGisUBbyD11Rn/XFAkXFDOxCOK219RlOHhUVFTU3t2CgTql8wM5w1dc3QGEMp8GkqlL5oKWltbX1GeSzZqE8a0Tbn/r6BmxRoVDg0xdmtVpbn4mCYRDGQGewLjgPLbK10A52s7y8vKGhkY0ItkMpGu4muoesFAoFWwWYiHxubX3W0tJqQC7rBA5I2W6CEejm48d1ra3PHj+ua2xsYo3r9FB7dIqrqioaGirq64urqkTKr7TmkbKlGX7gKBQAdSjKv11QUNHQAJkdiRrW1NTiEIO4Z6mKzjeQPqLyd+/ebWhoLC8vBwLICs5hLAwDhBZE53CbBkKbKuQYaQTPcOw75uD1Apdqa+uz9p1X+jysKXtUU/aovvLJz4+e/fzoGSpCmBSGTBRtlcWVIB8hn50yril7BJnsrK6+RiH/kfL6z43iOd/a2rqW1l/KyysM16WjRIAI9HACHVJ+7dB8qPz2rOn94OI/u7v2ZZVf0NgJOVGx9gNs1ev88uRO//qvA/paWv+1r5mZ2Wt82qrP3DR+3Ep+uscKQYVCAVFA0Ij4u01zvnlyR0d5nlJ5NWNW4LrL5Yo0f6m039Chw/r06dO7d+9BgwZPS1WdMzU1tbxwSZ/Te87XjU3woIVnYc3NbY5mZlJpv+HD7aFunz5jd99VB/mMmm/Nk7v0nnOSfwzjaVp+eZ3/4OWflZZVV3MzjIIPqnlbfBKDHETFBo9/eCJCGUjX1NTeS581duU5hUKhvLI5gO+mVNpPfkKICObJHc3M7OwGWlt7y/PQCz7BHfKHgdA8oN7julmw26V3bzN+809TQOv1t3c6mpkBT+tp2/IUiqJzKwOWn2Wf2YKVtDDzsFPsqkTeJTDI/HaU5ylA3uHTHaOqNTW1KE1ATxQVFUFhEMoo/pTKByoP+ZgopEXaWnCM+wvKr7CioqzuMav8IBZYUFgIZaqan94r41ajghyE2eHSmkcVDQ0QLCx/UgeCDyQgTh+zbSmeBzw7ij9Rx64UDRQ3uNz8/qk5vefgeIGqxq7Vn1gGQwwfLZqbW+BQfX0DhofFJ22efLJlxKHyctEnImiOlVk6B0Ljg5NqTDVOJ6XyyPKhwwYPXp5VxG34oYsdTTRSVFT08GG1QqFgHcaPE6Bf2TMfDqlXuz6PbZo/f65xZ5l6A8UGGq6m7BGIPIgLQiZOEysUisriyp8fPauvfAJpFHmVxZWYRiPqNvSk7hfd/PXp1aryG8LxNH8zx20KkfJL8xddofqunbTnX8tCQ+36K8LLuoFIn5OJ5RT8haC69DXOmHa5RpWIQA8k8NKUX37Wa3dPmlnxG8b8dCo/WZ+5x4V5W9H0rr7XO+7culVfXqUzFsiNseg2pDHsnPBbea6ouflslDQaHpNqdZXmb229OEd4nUJYJJQWY734a2HZnOoRdWWzo5l/Nh/tgxhVUVbw4MEBnJTkN9HzScMFZkcVgLm8zkMafYZfQS96+qK2g0qsagFdCI9ttrny8vLm5pZy/oHd1HQmzDyM72ZacJ8+cac4barMjraz80s8fbex8VSMtc2cdG5J4pVNnmYaTxF4FD7nxltff1JuN1BViKvhmHqTl8vpc8z809jHeVFR0Znlw6KytRfma+Bl2OgYRwivqoAL8+lsK6xWRtFQX9/Q2NhUUlICAkU93HyEFQUHRgEh7gViApRfQWFhRX39vbIyiOdpq7fyJ3Wo9jCkd6+srLKpsaCwkKve0AAyEdUkKELD/dU4qkiLknqm32spOrdSW5HzJ8BJVgdodvNcesCwqKhoM/80+JCgVoSM8uOMcJJdPOgYh0Z/2jQQXC3uknR01DStzI4eNitwIn9+omgTtSXaBeWHzqPy0/7Mw54JggP+h/j3pTCu2dr6TFC9nK7iRJ/mrQMCftBrdnIWlZxCoWDzMf73052fmh88LblXwjlc+YQNFmI+wtSZ0JrwFTzUKK2l/PCoZkcwu3MSWvcKnX7pyOQqwtnG+atKqjMV/C1FQ4x3TgfIKhF4xQi8NOX300kzbeVnYWGBs72qQF2efNpfQ8/w7+dCDI99n0PflG5hQUF9edWdW7d0j5ahux53++EeAIWZgYF7i/ipXiFcxN1morIfwMOgqKiosbGJf5kxTW63LJ8vCc8M7sHDN5HDLKdTKq/umjF4TjoXnMPHmG73mFxopeTCmilvLTpe9wTm4PDBBnZwF+e2QPpgKyLpg9pRqXxQsMvfJfE012Cav/nEdXf50FpNjSJ1mk3E55XV11PeH7D0kOpF4CzVww8ef2Zmjv7+mk9qxm8+yTnwdZzUY7MQJuGgyE9wc+L5ifaBmcXspDP3kD4UNmxWZpH6cQsGObyotjXa0BpHVgez3RRGkKst6HUuXFpf34CUMBYoUngsXo3W+R1QfrcLCoqrqkprHrHKD2d4ua4ZVH73ysqqmp/i1LCypRljgRotavVX+2hOTW1r0d7A4SuymZdbhT4eQeUHOdg1CCRn8ZJRGG7xe98qI/xHGgwcggOoodGfNg0EV4vvmpwPt6ORnBgb+Q6V0BS68ACHFYrhqMGu6FQXgp2ql5lEhfFMQAdE/UJP1IJPcwj0KT9UeM9VfhAUhKle+A3v86qb1p9qqb/WUINL/bqo8uOAad0r9PnKhPX4bmvQFioJf7VL6EdFR4gAEdAg8NKUn86YH36ri+sIB1jAd+ur2Pf7RhzQ/k4WbhY44HhZJS8Q8Q7BiTMzMzMrDBPyR+T83Ye7AXEfD1VlVHtqGpjPzdIOGjS4d+/eUAGKcJYc5ZeFNXA1NbXw4Lx7Nz12UBz7oOXK8xO1Xzc24cO1pkaxw1cV/So6t9J/8FBzc3MNH9TtCzfAPPnYPsFfN55a+FZ/qbSftbX31uuPmu6mQxSE03ladvgZ24SVK8eamZn16dPHf/c9iO2dihs6cd1lFJ0gXmtqFLtm+CeeVs0U49O6pib347cHfJxXV1JyYYfvwI/z6rjyzA03Ly2NE3NIXc1QI6UVj0mb07t37NdNSuVVzUc81uLa4GONam668UINTQfS5/QeFHsKgd9M9baTn1Qo8jZ5eO7aFceNppmZedihlpZWPgKUJrcbKJX268MR5hS8UvnghHygS+JprXeuVeeQr93A4cPthyee46WV/bBhw83DDqmU36mEMf/2bxYDB/Yd4LPuVh0X87uz0916ESiJ26cSJg1c9hn//m9pziJz2wEwcfjJJVXM717ZwYjBg3r9278JUQ0EopnQ6C+eLnxMhDuk3szNzYcOnYUBZmEgDomUH86t397hNyj21N27d9P8zaalKtSLLxmzwVlFfITYHJxnA2DcmcNP38Mh1QhyCx785XJHa2sbO7uB/AoK7o3y9Dm9HeV57PIDrpPQNVhpoeo0r/h5I2n8GtCmu+lj+/SxtrYZNEg4afPk06wXn4B3lXgLKtmaFSywcNxxG2er06JU1zU35Y1SUtWaUJ1fzngucbg9N9bDV3DGGQhoFuJMjPLLW+M2Pn1z/J/++CfLv1gOW3CG+xIWrjv+Ee9ZDntzeQb3osbncdJBr7/2upmZf4YQ87u9M3CwdJDlXyyfcyvgvNQYcVXML9tX5ZK/P34wU/VIVUUcoGX7q1a6wJ87xqfwjumfpu6+2pKGJ2CQuT2oWoA/uu4VGsMslNaXKUSYdTfAeYIXAHe2AQ6dbqPX7G1daJ7+EoEeReClKT+d6/xY5acK2nExv76wyE+47cK1nrfc6bXYw/z3tuTJx7t+crPkEq5VublmgtXY1YI6ES70NH9pvwX5z36tv7Nbb7CKn3EoLy+/lz4r7BD74q3q1ghBOKXyAfMOBPeIUj1+8NzhRdsp5u1dfh3VYv5Wy82rLj/DvymCNy5WWOE9jjdyprmFXyo3hwvntD5jptvSwszNl5/h522zgt98c2GaQlFzc5sv/5SFEJr2GikIaIHyA5mYxX+rHzs9dzPVe3jg3ivKB3wEpTBj1nBOpApytL6hqfXZr8oHD+EZoX54YN+FhCgAwxF0lN/mZg9P+vNTe/yACna5WlwRmFxGUQLKz5iYH6+Dlx9SvS6dt8N3YExOLa/8+g0dmsCvFctaPnRYYGaxUnl15VjV1PbldRMH+u06ffcuSnl2ZpzvCueV0H3+6QEu8/1Z9X1VRcPJwF69/NO4NXyVp2LNbZekKRSlN1NkQ+L2wDq/7zcK6bT51lPX3eK/9iXN/88Tkr/jZnvz48f0Cj/ZUP6kDhAJIVIVR+WDh63Pfq1vaGKAcwXhQayugnl58omaKyOFgdAd86upyU0cHrSrgA+Mpfnb+e68qVrPoD47FcKpqGRjfkKLOKf/8GF1UVZwnz7B3Jl/eR1g40JrOYvN+MUPEHwF2ce+TyN0Tf3451ZHxJ3hjfhncYv8zsZY2/incQsWm88k9OkTnMavTJ01LFE14rwz2dxLV2eD+4xdd7m8srLybvqcQTN2X+HCn9zhmBwuysulHOWn+a9Vws8JggOC9OFPaygp3EbUAgPPeU3l99eh/eIz7vz0052MhDeHTku+ociTO7/2elx2I7/mL2/De5Zx2dwrunlyxz+NXnGPm+094G/mmHqJ/7q+3R8w55hwUeCtQOSfo/w8t85va6T5P6tPA2PW+QnXJmMPz3HWEihb8dnO5/KgRXzQrL6EuhJIWG5mX/Py57qqlakaDq6kgIRtQT1AfH+EMjrdVqNk77WsNUoTgZ5DoEPKr4Pv9rb88E+7VvXCNzzmvDfxsnz1+SUrT8ckyt+fqVqllycf/dqsryuU+LoGzvbmyR2t5x1srnp4b6PX+8nf3foqFp6Gt378sa7s83l/chPCEsI9g3t6hZxpedb0U4YLs9SdHWzhyZOXOs07s4h7q1e1UF1YOwWhAnb2UKFIC+4TfKa5BZcHcY8T7ulrPnjw0D59+pipXmXw33SFX8TG3wRBxrW2notVBTCYpyw6xD/Cz7a08u+LCKsGuQeq6iHkwr9ZwnvIPe3keYr62zunCa9iKK9snjEoLp3/0j587RECe6oHXpq/nTBPjT3Kkzva2S2DNYW86hrsu+OOcAPm2gUhUltbJ354oNtMAtst2OXfm2fOqZB7GYHDgwBvTU2uvxk82jmAMAusfh5zptKipNEwmY5ORMcW5wAAF2VJREFUqlrQeJwoyssv7/YfGpzFTVPePZ04QxWIzUt04QKN8F7wlU2eoCdQG9XU5MpVixpVX68IOokZTQXKLCE2Be1zzYd8UVVxZ6dzr9lpCgU/aXs6zPZ9OPHcrRdl8+/2Vt3b49Y3lH9Wps237h/2leoL/1Tr/PKTHM38d6ne7T0TNSxgU6H6CwL5Gfzi5pZnTU9b7p5OxKEXhJ/qOcq93XJlc+DwFRyoor1qPSSMBT8Q5xKHr8AFqfiyM/eZZNq226o3WtJjBw1WrbZknpVghjPCTyWrjAj8sWl+4NLCzCfuvtvMLzdURXBBL6bzYgsGorr6kfrtCkZuCReg4lCYecLZVmguv/UZqzjr608m8udP872MsbwE5NzjnQGNmDjcPvZrTsgKwc5yOHpC9a2Qqo4hAe68Ei5wzbNaQCD0VPOoQqT8lh/hvoRFoVCcWe46bMGZn2/snd0/aMd33Csdijz55L9EnFJ9OUvaB390Tb8Kyo+7mPHd3p8fPWtSfh342uugwoTR0zzveOWScuX6z19P/5PLUuFzAufq89/wQIvYI8hR76pTmq0K+cJfvp7AB83qS7C1uLRwT+b6orqb6cjkjqqKcpVUH3ZUbWjmiBsQAGK+rhusPm8pnwi86gQ6pPw68m6vlZWVUd/nh1eu9kionhLCw4K/E5iZmf3xtdfszK3+rdcYQfmpbwIuveecetqiJ+bHf1KED6L4W7hBGfCCn4URmkAnDVTQuFuy5dQOqMzhQUwITzhORui0o7MkeiVKaFjgjnG11TdlzTu/0F55eUVL6y/GxPywNbFZPMAlNJzQ2FEVE54NGrX4HbazmhnCOcHy4ktAA7xDOMgaXdZuReNpzzYppDWcFjKFv5w9Ns0/zKBpZpQZX1j+vDN3795tetqiEfPjDLIbf5piK5gQ90UnSbEtzi7vGXdAOP/VlljjmG4bAc4Y+34Jt4+mVCPHyX1OX6LYbVsTOi8lLWLqXmk6wBYEBKx7mvpDsIEl+Az1aSbcGbjj7IZktVzlDGhlalb/U+93sgqu3dg0ghkgDUCCVzpHnD+o6a+aP5NioDAjpOnJ864dwRFRc0K26PIXsoW+aNQSMtF9pvO6XeVKsia0qArt0V8i0NMIvEzlZ9T/8GCvXK3BSfN3lKcJa8aEkhrf4SxkKhSKWkVaoP3KExqzZiKLwo2SEQ5QQuOuI6rE3aaF+zseYtrFPFVC45Auw9wNCp+9mgn2VqbTDpvJpsVO8PuaBbg9UUc0CqTN6e2y+6cW1VQv64lO40KmDrPCIf6vBgGNHVUxXXjhkIZ7kAWF2fHTKKTa0chTNaP/D1taV5rNQyHLZrJpbEZ7lPEQk6itrVNN9bLAdRrETEwwdvikLpLahbkcXpfoGgyNJynWxQTXjFCNzeTTJ4RvphRmn5n3uNWF+epp8mkQhsR8TBhsAudhVV03DjJXGO1jQmWC/4OZmGCPatRndtjCbFpcl99HV9mjmKlZXfU/PATSQn1Uk2hC14jDQU2D6u4zKQYKA0hUEZsynNBbS6MPgg0hU6OWkAluie5Uz3VbMM39RapsJqWJQE8iYALll/CRV/NXq349tVb08+CLBMj55eu18PPzyTWNuUnLP/SEL3OxsrJ6/v/t1bj4tUaGu4bxo19e6vi+y7942FihvHMiTse8GJriEtp3Sf6OAtniGybW1HKAyxCX5vIM1WBuPHzyRH0DP6ulmgBtzV8xfPgKbr5VYwZKcFhtWWyHe+ypj2qmdTouLiw0oS7MlYBcLiW627LV1VU0U2oDTD7jOOewulmdFjXw4gwdNxvLzzzCRDCuC+RKa7wjyjuuagIbZhpikoyLbJItoTONZtmHijqTq6OW8kJvNY+rPjqw5lkXIK0+qk6pRxzzuITQioYRDZJwRO0FU1J4xjIH0SYmNE42piQm0R+hJPudKTChrx5NZijzE+2l0n6+O+5wZdRG0G7nQFY3pE6pW8c8LqGTLXdAOCK4irU4tswOJrmEYE2oxBfUymSqV11eEjRwegb3f3uxDn8YTamHUseIqw6iD7Cv3lWnNHxWO8AUYJLqNnWm2JJqr/kWoK86MxkWnAHti0jdFtuArjSXp01VXZ9SRKBHETCB8mvHnC8qP9H3+eEbHuw3OWvOkqhmTIQgm+jWxt0/+E24yHXdBOCOJkxqMcMtGMuTOwr24ajwKGTKMkmhGpOlvk+ymZjmvNL0U2OGR9t5VQXOK3GPNO2Ij6r6oacD6tIITuUXqjxVy4zA1uiFmpPOJvSZVVvVUJP6bKhbwca5hNp9JptvkqnAF/JXnRcCWRa3Ok9n85rNsE0yaS6pORB4knF6QK6OCquJqNuFRzhfn81kOgVJpkEdVdRHVd4wEKC+9omqp8eck3xtdb9wnBjj6haZ3uLzVXxU5Y7uJtnCXOsCBzafS3caZLYhXlFpDIf6qMoJLbZ8CdFppq6F/MX+q5vCLrPnJpupLirAUV0CnE3+HGPyVeeO9oirDoivHbWr6pT+Mx9PYnWLuodVaE3UHNeGalOD1JnJV9SAhm0LFtRnqmBLTxfUNdVuo4OUIAI9ikCXV37dYDT03167vPMaEbcOepsn9+ff/Wu/Gd1PjzbiZW/7nCvi/fa71+1rtpFkt+/vi+xA1zzNaMRf5DlAbRGBbkOg05Wfj1dU1raHY5xkbGiwDTE/nmThvbKah88K7tzrklzTwiUffdP4oKKU+1ddddVlPzc+KC5UfUlel3SYdcpkzwaTCD/hU3v7PdR6AmtlsLZ7VtpkY92zsBnV2655mtGIGzV4VIgI9DQCHVJ+h3Y2oKQb4yQ7tLMhb//veft/j190VCqVYk7uvn/wP79lp7d4e0ZKpVIrK6uNn3x3JOPnI+mtB3fUTZGFwT9w057tLbhzr7b6l7qav+HP40e/Ft7j/gVq4b2yx49+rav5W231LygKS4qV1crmRw9aHj/6tby05vGjXx89aLl1i/teEtZURRn3X1ZNtTU9rmx6XAnWigvv/tz44GHlfVMZ72w7pgz7dcTXjvvBPXy15/C75iPZIClVR3A6S2O2y2BNOviyCHTD0+xloaJ2iQAReNkEOqT80reUgsgbMtgR0yD4QoKSIcinM+a3LPqLnRvvDRr0jpWV1dLIg5kpSifHCZaWltrKD/gYiPmJDpUUK+tq/lZSrHxQ1VRb/UvhvdKah88K75XdunXn0YMWEHwgAUuKlSaBf7fgdkt9FUg9SP/69GFdNadNaSMCRIAIEAEiQASIQJci0CHlF7/o6NZV16VSqY9X1Kfr7w4Z7AhqD/PhkGi2d/Qo2YFPH38UsBrmfAcNckhLvj3Hf4WplB8E+R5UNVWUPS64cw+UX+G9smplMwT/FApFRdnjB1VN+kZC9F2+ra3P1P/PSqsOKr+mx5Wg+eqqyzAEqFWcMogAESACRIAIEAEi8NIImEb5hQQlwzwv/gZFqE/5ZaZUTfOIeJHKD2KBOGVcV/M3A8qvTaOhHedrelxJMb82MaTCRIAIEAEiQASIwIshYDLll76lFGN+7Msc2rO9opifs+PEzBRlZ8f8SoqVuODvuWTbFPNTKBTsOj8MAT63FSpABIgAESACRIAIEIEXTMA0yg/W9sGaP1b2wXseB3fUhwStZfM3JX3PrvNLS749aOAIA7O9Blbmaa/z0znbCxZM+2IHDtXDyvu/Pn0IS/0eVt7vVu/2YicoQQSIABEgAkSACLz6BEyj/Ng3eWHCF9/wkEqlIUFrDbzbuzf1gbPjRH3v9uII4HQtvttbUfaYnb2FN3wxtida5yd6txfeAkHjHU+A+Pv16UOSfR2HSRaIABEgAkSACBCBTiLQIeXHhvHalG7r9/l1UufJLBEgAkSACBABIkAEehQBUn49arips0SACBABIkAEiECPJtBVlJ/X5PlZ2x7u316zN0W5e1NpePAWmMntpJV5PXrMqfNEgAgQASJABIhATyXQVZTfc9f59dQBon4TASJABIgAESACRMBkBEj5mQwlGSICRIAIEAEiQASIQBcnQMqviw8QuUcEiAARIAJEgAgQAZMR0Kn8YOoVfotew7WyssK3eP+AqbYmREaxPX3/t9dk3SVDRIAIEAEiQASIABHowQRI+fXgwaeuEwEiQASIABEgAj2MgI2Njbm5OcbaIIExOEtLS1F4rlNiflZWVtAk+mFjY9PDBoK6SwSIABEgAkSACBCBTidgWPlpy77OVX6WlpYeE0J2b7o/y3dpp3edGiACRIAIEAEiQASIQA8joK38DAf8XoDym7t7c8nLVX7FVVXKlmb2p+ppU0FhYQ87N6i7RIAIEAEiQASIwKtGoK3Kj32Xo/1veEilUu1wIjvha9MFtqEODt4xiyYFf9QFfCEXiAARIAJEgAgQASJgGgK4uM7CwsL4gJ9UKv1D3v7fQ4KSpVLpGCfZvu3VPl5RIAy3rroev+ioVCoNCUqGdO6+f+Tu+0fcwiNQIHZB9rLoLzYmfX8085cjGT9/OHMlLPVLXn7+4I4n+7fXLJi3B92aMe3juIVHQz9ITUv+KS357vzZW/oK25LIg6mrf8SfuUGbhSMm+Gvn4DB3b4bfqiS0BTmyqMgPPk1dePzLqC+z3w0M7Nu3rywqcu7eDDsHh759+44YPy70s32Q37dvX79VSQuPf7nw+JcR2YdHjB+HpihBBIgAESACRIAIEIEXQ8Cc2VBfQaJtyi9+0dH0LaVDBjsaUH55+3/fuuo6rwLXHtxRP3qUTCqVxi7Izsn627Loz62srORRh3esvzto0Dv4nsfq2PyF8zPRs5k+8j2by5fH5FhYWMyYtmRL0k2H4e+am5v7To3Z9MnVEcPdBrw9ZNWyM7ELspl+mSA50NEx9LP9/slr0BbkLD51AjI/2r3jo907zM3NPRctCP1s/0BHR3Nzc4eJEyK+OPTenNmQH51z1GHiBHNzc//kNVgGDVKCCBABIkAEiAARIAIvgADKKjbRJtnHxfz+N8i3b3v1GCeZAeUH0hDiglnbHnh7cnHB2AXZm5KuwITvVFl4+pZy55GTUPmtjT8XE7YXPZs1PW7jim9tBwy3sLBwtH9v0ydXJ477wMLCIn5RTvyiLwFW+Idpa+O/GTBgmD52wcFz8/MvXrjwPf7s23dIX2HIHzRyZPjhQ7M2JmMxyJmbsRtyvBYvCj98aNDIkZgwNzd/Z+LEqGPZ4z78wNzcfG7Gbq/Fi6Awm48GKUEEiAARIAJEgAgQgc4ggDpKX4KVfTq/zIV9twPmbNXr/IxWfg+1ld80j4iMreWjeeWHc76Lw/eDQxYWFrN84zd/csXO1t7CwmLkiHFbV92c7P6hhYVFZMjO1DW3HO3fsx0wbH3CxcjgHfr61r78wSNHRmZ/Hrh5A1aHnKlLFmMOJKYuWRyZ/fngkSM5bTp50oLco+4ffQSFl13Ix58lZ792/+gjUV3aJQJEgAgQASJABIjACyZgjOwzpfKLW5i9OekqxPw45ZdSgcrPysoqOeHix4Lys7S0DPJN2LLq+kA7Xvk5jE9d/YNsQrCFhUXA+3F7U5Tws3HFt3a2XFBQ3zZvXtilS1evXFHgz6FDR/QVhvzBo0ZFHzsye+smLAY53vIlmAMJb/mS6GNHBo8axWlTmWzRiZwJISH6Covq0i4RIAJEgAgQASJABF4kgfbJPm62F1/0HeMkO7SzAd72iF90NG//7/iGh+ZsryrmB8oP3vCd5hGZmVI5euRkfNt3XcLFJRGfoVuz/RJTVt0UlJ/7trW3PSaE2Nnab/7kyqzpcZ1HaoiT04KcL+ekbsEmIMc7Vo45kPCOlS89d3qkhwcUiL34zYS5cy0sLOakboF8UXnaJQJEgAgQASJABIjAiyeA4goTqL5ECdR4bEKt/OA13rz9v8P7HOy7vSLlB+//cspv5TWR8hs9cvK+bY+OpD/LTm/N3tP6+e7mjyMOWFpazpmxYtuaHwbajbC0tBz1jvv2dXc8JnC6KtB3+f7tNfizZeU1UIem4jjE2XlhXs4H27eiQcjxiV2GOZgIP3wg4erlhKuXZ21I/vj0VxPncR5aWFh8sH0r5CdcvbwwL2eIszNWoQQRIAJEgAgQASJABF4MAZR6bEKk9thdVvBhWkP5YW5bE2wzojTrnCg90M5+66obQb4JwAt22fdCXgxHaoUIEAEiQASIABEgAl2TgEg7iXZFoovd1aflTKP8dH6rM9u8yFHYdXKcsGdz2Wy/RNj1nDRv37Zq3NVZhTKJABEgAkSACBABIkAEWJWlndYn+zTW+RkoZOQh7YZFOdrjNMd/xeGdTfgzx3+FdhnKIQJEgAgQASJABIgAEQACInGlvWtYtpks5gfNaDevM4cGjwgQASJABIgAESACRMB4AjoFlXamYdln4phfm8Sftq+UQwSIABEgAkSACBABItBuAs+VfZ2i/Ej/tXvAqCIRIAJEgAgQASJABNpBwBjNB2VMPNuLDbfDaapCBIgAESACRIAIEAEi0A4CKMCem+gs5ffct33b0SuqQgSIABEgAkSACBABIiAi8Fy1xxboROWHzYj8o10iQASIABEgAkSACBCBDhJAodWmxItQfqxDHexkt64+a9as4OBgY7rg6uoaHh4uk8mMKWxlZeXo6BgaGurt7W1k+ZdVTCaTLViwIIbfwNu29tQkngOu0NBQR0dHwwa9vb2NKabTiJHDDc4AEyNPD1FzHXFSZIp2iQARIAJEoIsTYDVV+9IvWvkZ4+XMVUlriwrYn6Qfro3x8TambieV8fb2DgkJkUqlgfxmuBVXV9eoqCh4loNugPIhISGBgYGG68JRmUwWHh7u6upqTGGpVIr6ycjyL6UYYPH21hjHtvbUJJ6zyg8NonrGHBhuGHc208i0kcMdwm9G2tRZLDAwUKeTRjrASk84aWNiYnQa1Nk6ZRIBIkAEiED3ItAVlR8QHO7qGnfxfGhWelcAGhIS4u3tDc9ImUxmwCVvb++YmBjUN978BuIsKioK8w1YkEql3t7eYWFhjo6OhovhUW9v76ioKOOVIlZ8kYnAwEDtTunMfJFeYVuurq4RERGiwTVSPKERTDg6OoaFhT13uGUyWVRUlKhRNGJMAhrS/kRhpANsE20969i6lCYCRIAIEIHuQuAPh3Y2jHFSSZkxTrJDOxvy9v+et//3rauuS6XSIYMd07eUxi86Cv0R7cYvOgqFWSOm6rm9m1vcpfOhWRloEHJmrl65+GRectHd1QU/ei2IlkqlM1evjLt03t7NTSqVuvh4J1z9FvKhfHLR3eSiu4tP5qGdNiUCAwMxEIIJfU90mUy2cOFCnUf1PeNBKYJlrAhRnJCQkJiYmIULF6IycHNzw2hiTEwMPu/bpJ9YI4aNQ0n0CvSlG89ZKpWCezExMdp6TidhnSpKZ8SL9ZDtJsuK9Vy7uUB+w3yUQWiZ9RlGDQc3JiYmKirKzc0Nas2cOROYQyba1JnQ56E+VjrFlk4jbGBPJpNFRETAQIjGSCqVYh+xR4ZZYUdEY4Gfc0TnIeuzm5sbK5f1dROboAQRIAJEgAi8dAIaMb8k+UlQgSABQ4KSpVJp/KKj6VtKhwzm4k//e3Tf9mofryjuwR+UjIKPLWOqLtm7ucVrKb/4S+eTi38COfjxybyPeT03c82qeFR+7/skXvt2ysIFUqkUC2ibapOTMpkMJm2D+M1A3aCgoPDwcJ2xOh8fH+1DQUFB0dHR8Aj38fHB9Ny5cxcvXhwUFCSVStGmTCZbtGiRj4+PVCp1dHQMDw+HtFQqnTt3LhQ24BscgorahXUaFxVGTyB/7ty56Im2QfTEzc0tOjp6seamsxdQRacnwAH5sKywITYxd+5chANiKDIyUiaT+fn5ubm5yWSy6Oho1NNQUXuAwPNFixbJZDIRcLYtTLOjKZPJIiMjQT6Gh4drs4IhZqlAGZ1GREPMuooNoRuQ0JcvKoa72h10c3OLjIyMjo6GwZ3LbzAQ4KpUKsVW2nRKYKOUIAJEgAgQgRdP4P8Hxcdv6q3WXFIAAAAASUVORK5CYII=;" vertex="1" parent="1">
          <mxGeometry x="-816.46" y="40" width="391.73" height="58" as="geometry" />
        </mxCell>
        <mxCell id="0uebhjib72tp26NV08e5-88" value="This module provides a floating window to display event data during test execution.&#xa;It includes an EventWindow class that updates the&#xa; displayed event information and handles window dragging.&#xa;&#xa;for update the data on the Event Window we use:&#xa;update_event(self, event):&#xa;&#xa;in case press the X the App will terminate use:&#xa;# Close any existing mouse listener threadsclose_existing_mouse_threads()&#xa;&#xa;# Terminate running instance using process_util&#xa;terminate_running_instance(&quot;cursor_listener.lock&quot;) " style="rounded=1;whiteSpace=wrap;absoluteArcSize=1;arcSize=14;strokeWidth=2;" vertex="1" parent="1">
          <mxGeometry x="-730" y="220" width="300" height="240" as="geometry" />
        </mxCell>
        <mxCell id="0uebhjib72tp26NV08e5-91" value="" style="edgeStyle=orthogonalEdgeStyle;rounded=0;orthogonalLoop=1;jettySize=auto;html=1;" edge="1" parent="1" source="0uebhjib72tp26NV08e5-89" target="0uebhjib72tp26NV08e5-88">
          <mxGeometry relative="1" as="geometry" />
        </mxCell>
        <mxCell id="0uebhjib72tp26NV08e5-89" value="get event panel dimension from config &#xa;        config = Config()&#xa;" style="shape=parallelogram;strokeWidth=2;perimeter=parallelogramPerimeter;whiteSpace=wrap;rounded=1;arcSize=12;size=0.10714285714285784;" vertex="1" parent="1">
          <mxGeometry x="-734.13" y="130" width="308.27" height="50" as="geometry" />
        </mxCell>
        <mxCell id="0uebhjib72tp26NV08e5-92" style="edgeStyle=orthogonalEdgeStyle;rounded=0;orthogonalLoop=1;jettySize=auto;html=1;exitX=0;exitY=0.5;exitDx=0;exitDy=0;entryX=0.073;entryY=0.913;entryDx=0;entryDy=0;entryPerimeter=0;" edge="1" parent="1" source="0uebhjib72tp26NV08e5-88" target="0uebhjib72tp26NV08e5-86">
          <mxGeometry relative="1" as="geometry" />
        </mxCell>
        <mxCell id="0uebhjib72tp26NV08e5-93" style="edgeStyle=orthogonalEdgeStyle;rounded=0;orthogonalLoop=1;jettySize=auto;html=1;exitX=0;exitY=0.5;exitDx=0;exitDy=0;entryX=0.25;entryY=1;entryDx=0;entryDy=0;" edge="1" parent="1" source="0uebhjib72tp26NV08e5-85" target="0uebhjib72tp26NV08e5-88">
          <mxGeometry relative="1" as="geometry">
            <mxPoint x="-655" y="580" as="targetPoint" />
          </mxGeometry>
        </mxCell>
        <mxCell id="0uebhjib72tp26NV08e5-105" value="" style="edgeStyle=orthogonalEdgeStyle;rounded=0;orthogonalLoop=1;jettySize=auto;html=1;" edge="1" parent="1" source="0uebhjib72tp26NV08e5-96" target="0uebhjib72tp26NV08e5-102">
          <mxGeometry relative="1" as="geometry" />
        </mxCell>
        <mxCell id="0uebhjib72tp26NV08e5-96" value="Create the event listener&#xa;listener =EventListener(event_window, test_name, starting_point)&#xa;&#xa;    This class captures mouse movements, clicks, keyboard presses, and &#xa;scroll events,&#xa;    and updates a floating event window with the recorded events." style="rounded=1;whiteSpace=wrap;absoluteArcSize=1;arcSize=14;strokeWidth=2;verticalAlign=top;" vertex="1" parent="1">
          <mxGeometry x="-640" y="1040" width="397" height="110" as="geometry" />
        </mxCell>
        <mxCell id="0uebhjib72tp26NV08e5-99" value=" Handle mouse click events, including drag operations.&#xa;on_click(self, x, y, button, pressed)&#xa;&#xa;handle the distance &gt; config.get_track_drag_threshold():&#xa;If moved more than 5 pixels, consider it a drag&#xa;&#xa;for every mouse press and release or drag release the function will create &quot;event&quot; and:&#xa; add it to Test Object  - self.current_test.add_event(event)&#xa;Update the floating window event_window.update_event(event)" style="rounded=1;whiteSpace=wrap;absoluteArcSize=1;arcSize=14;strokeWidth=2;" vertex="1" parent="1">
          <mxGeometry x="67" y="975" width="467" height="170" as="geometry" />
        </mxCell>
        <mxCell id="0uebhjib72tp26NV08e5-100" value="Track mouse movement during drag operations&#xa;on_move(self, x, y)" style="rounded=1;whiteSpace=wrap;absoluteArcSize=1;arcSize=14;strokeWidth=2;" vertex="1" parent="1">
          <mxGeometry x="67" y="1175" width="454" height="60" as="geometry" />
        </mxCell>
        <mxCell id="0uebhjib72tp26NV08e5-101" value=" Handle keyboard press events.&#xa;def on_press(self, key)&#xa;&#xa;for every keyboard press the function will create &quot;event&quot; and:&#xa; add it to Test Object  - self.current_test.add_event(event)&#xa;Update the floating window event_window.update_event(event)" style="rounded=1;whiteSpace=wrap;absoluteArcSize=1;arcSize=14;strokeWidth=2;verticalAlign=top;" vertex="1" parent="1">
          <mxGeometry x="-50" y="1276" width="760" height="900" as="geometry" />
        </mxCell>
        <mxCell id="0uebhjib72tp26NV08e5-106" value="" style="edgeStyle=orthogonalEdgeStyle;rounded=0;orthogonalLoop=1;jettySize=auto;html=1;" edge="1" parent="1" source="0uebhjib72tp26NV08e5-102" target="0uebhjib72tp26NV08e5-103">
          <mxGeometry relative="1" as="geometry" />
        </mxCell>
        <mxCell id="0uebhjib72tp26NV08e5-108" style="edgeStyle=orthogonalEdgeStyle;rounded=0;orthogonalLoop=1;jettySize=auto;html=1;exitX=1;exitY=0.5;exitDx=0;exitDy=0;entryX=0;entryY=0.5;entryDx=0;entryDy=0;" edge="1" parent="1" source="0uebhjib72tp26NV08e5-102" target="0uebhjib72tp26NV08e5-100">
          <mxGeometry relative="1" as="geometry">
            <Array as="points">
              <mxPoint x="-120" y="1265" />
              <mxPoint x="-120" y="1205" />
            </Array>
          </mxGeometry>
        </mxCell>
        <mxCell id="0uebhjib72tp26NV08e5-102" value="    Start the mouse listener&#xa;    mouse_listener = mouse.Listener( &#xa; on_click=listener.on_click,&#xa;        on_move=listener.on_move,  &#xa;        on_scroll=listener.on_scroll)" style="rounded=1;whiteSpace=wrap;absoluteArcSize=1;arcSize=14;strokeWidth=2;" vertex="1" parent="1">
          <mxGeometry x="-602" y="1200" width="320" height="90" as="geometry" />
        </mxCell>
        <mxCell id="0uebhjib72tp26NV08e5-109" style="edgeStyle=orthogonalEdgeStyle;rounded=0;orthogonalLoop=1;jettySize=auto;html=1;exitX=1;exitY=0.5;exitDx=0;exitDy=0;entryX=0.002;entryY=0.029;entryDx=0;entryDy=0;entryPerimeter=0;" edge="1" parent="1" source="0uebhjib72tp26NV08e5-103" target="0uebhjib72tp26NV08e5-101">
          <mxGeometry relative="1" as="geometry">
            <mxPoint x="-80" y="1320" as="targetPoint" />
          </mxGeometry>
        </mxCell>
        <mxCell id="0uebhjib72tp26NV08e5-103" value="Start the keyboard listener &#xa; keyboard_listener = keyboard.Listener(&#xa;        on_press=listener.on_press )" style="rounded=1;whiteSpace=wrap;absoluteArcSize=1;arcSize=14;strokeWidth=2;" vertex="1" parent="1">
          <mxGeometry x="-602" y="1350" width="320" height="70" as="geometry" />
        </mxCell>
        <mxCell id="0uebhjib72tp26NV08e5-104" value="Stop the listeners " style="rounded=1;whiteSpace=wrap;absoluteArcSize=1;arcSize=14;strokeWidth=2;" vertex="1" parent="1">
          <mxGeometry x="-601.5" y="1500" width="320" height="70" as="geometry" />
        </mxCell>
        <mxCell id="0uebhjib72tp26NV08e5-107" style="edgeStyle=orthogonalEdgeStyle;rounded=0;orthogonalLoop=1;jettySize=auto;html=1;entryX=0;entryY=0.5;entryDx=0;entryDy=0;exitX=1;exitY=0.5;exitDx=0;exitDy=0;" edge="1" parent="1" source="0uebhjib72tp26NV08e5-102" target="0uebhjib72tp26NV08e5-99">
          <mxGeometry relative="1" as="geometry">
            <mxPoint x="-559.9933333333333" y="1237.82" as="sourcePoint" />
            <mxPoint x="-22.92799999999994" y="1069.9999999999998" as="targetPoint" />
            <Array as="points">
              <mxPoint x="-120" y="1265" />
              <mxPoint x="-120" y="1128" />
              <mxPoint x="-23" y="1128" />
              <mxPoint x="-23" y="1060" />
            </Array>
          </mxGeometry>
        </mxCell>
        <mxCell id="0uebhjib72tp26NV08e5-112" style="edgeStyle=orthogonalEdgeStyle;rounded=0;orthogonalLoop=1;jettySize=auto;html=1;exitX=1;exitY=0.5;exitDx=0;exitDy=0;exitPerimeter=0;entryX=0;entryY=0.5;entryDx=0;entryDy=0;" edge="1" parent="1" source="0uebhjib72tp26NV08e5-110" target="0uebhjib72tp26NV08e5-116">
          <mxGeometry relative="1" as="geometry">
            <mxPoint x="377" y="1465.9259259259256" as="targetPoint" />
          </mxGeometry>
        </mxCell>
        <mxCell id="0uebhjib72tp26NV08e5-113" value="True" style="edgeLabel;html=1;align=center;verticalAlign=middle;resizable=0;points=[];" vertex="1" connectable="0" parent="0uebhjib72tp26NV08e5-112">
          <mxGeometry x="0.459" y="-2" relative="1" as="geometry">
            <mxPoint as="offset" />
          </mxGeometry>
        </mxCell>
        <mxCell id="0uebhjib72tp26NV08e5-114" style="edgeStyle=orthogonalEdgeStyle;rounded=0;orthogonalLoop=1;jettySize=auto;html=1;exitX=0;exitY=0.5;exitDx=0;exitDy=0;exitPerimeter=0;endArrow=oval;endFill=1;" edge="1" parent="1" source="0uebhjib72tp26NV08e5-110">
          <mxGeometry relative="1" as="geometry">
            <mxPoint x="17.000000000000227" y="1465.9259259259256" as="targetPoint" />
          </mxGeometry>
        </mxCell>
        <mxCell id="0uebhjib72tp26NV08e5-115" value="False" style="edgeLabel;html=1;align=center;verticalAlign=middle;resizable=0;points=[];" vertex="1" connectable="0" parent="0uebhjib72tp26NV08e5-114">
          <mxGeometry x="-0.0132" relative="1" as="geometry">
            <mxPoint as="offset" />
          </mxGeometry>
        </mxCell>
        <mxCell id="0uebhjib72tp26NV08e5-130" style="edgeStyle=orthogonalEdgeStyle;rounded=0;orthogonalLoop=1;jettySize=auto;html=1;exitX=0.5;exitY=1;exitDx=0;exitDy=0;exitPerimeter=0;" edge="1" parent="1" source="0uebhjib72tp26NV08e5-110" target="0uebhjib72tp26NV08e5-129">
          <mxGeometry relative="1" as="geometry" />
        </mxCell>
        <mxCell id="0uebhjib72tp26NV08e5-110" value="if the key was :&#xa;print_screen_key" style="strokeWidth=2;shape=mxgraph.flowchart.decision;whiteSpace=wrap;" vertex="1" parent="1">
          <mxGeometry x="60.5" y="1408" width="170" height="110" as="geometry" />
        </mxCell>
        <mxCell id="0uebhjib72tp26NV08e5-125" value="" style="edgeStyle=orthogonalEdgeStyle;rounded=0;orthogonalLoop=1;jettySize=auto;html=1;" edge="1" parent="1" source="0uebhjib72tp26NV08e5-116" target="0uebhjib72tp26NV08e5-117">
          <mxGeometry relative="1" as="geometry" />
        </mxCell>
        <mxCell id="0uebhjib72tp26NV08e5-116" value="&#xa;stop the saving of the listener data while deal with the snapshot for every &#xa; self.save = False" style="rounded=1;whiteSpace=wrap;absoluteArcSize=1;arcSize=14;strokeWidth=2;" vertex="1" parent="1">
          <mxGeometry x="330" y="1428" width="340" height="70" as="geometry" />
        </mxCell>
        <mxCell id="0uebhjib72tp26NV08e5-122" value="" style="edgeStyle=orthogonalEdgeStyle;rounded=0;orthogonalLoop=1;jettySize=auto;html=1;" edge="1" parent="1" source="0uebhjib72tp26NV08e5-117">
          <mxGeometry relative="1" as="geometry">
            <mxPoint x="760" y="1506" as="targetPoint" />
          </mxGeometry>
        </mxCell>
        <mxCell id="0uebhjib72tp26NV08e5-126" value="" style="edgeStyle=orthogonalEdgeStyle;rounded=0;orthogonalLoop=1;jettySize=auto;html=1;" edge="1" parent="1" source="0uebhjib72tp26NV08e5-117" target="0uebhjib72tp26NV08e5-124">
          <mxGeometry relative="1" as="geometry" />
        </mxCell>
        <mxCell id="0uebhjib72tp26NV08e5-117" value="# Create dialog and wait for it&#xa;ScreenshotDialog(self.screenshot_counter) &#xa;" style="rounded=1;whiteSpace=wrap;absoluteArcSize=1;arcSize=14;strokeWidth=2;" vertex="1" parent="1">
          <mxGeometry x="330" y="1541" width="340" height="65" as="geometry" />
        </mxCell>
        <mxCell id="0uebhjib72tp26NV08e5-118" value="" style="shape=image;verticalLabelPosition=bottom;labelBackgroundColor=default;verticalAlign=top;aspect=fixed;imageAspect=0;image=data:image/png,iVBORw0KGgoAAAANSUhEUgAAAZcAAAJLCAIAAACkEEyTAAAgAElEQVR4Ae2dW6wcx3nnB1js5W1FLUnbkZ0cEULkxKYkL6NDaqylLhHlxI5MRyZ1oS4Zk/JspNhY75p5iGxFWTnOycZGcBaBHaxtwbRjC4oOCAWOcBTZARgBAuwHgVjkYYHFyT7w0YIFNGAgCARIs6iqrq++vsxMT3dPT3fPryDw1NTlq69+X9V/qvoczQz+Q+F0Nenqq9/3vve9u0fpQx/60PJms1Tjdbn95w+c+/MHztVlDTvNEHhPMg2miRiSlUvgfe9737t6lG666ablzWapxiu6fegXf+kboyf+7nNf/MboiUO/+EsVrS2p+xOf+tr/+ur/S/33tT/9Pyduf2RJI7bT7AxldGoWVCx301KYIvDe9763nZEu59WNN95YrmORXks1XsQB2vSVQErXYhXTe3UfaTqBa6655mCP0uHDh5c3m6UaX57bWG4zAa3LomVGxa6++uoNUjEC11133aEepQ984APLm81SjS/PbSx3hcC73vUuJ2QDdwrb2NiYkCAAAQh0hMChQ4fcuezd7343KtaRoOEmBCCgCBw6dOjgwYNOyFAxBYYsBCDQEQJpFdu3bx83yo7EDjchAAFDwKmYO46ZsxgqxrqAAAS6RQAV61a88BYCEEgTOHTo0IEDB2o4i7300ku//clPfvZzn0+PwGsIQAACyyRQg4q9+eabn/70p4e3Hnv2xz+/7bbblukttiEAAQikCYiKHTx4sORzsdFo9OyPf/7sj39+YmvvE5/4RHoEXkMAAhBYJoGEirn/2Wah31GKhN1w5i9ObO2dPn36jTfeWKbD2IYABBYmMJiZFjZXocNgMHj99dezBl5//fXBYJAtL1JSScX++Z//+dZbb3n2xz//pf907sTW3l0Pnn/ggQfmjLo79jzHu3Oa1li9Ox4Mt/cqGtzbHnrfSxhzEx9u7xkzJfoXc36pxou5QKsWEpghEDOqljGR119//V//23+XErLcwuKjHzp0aP/+/e4B/2DRs9gjjzzi7pKDweDE1t6RI0fmHMTMHvPitbe93ZyMFVexKS2tgnnXJ5OFnTcaFroXj0+hllN8LtSXRmtBYIZUzahaEpqUZqVelhj0+PHbvv/9F5599jsf+tB/XEzF/umf/ummm2589sc/dxJ2Ymvv/vvvn+PByrZb8YFzW2r1nTPFKdW5Zqe0Xbh4qcYX9oYOLSQwQ6pmVC1vIqJckqky1vHjt33ve3/9rW8trmKf//zn9UFs+IknTp48Oc8VcyTJ3KbsOcfe1expxezJ8XgYn11SlRNzDvIXO3e4sXt4O76oeuOpRrbNbtzRt9Gm3EEpXHcTBydjbMpBKowjLbL+BLN2aNvAXW999+H2tr/zqtqJ5E1GmARzxqnwynogXbKzm9jGdihLO3CYFzbqu05ghlTNqFrqrJ1+ZW+XJQYtf6M8deqUHMTu+vL/vfnmm99+++0CHsQb16uCeZncTmZb+hK1J3fHaQkIJf62Zrpaw7tjERXrkt3qzqi0sfs/diN4oUaUyextD71DUiZm8yxk/Al65KXEqFhwxUIR/2Qwcca0lFLvg66VSl3oGSRml/XN2+PnEgj4J6n5P5cwYL7JGVI1oyrfVk2lrVCx+++/X1Ts5o89/uSTTy4wO7trzf43mVgHfHfZh4nThFkF4111ELPLwnRV7SWvVMGandYmDO11T7f0HuU4aauS5XkWxJpklIolxFEaSEa1lHk5j6wm2/lPF74FfPPT5Gd/CcyQqhlVy+MhF0nJVBmr/FnszJkzk8nEPRT78Ic//M477yzkR7zLkpvNWlDbOFubLUnscNXXa6AVKl3u80lTeRokE0o2nVKcZ8GPletkORULvkh/GUUJX2hm3J3pm8yHTG8JzJCqGVVLwpFSrtTLEoOWV7HhcPjQ2XODweCqq/b95Cc/KTT27rb/cwezyexBQjJiILUnUzep7N0q1V7uVsag3+i5bcKFTh0JdUtxyV3+1KEx/h3lXAtiTTJKaIy2xDYNhXiiSn7CXFV3yQZyUpRvfMrsdC81U7J9JDBDqmZULYNErmblFhYfvbyK/eM//uONN944GAy2trYKj2f2ZZwSlzldltxddn/r6sSlctqNMozjhtE2VT4YD9oXdw3u+cmFxl5wEr9qEAvKfjiC5RbG4jgw9uTpfigcjMd5j/y9H+Zxfzyo8lkN5Bsqd1Vt8M1PkJ/9JeB3Xf7PJue9pL96Lf/3YlEUNSzkTeJudCyjOFnhbNQFBoNARwmUP4tNJpN/+Zd/QcVqCbw5TMlhrhaLGIHA2hCopGKTyeS5555bG1a1TzRc+fzzsdqHwCAE+k+gqor1nxAzhAAE2k0AFWt3fPAOAhCYRwAVm0eIeghAoN0EULF2xwfvIACBeQRQsXmEqIcABNpNABVrd3zwDgIQmEfg7NnHnn/+4osvvvTSS68s9vli8yxTDwEIQKAJApzFmqDMGBCAwPII5J/FIhIEIACBjhDIP4t1xHnchAAEIBChYiwCCECg2wRQsW7HD+8hAAFUjDUAAQh0mwAq1u344T0EIICKsQYgAIFuE0DFuh0/vIcABFAx1gAEINBtAqhYt+OH9xCAACrGGoAABLpNABXrdvzwHgIQQMVYAxCAQLcJoGLdjh/eQwACqBhrAAIQ6DaB++574Atf+MP0pyQWm9POKHxf+ubW5Uyny1ubg7zyTMOoeMtsX0ogAIH1JnD27GNf/er2gQMHPvOZz4XPei3GZGfkRao+FQo2i/lAKwhAYN0JnDnz8OHDN1RVsSiqS33qsrPucWX+EFgfAidO3L1///4DBw587WvfKH8WUypmZGg02hwMRjta2sxpLU6jHYc321JdUUdbW5vGRJycuCFxngc/IQABIXD8+G379++/8cabLlz4fnkVUzdKo0T+YZiojimMJSk0ndZS9fYytjOy3cWeuE8GAhBYewKHDx/ev3//7bff8f3vv1BCxfz5ymuUOpRFIW+UywuSLbUvtCZJXjKuu+u1M/LKtvbxAgAEIJAm4P7S4oEHHiqnYll1ScmQbVBSxcyvLje3Lrt/047zGgIQgIAlUOXvxbRgCU5dKPnUjdKfsOTqGZ6gSRdr0AjYaGSkzL5MVsqQZCAAgXUm0IyKRfYvwtz100tSUC5197T3TdPOX0CV/oUb6joHjLlDAAIpAlVULGVqKS/j5/pLsY1RCECgDwTarWI8EuvDGmMOEFgugdaqmPmNQPibjeVCwDoEINBhAq1VsQ4zxXUIQKBJAqhYk7QZCwIQqJ8AKlY/UyxCAAJNEkDFmqTNWBCAQP0EULH6mWIRAhBokgAq1iRtxoIABOongIrVzxSLEIBAkwTuePCB8fe/+8TO87/7/PcW/UyLJv1kLAhAAAL5BG47/Un3KYkHDx5ExfIZUQoBCLSZwK8/8vAHbr31wIEDqFibw4RvEIDAVAK3nf6ku1He+9+f5iw2FRMVEIBAawm4p/uHbzte23Ox11577fz58x/5yEeOHTv2kY985Pz586+99lrb5t8JJ2uBtj4zrQUXRrpIwKnYdTfccPbZhb89JD3fN99885lnnjl37tzLL7/805/+9K233vrpT3/68ssvnzt37plnnvnZz36W7rCK151wshYw6zPTWnBhpLsETnzqd9yN8uG/2K56o3zqqaf+7M/+7J133pkk0zvvvPOVr3zlqaeeysPU9Oe3lnUyfHCjzMJ+7IZ86KMUZzN+jqZDkfZZC2VKys405WFB532zMp7SBwKVCNT292Kvvfba2bNnJ9PT2bNn866Wja5+7eQPf/jD06dPHzt27PTp0z/84Q+d4zOc3JQPzo6Bm4+hLfbZQY3O0XmnZ5obkxkzTX7Ne0HnCzaL2fEDAjUSqE3Ffv/3f393d3cyPe3u7p4/fz7jeqOrX5z8+7//+yPJ5IRshpPq8//tJMyn0I7k29Ez89IFjc7RDSwznUxJM2aKiungkW8/gdpU7K677nrzzTenbBlT/MYbb9x9990ZInk73H1Cov2YfvmiEfVB/P7Kc3lr05dmzOYXiJOnT59OitiR06dPz3NSf3q2+xRa5Xzw2fvkSza3trzYSXvJ6O8csIU78dcPj3bCdxX4CedPKrdUZjqZkgqHQ1yVTPgWhfTUvPMlHM6dBYUQKEKgNhU7cuTIZGZ66623jh07lvFJ7Y24Tn1hiDxIEgHZGW36q12Jj7MWJ48dO5ZSsWPHjk0mk9lOihfxd8yFL0BRs4i/PDPMwqqZ29fSTDIpFfM3VHtbjbUgWMrAm14gM51MSdNn6r7kRf+bdT7+dpfk1LTzXsqne0gNBOoiUJuK1fbmb3ZG2AOxcHjFMhKxY7+l0gvJQiDEyVJnMXsGsTvay5kXI7ubw75356hYhFI6lVKE3FpdmMoXna7MdDIllT+L+VhYVzyBIOglHS46MdpBIEOgNhU7f/78yy+/PJmeXn755ULPxXJVLNYsd86xN8nEXspMa0qBOPmjH/0odRZ75ZVXJpPJPCftqLGMqu2a9NkMnnAvu9WlRBmZKgS68ZSJZYplppMpad5MxaKM7jNzpqZnJEbIQGCJBGpTsddee+3cuXNvv/32JC+9/fbb586dK/Y7SnWDUupg9o66S45Go3DWKcxHO/nKK6+cOnXq6NGjp06dchJWyEl91wu6Y0qT/oRZ2INa6gimJha6epkw05mWLzpVPdNsQArNNB5KPNGZ3BulAJCWRb2lHQSqEKhNxaIo+tKXvvSVr3xl2t+LfelLX8pz1KqCv4zF+8Due1smG8M9UfYvTQOfzzM6o6yskzKc/p2C2q7BZ/+XZX5m6Ufg8j3nbtbhF53KWmUVqxAOmamjKF5JRr76eJA/tYTzM0JBFQTqIVCniv3sZz+Tv91/44033nrrrTfeeKNtf7vfCSdriW0TM1Vnylp8xggEShCoU8Xc8O5/3Lv77ruPHTt29913t/n/o2y5kyXCme2y1HCE23B2YEog0BSB+lWsKc8ZZ1UEspfnVXnCuBAwBFAx1gEEINBtAic/+p+//OQ/fOUPf/LUf/tB1f8bvNsk8B4CEOgmgTuO//b+/fuv3bgeFetmAPEaAmtP4AO/epP73P3bb72Ps9jaLwcAQKCDBK7/5V9BxToYN1yGAAQ8ATmLnfzNz3AW81T4CQEIdIcAz8W6Eys8hQAE8gjI7yg///hfcRbLI0QZBCDQbgL8vVi744N3EIDAPAKo2DxC1EMAAu0mgIq1Oz54BwEIzCOAis0jRD0EINBuAqhYu+ODdxCAwDwCqNg8QtRDAALtJoCKtTs+eAcBCMwjgIrNI0Q9BCDQbgKoWLvjg3cQgMA8AqjYPELUQwAC7SZQRcX8l/zY7/IJX4Tb7glX8059D1A1Q2V7Zxyo8HVQZX2gHwTaRaCiiqW+9St3bpmNl9uq6cLiXumWOt+0x3a8lTuwklkzKARmEUDFZtGxdVo4dH5ux2U0WLkDy5gUNiFQiUC9Kmb32NbIfV2sPaepW6e7c4Yv0HGvTZfRaNN/Fa2bTNaOKQ+24uurbbaztemvtGI7HBGlKP42a7HvfPTDhmaJdnpMW5EYcd4okfsqYDeSzDYe2Lw2o8ZT0V8HHpzxlb5EfYutRN26ZL6pN+HbaMdat4OJnxmAwcGEZT+cpyNjTc+IF9ObUAOBJRGoqGJeC+LNaLdJ2K+S0/vI53dGNme6+CKZY64dXet62GaZrFW7zNDxcFkjsTzGgmE2cModvUFTI84bZWekVEqG9opz2SpPPLDx2mbVcAqRa2XlZZp7Kd/8NEyxHyN2QYYIdcqy1Br3UoPpOSTyqlOinBcQWD6BiiqWWuR6LUteMuGdX51HVG2YrS5UebtP1fFCVbmTiDmSKI0IZwrbKbGXVV/TLNR5NRFvVMtFR1HaEJvLmYIb2gtG1ufLW5sBs3bGmZQSySgCmkYs1469tZhrOeuAkCADgVYSaF7Fgl5YIHrvCSFd6PNBa2Tz+SrTLy8fuohlyaj2yWalVCw1KRnFZJwsmBZhIJmCKdvcupx4rSQ17l+LimVHD6MqgKFZYha8gEBrCTSrYkZr/E0nRqLUJEDShT7vf1otcNtaitQmNEakPDucjCFtXHuvHDl7ONVSFEXKZ4wSDxfLhfQwo3g7pm402hQdzFozJa7a9JOOsW0xKhlNQOWlPoyeaznrQBaa2PIZ/1OakoFAYwQqqlh8NRzEe0uv5ZA322KQ2IhxN7M1QzM1Z10oebuFzUijUXzFkiq1V40VVe47BQf8MFO88uLimzlzvruyXGSUeIzM5MMU/FlNRMwXKER2QvZ14hl87KG4JJkkgeCnZ6FH9x4mLPuGftbCQobIZKRA2pKBQFMEqqhYUz4yTgMEjHJpKW1gSIaAQD0EULF6OHbdijmT5RxDuz4t/F8LAqjYWoR5yiSnXh2ntKcYAm0kgIq1MSr4BAEIFCeAihVnRUsIQKCNBFCxNkYFnyAAgeIEULHirGgJAQi0kQAq1sao4BMEIFCcACpWnBUtIQCBNhL41H3X/OSvB//7xcGl7/yrwT6bNjY22ugpPkEAAhDII/Cp+675n1/4NwcOHDh48GBRFbtAggAEINAUgclkkqddoaykik1IEIAABJoiEM1MqFhTcWAcCECgLIFoZkLFynKlHwQg0BSBaGZCxZqKA+NAAAJlCUQzEypWliv9IACBpghEM1MlFdsexp/lZ38Mx9t7elK748EwWaJrC+b3tsdDM8owZWrR8oLD0QwCEGghgWhmqqRik8nueDDejSdthKWyaiUB7iqLu2MZabJoedIqryAAgW4RiGamGlVssrc9jIVmd+wOaRlV29sd+/Pb0JyyZqueFitlPSFiRcq7FTC8hQAEUgSimalGFdvbTqpS+rU5uQ3Hu/7WuTf/xplWseG2m9ui5SkivIQABLpFIJqZqquYPBpTCmUJZVTMiM9C7BZVq2ntFxqUxhCAQNsIRDNTmf+P8sKFC36S+rmYL/M/c1XMn8R8o5k/E9bDfTXxNC55owxP6XT5zEGohAAE2k4gmpnKfKZFWRUz6iNPwvbsI7LwwD4X4962/N7T3kZ9o0XLfT9+QgACXSQQzUyVVEz9pYWo08T+4lKumS4jYmV+jxnXDYfb8oxsOte97fxfFCxaPn0EaiAAgbYTiGamSirW9qnjHwQg0AsC0cyEivUiyEwCAr0mEM1MqFivg8/kINALAtHMtGoV21PP1hIP0+RRWi+CwCQgAIEKBKKZadUqVmFidIUABNaEQDQzHTp06GMf+9jx48ff//73F/3E6jUBxzQhAIGWEIhmpg9+8IMf//jHb7jhhltuuaWois00SCUEIACBRgkcP3789OnTDz744EMPPYSKNYqewSAAgVoIHD169K677rr++uvvvfdeVKwWpBiBAAQaJTAcDm+++eYbbrjh1KlTqFij6BkMAhCohQA3ylowYgQCEFgZgaNHj+7fv/+ee+65/fbbOYutLAwMDAEIlCZw5MiRw4cP33vvvTfddBMqVhojHSEAgZUR+OAHP3jrrbfec889Bw8eRMVWFgYGhgAEShMo87f7pQejIwQgAIHaCaBitSPFIAQg0CgBVKxR3AwGAQjUTgAVqx0pBiEAgUYJoGKN4mYwCECgdgKoWO1IMQgBCDRKABVrFDeDQQACtROoomI7o/DprJtblzO+Xd7aHOSVZxomCoLV0U6iYikvdkYDNczOSDvs6haYRbJ7eX/NkHFanF/kAG5uXV7A88V9Xarxxd2hxzoTqKhi8SYrtaTz9rwx5FXl8tZWwzJmRg8ydnlrc0ENyZvRoovL+uARRNHCEIyGhe6Ljj6nfR0TnDME1RBYmEA9KhaZA8CCWz63SwkzC0852UFp1eWtzdHW1masAaoi2WP6q+reaxWfPs6smuo+zLC+VOMzxqUKArMI1K5iZqGPRpv2QCCL3ma24guoVbtwb0yeHEx5Rg7t+cResazC6CHMacVfv/wRJF2SHV0TEbVyGbli6ozzaIodP9zm1laQcl848CcjMZdQfCOc6sBpeunXys+MwdjOFKoesmfpuysn7XTi5wCSNxkfvvhuasAbp1Ihky46BOK9rU34lpi3mhhZCFQlUI+KmT0S7xctQ7LQ7QZw29NkJef3WGIW8Ybzu1nZjpvlDmE2SXrrhhI1pmw0P6jXF2ntzcQezJ1FbNH67WYUJmlFNmlwZ7S5Gd9VRUFjX9KvvYtWQWJ3Ao+5VBOeu+5JJ523kRIYzVaPLvPK71LIN3FHDJOBQB0EKqqYfwgdpEEvVclLJrVhZEtkpmJ3m9kbJhPvEd9IWbPNxAnTMFuSuLqqvt6cqR/txP/aAd2Tce+cdJGMmkVCd3yDpM+xSvqWRix33CM3XySeJDtKcQpCkF3/1pGUIe+4TDwxjndSas0wuYW2OIbrbEoz1SXp80zfwoTIQaBGAhVVTDaMuJS30MMmUas/USjdQybeHclNYqvVENnabEliINVXhrKbfEfudvHjMZmadJGMmkWuQCR98BvbNXUnPnuTTPR13iR7ag+VlHuDef7kTjYxkPSSjJqO7h58kf55XUIz4+5M32Q+ZCBQJ4GWqdjOlv+LDbM5rJBIRqad2kvhQGJbZO9EqfYiT2LQDKEex9mbWlAN6S6Z1LaPm1orzrixoC5ZIavvkqORuwKLG+K+7xuZk6H9RW2uwWn+yASlQeiunDTZ2DNTL5777tLbNMzUBr0LxtWZUTorVrosOWleQaAKgRWqmNkHJiXui3FZsjwU2rbJ3WD3ZXzvcabSJbq9zgduYZ/aMrUv1SYM+1YXhmuXenCuH3h7UbCS5OXANVBVwRfd12tL3NfNUnrpuUheMgWcFK6jkf+9hO7uOZrH/fGgcQ/DWbX0DZW7qlZa6jI9X/IQqEagiopVG5neKyFgFCfxvrESLxgUAjUSQMVqhNkBU+YwJYe5DviLixCYTwAVm8+o+y3ClS91ge/+1JgBBCJUjEUAAQh0mwAq1u344T0EIICKsQYgAIFuE0DFuh0/vIcABFAx1gAEINBtAqhYt+OH9xCAACrGGoAABLpNABXrdvzwHgIQQMVYAxCAQLcJoGI58XuyFylnYr0u6kXQnux1iJY1OVQsh+yTTz456Xh68sm12w9ELWcpr0cRKpYTZ/ZDDpTWFxG11odoWQ4ePXr09OnTDz744EMPPTTYZ9PGxsayRuuIXfZDRwKVcJOoJXCs04tbb7318OHDBw4cOHjwICoWR5790MUtQNS6GLVafEbFcjCyH3KgtL6IqLU+RMtyUG6Ut99++xLPYv5LJdw0kh9d7OrMR2BlP74v2TKGkFtYJ6DUftgdu4+KHm7vTUxKv84rsQ1X+E/lp/tZyNmSKE75sfO18onVUrCcTCJqRWKUbTNZcaocteWQbb1V93T/6NGj999//xJVzKxk+Zxk+5l9oljyBTt5rGTnSCb5cfJ5faqX6f2wOx549ZrYtDsejHdNTmqyJa7lKv+tvB808MimbIkrn/tvbsfcwrmmZjVQUdOhcdHLxihbMll5qhy1WXx6XCcqdt999y1TxZRWxd+UFouaqsjBLGtdMg2r2O44qWFGu5yITSZ720NTmS1Z+W6YTCrvBw3cBSZbkhOwvKLcjrmFeb0LlwUViwMzcW81JlzZGGVLTPMVp8pRi9YzHT9+/PTp0/fff/8tt9yyTBUzX/Lljl8uI2cznfHnM/8By/5bheS7etznLdsNsGO/fU0+RL7WTRH2g1nrY32hVBsk3hvZkhVvBTt85f2QBapKfID851/nVPnY+XedRLySAVW9q2zCEDX//iLqlY1RtqQXUavCr8N9m/t7MS9X7mtlI/nhb5qyls0Sdwc1dfWUWrcrvHpJW11fORxhP5hHJ/FhzN1Ssqs/W9KL/aCEJv6aPPnKTsU6RNG9A0k87FdThm+xzMRLPyxT9qqELkRtYs/J1m13bs7GKFvSi6hV4dfhvs2pWPxozIuZO5LJCS18v6EqCoV60U/N1xaGsB/UvcPdSrKrP1vSi/2QlRZfEg5iVifMG46q8ufpUCi1Jj6+ZcgsIWoqJC6AqqDfJ+jaYHbLUIMqZuVpZ2szPBAbbflrplrf7VaxtXnCInIj69mXGBWLY+jrVFULVCyrWWsTNR+QNfvZoIq5S0b4cwp3Z5H94HeCeZeee6OUveJ7+Z+1hC+cxczydzfKve2hfazvf9r3dFuVLZmsPi3zuZgJkATAAhf6xWMnXdT5rFrwQtQkaBKkbIyyJasPWvXfyVQj2NneTaqYlTG1/MOSN/iSy9peVtQTYqttA/V0/7JD7nv5n7UEIuwH9YRFfjVplE09c5movyDzv700ZatNy1SxKH4/chT0jdI/tLSP0LZG4bmYRD3EyUTfBTSURVWSjprRKJckJGsRtSr8Oty3URXrCie9HybdTJVVrHKsci6elW3ONEDUZuLpcyUqlhNd9kMOlAWLstfOBQ0s3JyoLYysLx1QsZxIsh9yoBQq0r+/lCeehXpWb0TUqjPsqAVULCdw7IccKK0vImqtD9GyHETFcsiyH3KgtL6IqLU+RMtyEBXLIcsnuOdAaX0RUWt9iJblICq2LLLYhQAEmiEwuu+uv3v2v/zDX33+R9/+r0v9v8GbmQ6jQAACa0fg4Xvv3L9/P59YvXaBZ8IQ6A2BT5/5yJ1DPne/N/FkIhBYPwIP33unu1Fuf+FBbpRx/HlO3MWNQNS6GLVafHZP90/ceiPPxQJPfmcfWHQnR9S6E6uaPXUqduSGX37x67/HWSyGy36oeZU1Yo6oNYK5jYM8/shvuhvl9776GCoWR4j90MalOs8nojaPUG/r+XuxnNCyH3KgtL6IqLU+RMtyEBXLIct+yIHS+iKi1voQLcvB+lQs+Vl3yVfq0/PMZ9fJZ+YVmJX5lIRM+9zCAsYKNknvB/MBe/Jpe/bzQ+0n8MVfKzJpYyr4+WLpMPlvRfCg4o8ytNPNRME3yvmZG6DcwpzOJbyDyjsAACAASURBVIvWJ2olAfW3W30qZj+tNf40lsRn5zt4Yb+UXczBwrLDofaD/dBQ82VuomLyhSLqc5EnrUsFVcx+aqt8hE42bIE5UWsgxkWjtuwN0DX7daqY2RL2DTv9jm6ghP2QzBcHpi0U71WmpVKxiU2iXPE36LjSxLdUuKLW/Ft8PwSsOWELlUStgdgWj1pEUgSuv/76jY2Na6+99tChQzX8jtLo2GbmK3LMeFP2g3mLj5M/EoQiW+I6qquNKVXWQnP5Zh5bu+U+191fR1UPNf387AwVSyiXErdJy9IC+yF+7zEcfQgEi6am8jnMQxFRK70WFoiahIhMFNWsYgl9SfANe8Cs9/gZi9GmeOdIafpEIB0lozUxz4L7phFnV+p174RjOS/WS8VszBJfqheQBGoSH9ucqE2WkVCxsPQWydWsYkaCRv67bxJ+qMOU3wLJhzJGe4zy2Dd19SRZNpJklIqZxrEMulL7Iq9lwpk5L9ZNxbTsJ9EQtUmTCRVLLr+ir2pVsVg9ktISe6KVxTuXbKgPYVbKnD5JR8msUsVyvp910sa04H7QbH10zM+8cqK2tIAvGDUdqbXO16hi/tl+5M5T4YhkAeftB3sGiNsl94az4X9V4E5m2oLk5caoB5VatQ912byIzziLTVr5bayTTFpwP0yjk1ueyzxm6heBdJSMikV+3PNa6jKiNo/A2tbXpmJqaRuYqZf57+qx3rmn+/4SaXq65PQtLOS4xhSHQncDtR28BV0redVjbrBnqVgrv0N3kknLVDH9rbqeOVHLhKBEwYJRi0iOQG0q1iegGRWbdC6t4X4gan3agwvN5eTxjz91+slX/uBvL33xlRr+0mKhsVvbmP3Q2tDMcIyozYDT76rxxx7bHn312muv/fJDz6BicazZD11c9ESti1GrxedH7n7oxl+54dprr33wzvtRMVSslkW1GiOo2Gq4t2DUk8c/Xuff7rdgRjW4wH6oAWLjJoha48jbMiAqlhMJPsE9B0rri4ha60O0LAdRsWWRxS4EINAMAVSsGc6MAgEILIsAfy+2LLLYhQAEmiGAijXDmVEgAIFlEUDFlkUWuxCAQDMEULFmODMKBCCwLAKo2LLIYhcCEGiGQK2fu9+My4wCAQhAQBHouYpdJCUJqNBPzSZ79O3V1GlT0VkC/VexKyRP4OLFi0UW6sWLF32Pvv0sSKAIJdq0hwAq1reNOmM+BfcwKtae/YknRQigYjN2fd+qULGCBIrsHNq0h8ChQ4e++tXtP/qjLx08eLCHn8zT42NFCYktuId7DK0ggfbsTzwpQuDw4cNf//o3H3/8M6hYCVnoWJeCexgVK7JzaNMeAmfPPvb88xdffPGll17q4ydW93hDllBQVKwggfbsTzwpQuD48du++c1v3377HetwFrtwxn+90mAwOHOhhA7U0iXhxpGnX51l1LWd00gbuHBmMLV1wT08S/qD79P4zXJAOzo3b4aaNsjczlMaFCQQkTpF4OTJT3z969+88cab1kTF/A6vtEVyN2puYe5m0i2tKkzdqyW8FOOSCT4U3MNTVezVp4+Irrz69NP5bwM54wYP0rnpjV99+siRM2eO+HilO5Z8XZBAROoUgfvue+ALX/jDAwcOrJmKXZm+f+ZvkNy+uYW5tpIttTSkmydbpmtzX0sXyYRmBffwVBXLMRmM+1yhRnMbGxF7+lX3r29cw8+CBCJSpwicOfPwpz/9u+unYnqvGR1xyR2K0q+vJArs6Uk3N5srUxi6yOnFtLNJj33lirUen8ZCrzMXlE13IAljxK21Hcm7TGirhy+4h6eqmHUpfTpK+OxQ+CbpqniyHl6+kxaRly//U7idOXMkvmdmjAdzU8+2VwoSiEidInDmzMNrdRaL5Urtbdn/RovM/rtwRtUmt6VrYFr4jWq3l/1HF5oNpYQp1Vi31CqmygsNpNoHl6RQMsHFgnt4uooFGfJCoUZJ+5ytMsKTZKHaBDetsMfttIwZqr676hiPK/1VlZT5TEECEalTBE6cuNv9jvKFF/6m938v5te32U1+G4a3dCtwZy64k5ffLe6o5LUv/qWAt+P3hv2pCrV9e07zg7kOqqUp8Bs160nQJj9C7IjzTtuRfDbjBjX/FtzDM1XMWrOumknN8DlbZUqSJFIT9J56Iua16iRTyx1XH4hD9LzJ+GdBAhGpUwTW6m/3wzYI+0Ttknil2x9uD/qNWmTvBeN657mzXLK/aqm3aY4nqmWoFd9VbZADKZRMmFbBPTxfxURcglcyih83W5UtCW5L9+T1PFZtx89b1tCkXzAufKQuZAoSiEidIrCmKmbfuOVEI/eUsNzVGUlfZFwDtZ1CD12YulEmRSyxdVVLU57yRNmUrNmuzvOwcVVXaSeZ4GLBPTxVxS487f8sRJyY4XO2SnqJSzlOJvCYhjJN3ThjXCqzg8hohU+jEalTBNZWxezmCGrg74yJp+pefczG8MmWmT2U+ZOzRGHokr3dxA2tiWRt6OWeq8nWjDez6aL//kAsnTnjH9WFLgl/7E6uqmJWLK3b8tgvebkzcIIDFnHc3F8lxeO4IOuk6m+dDjKWrEmz8q81n9hA+FGQQETqFIG1UrGwmtczV3APTz2LdZ9aQQKd2sI4G6Fi3d+ahWdQcA+jYghDtwigYoU1oPsNUbGCBLq1h/EWFeu+OBWeQcE9zFkMXegWAVSssAZ0vyEqVpBAt/Yw3qJi3RenwjMouIc5i6EL3SLQfxXr23f4VJtPkdVZbYS29y5CgDbdItBzFetWMPAWAhAoQQAVKwGNLhCAQIsIoGItCgauQAACJQigYiWg0QUCEGgRAVSsRcHAFQhAoAQBVKwENLpAAAItIoCKtSgYuAIBCJQggIqVgEYXCECgRQRQsRYFA1cgAIESBFCxEtDoAgEItIgAKtaiYOAKBCBQggAqVgIaXSAAgRYRQMVaFAxcgQAEShBAxUpAowsEINAiAqhYi4KBKxCAQAkCqFgJaHSBAARaRAAVa1EwcAUCEChBABUrAY0uEIBAiwigYi0KBq5AAAIlCKBiJaDRBQIQaBEBVKxFwcAVCECgBIEHHjjz0Y/+1nPP7bz00iuDfTZtbGyUMEQXCEAAAish8Oijn/r2t7//wAMP3XHHr6NiKwkBg0IAApUIjEbnTp++/8CBA6hYJY50hgAEVkXgvvse2L9//4EDBw4ePMhZbFVRYFwIQKA8gZMnP4GKlcdHTwhAYOUEjh+/DRVbeRRwAAIQKE/g137t11Cx8vjoCQEIrJwAfy+28hDgAAQgUIkAKlYJH50hAIGVE0DFVh4CHIAABCoRQMUq4aMzBCCwcgKo2MpDgAMQgEAlAqhYJXx0hgAEVk4AFVt5CHAAAhCoRAAVq4SPzhCAwMoJoGIrDwEOQAAClQigYpXw0RkCEFg5AVRs5SHAAQhAoBIBVKwSPjpDAAIrJ3D8+G3f+95fv/jiS3xi9cpjgQMQgEAZAvJZr5/5zOf4lMQyBOkDAQislsCJE3e7T+b54z/eQsVWGwtGhwAEyhA4e/ax55+/+OKLL73wwt+gYmUI0gcCEFgtgcOHD/MpiasNAaNDAAKVCPCJ1ZXw0RkCEFg5AW6UKw8BDkAAApUI8PdilfDRGQIQWDkBVGzlIcABCECgEgFUrBI+OkMAAisnUE3FdkaDOI12qk4l2BoMBptbl6vac/0vb20WNFa85QKeJSZVnVGxkXdGBac8x1yenaVQmuOHrc5zpkg/2qwBgQoqZha035iXt7aMjFVZarqv3fze9jKjoAddxjgF7RdsVtDDgtZym+lCnS84dLZZLUYqLq2sV5T0ikAFFctZnzlFhWkl+2qJLGxi8YbJQRfvP69HQfsFm80bLa4vaC23mS7U+YJDZ5vVYgQVy4KlJBCooGLm5KWvLur25I5RRolccq/tgt6JCzN3xtRyVzKWtpN+HUWpEmNqNNocmKOimM2OnnJYWmp7ctq0tVvxDTrjfACazCmbcUXWTsoNPXrg5qcTrPijqhri8tamKbUlGc5hmLhN9mFAaGKnnWtHhksxl3nr8pTB/KltZVwVWxLYza2tcE0OI0h0spZDIw8qWE3kZEKJUl50iUAVFYtk7fiFoleEyu+M7La3a9oJgFljKSlQ7Q1A08KaVeXOzs5ILd64ZdKWGciXSPfc0aVWv9ublvGMgp+2uytV9fNCbXulpdxbD3Zy3TByZGdh2vnp+AEFws5oc3PT1V7echk7qCsKQ/iOKVlPP35MeeIHDnZ8A3FADLtMuty3N7Uqr6YWzy2gFothVFMZtwuFdo3IPD2h/EUiNjMZ5VSmjoJuEKioYnaSdomlFccW+rd7t28T6yW92vUSN1b9lszaUSs6bug1xyPXA0leMqaVH10X+ryxH4vYnJZ+PDkyeH2SCm9TChLTlFrJyPuCJ2ccUbVix+Mxe3bHqZcvSrRXfc32dymz88XstL6h3BtMRUEspMt9+/CW573ITM0HxduSCZkCbyc3OnZQb9cGIe2Gt8nPPhKoQ8XCwckvNX2WCtRUrd33QSpMG10bLOY0tAbdujUWksvaVmpTkpeMdk4X+nzSoN9avjbrqh1yyj+6l2uiSyQvmbnTkXHcFncHD3uTDHteWROqYVLSTjcTs7owN68LLfuMcote2fiq9sGH3OEy1eKpae7tJFvF0UkWinVTnOeeNCDTDwIVVGxny/85hFkt9v3dLzXDxrz1+1O+Y6VKcpZduq/XONUridwvchldqlOm5Ojh/QmjT20Zjz6npYw4LaPtuza6RPKSmcYtCdJaMtNXd8nRyF0/1YY3zbxl/9MKjwDJmpV2qq+2IwbdbKzqZq04IbPlKYM+BHF3FdyA2pu2S8gFwlTGXU2XvOikLMdG/CIRNzIZKZBhyXSNQAUVs4ssPsZryZG3P7v0VAOzXuxTalPmewgwszp9Su6LlJ3QUGykivTClHz+6HFPY0laugOR80U8UbW6pbifnwmO+T+Cy7ej3NCjO0y6ixrGYPHu6XzCPenrIZoIxL0Sg3rDqlD6akXzhWFmEgVrIlOuDOZPbfqScG+FJhBTnu776cvxzwXN/VInXkzOPe92gONL/E8PgJ/dI1BFxRad7WrXy2pHX5TVmrQnKGsS6OVOExVbLl+szySAis3EQ2UxAqhYMU60WgoBVGwpWNfNaJMqtm5smS8EINAEAVSsCcqMAQEILI8AKrY8tliGAASaIICKNUGZMSAAgeURQMWWxxbLEIBAEwRQsSYoMwYEILA8AqjY8thiGQIQaIJAGRW7QIIABCBQisDEpnq1raSKOVf4FwIQgEAJAlGtCRUrEQK6QAAClQhEtSZUrFIw6AwBCJQgENWaULESIaALBCBQiUBUa0LFKgWDzhCAQAkCUa2poortbY+H7tPohuPxcLhdYj7lupiBzcjD4faetrBoue5bR353bJxqjkN1n/e2Dcfx7lRLu+NBCvLUplRAoBiBKC9dunQpr3h+WSUV29sejr2I7O1uaxXbHs7YF5OqaXcc9tXuOIy0aHlVP3L7GydyK9pQmBsXE8fpKtYGt/GhZwSiTLrkU6ZmfkFVFRtu7ybOQpPJxL25x58XbH6EHbK3649uA9E/exQYbqtDnRfGybSkxcoM5wdYtHya/YXLw7yG412tYuqsOtwuIBSq/Xio3hVUeWzHHfrGlqcd05wBPYjgT+A8Iy723cjGQRuZTCZ2EHu4DEF24TVHb38IV/Py8R2Od7fdqTR0XJgqHfpLIEomr2Dxz2Tl/FeVVGwyMdvFrWajSmrFBmmZhLQ9Hocme7vjcXxm2R7azRbXKVkKXRO5tFr5s8+i5Qmj5V/sjodjr+VWP7w/5nQqEzY14VXuaHumQ2xpz17kXLN8O0ZOjMU9oxfGAeuH6TGNs6kSpVMeWGGKp2ACmnTTeiXTMN3syDntg/t73jk1ClkICIFIJZGwKIp0XjWZk62oYhNJetfl7xa7V9QRLZzSErvUbhJ/qBDziUxCD+wmc9WLlieMhhf+BBJ8nelOYlTrvVOxjBqnGoYBQ86fZcwDP6+M0+zIxHfH7rgbN5zOOT8uKeAZL3NVLBCR9uKPm46Uh9mRg0BMIFLJKZcUpF5K+YxMbSpmrx9hbee955t1PclLi6uYvqWGofx2tmOozT+tPM+XxctS21U2s3LAGU01nDXS3p45Yc1WQxnIT88POJUzKjaLOXUNEohUyj7Uz5ao5jnZKipm7zz+KqWfT9ndEt9L7BOd+CJpbyvqKcokToveKM0lyt965BplbC1a7h2o9rO2G+V2OIDZu7p/U0iovNxMp6qYuVpOewonpnRcvPxZDBmtteOkb5TeNfPmJTdQMT7hRlltSfW+d1Rrqqpi8pA3PFq2EbDPh+yVTG5GpjwUD4Zhy5rVbx6KZ9tbW3n/2IdBpr1sIddq0fI824uXhWnZp/vWLWsl+1R+lvHt4TjBM0hH1o6/9o533TP44bZVjvh3KcEhzTkRAB8XuYAaYfJWLVX/Inmznt7e/jpAgrgd1G3WnKlbSwJRramKitWGP7yH12YSQysmYP/wJsjwir1h+JYRiGpNq1cx/xv+jv2xaMtWRVvckWjKX9K0xTP8aBOBqNa0ehVrE1t8gQAEmiAQ1ZpQsSZixhgQgIAmENWaUDHNljwEINAEgajWhIo1ETPGgAAENIGo1oSKabbkIQCBJghEtSZUrImYMQYEIKAJRLUmVEyzJQ8BCDRBIKo1oWJNxIwxIAABTSCqNaFimi15CECgCQJRrQkVayJmjAEBCGgCUa0JFdNsyUMAAk0QiGpNqFgTMWMMCEBAE4hqTaiYZkseAhBogkBUa0LFmogZY0AAAppAVGtCxTRb8hCAQBMEoloTKtZEzBgDAhDQBKJaEyqm2ZKHAASaIBDVmlCxJmLGGBCAgCYQ1ZpQMc2WPAQg0ASBqNaEijURM8aAAAQ0gajWhIpptuQhAIEmCES1JlSsiZgxBgQgoAlEtSZUTLMlDwEINEEgqjWhYk3EjDEgAAFNIKo1oWKaLXkIQKAJAlGtCRVrImaMAQEIaAJRrQkV02zJQwACTRCIak2oWBMxYwwIQEATiGpNqJhmSx4CEGiCQFRrQsWaiBljQAACmkBUa0LFNFvyEIBAEwSiWhMq1kTMGAMCENAEoloTKqbZkocABJogENWaULEmYsYYEICAJhDVmlAxzZY8BCDQBIGo1oSKNREzxoAABDSBqNaEimm25CEAgSYIRLUmVKyJmDEGBCCgCUS1JlRMsyUPAQg0QSCqNaFiTcSMMSAAAU0gqjWhYpoteQhAoAkCUa0JFWsiZowBAQhoApFKly5dUq9MNluSapB6iYpNSBCAQMMEIpUu2SQFqZdSPiODik1IEIBAwwQilZxsufOXzqsmc7Ko2IQEAQg0TCBKJhGvEgexKIpQsYbDx3AQgMAkyiQRskzN/AJUbEKCAAQaJhDlpUUf6osNVKzh8DEcBCCQcxaLKiRUjCUFAQg0TSCqNaFiTceP8SAAgajWdOfmHfv37z9w4MAf3ffUYJ9NGxsbs4e4cOECYYAABCBQmkBUayqjYqVdpyMEIACByaTm52JlVCwiQQACEGgNAVSsNaHAEQhAoBQBVKwUNjpBAAKtIXDPrb+1f//+cydGl774StGn+61xHkcgAAEIRI999OwPzl/8zhPf+h8PfRkVY0FAAALdI1Dm78W6N0s8hgAE+ksAFetvbJkZBNaDACq2HnFmlhDoLwFUrL+xZWYQWA8CqNh6xJlZQqC/BFCx/saWmUFgPQigYusRZ2YJgf4SQMX6G1tmBoH1IICKrUecmSUE+ksAFetvbJkZBNaDQDUV2xkN4jTaqYmXMVmbsZp8qmomYBr0b3IGzs5osLl1uSom+kOgHIEKKnZ5a1P05vLWlpGxyqv58tbm5mi0uaQtUdm9coyLYlmVe9NmVdyf4i2zY1Xpm7VGyToSqKBiOcsvp2ghqEbEti67fxfqWKxxVfeKjZJtVXDcgs2y9pdUUtyf4i2zrlbpm7VGyToSqKBi5oihLxLq3uSuhOaw5pJ7bdfrTlyYd9zy8uV/+oCkDUVRpiRdkB0r7V54HV9gbZet+I6s3Eubzg7u/Zz2M7tRs2MFd+IDbnpY02U02kxfSRPNzIvY8zCmzWWxJzo6z3XRXH9CEDa3tnJulMGYnNiDT/7YnhklC3eaHT+j0U7oE6IWes17PKGdmhZAyttNoIqKRbKQ/UrRK0Lld0Z2edkl6xaaWWRhycWIgniFnBsi2TTbueBYqlmIihRa90RvlZYkR5f2Zicmq4LRZE7t1dhs7ljKsr6EKnqZ4VSX0Gy0Y7r7mNg3mxh2IJftGOq886rNFH/cGKZnOppmgrEHwXCuQV0Ymiofcu34AS3IGEsYU9mcGyPV1g/Kz44RqKhidrZ2Fdslq1aELfTP/t2KVrX2vVj2mWOWlq6wRZINjeVsSRjKVuaOlSh0u9t2c7tA1/p8obF8yMOUk+5pCYjbevvmpeQlI+8OflLGnqr1A4ZDiGvohlUKaRsmOsbyFly1PePzzHS3c9sHTU0MYQZNcvOaqptJXjLpXgvaUSSz3goxMn0kUIeKheU3c0Um9mFymRuydvP5bev3VjAd4Ge7Zkvyx8p1T8RT1Ur3rOVsSfBsWk5bdm10ieQlkzdrcUkPkuvMLBXzHfzPYCxbokfM1go2Y0J57iwm269CxVKKHCZKrn8EKqjYzpb/5bpZs/aNWa9ms5nCu7Uhp0qSqzyuTLSWFmJc4GdLlOW4lSoRS3qziafBmBTpbRmq/fDKsi+a91Nbdm11ieQlk2QVW9e1MmDWGacYXjdMQ9UmgSIVndyZSkiUkeBPfCQ2PVPG7KCxkIRBQ045peeV64M/eIfeuktuPtdbNxdp7zP+pzAl0zkCFVTMrsT48OTf+czykb+JMsvOJ9PArBf7fDo0EV7ZtRQWrRooNY4MlbhbTR9LueedC3/YoV1I5eNZxKP7rjnTkPkkMvGwzordTCn7sVgo99xxLB43e0cO5hPObPm3E8sjWM3Dnujo/tov+OlmOtMfJ4/Gw3lP92M/jM8ywmgkvxBIjBJaaPFS5GIrYjOfZO56sG+60t5n/M+AlFzXCFRRsUXn2uR6aXKsRTk03B4UDQNnuKYJoGJNE298PFSsceQM2CwBVKxZ3isYDRVbAXSGbJJAkyrW5LwYCwIQWBcCqNi6RJp5QqCvBFCxvkaWeUFgXQigYusSaeYJgb4SQMX6GlnmBYF1IYCKrUukmScE+koAFetrZJkXBNaFQBkVu0CCAAQgUIrAxKZ69bWkijlX+BcCEIBACQJRrQkVKxECukAAApUIRLUmVKxSMOgMAQiUIBDVmlCxEiGgCwQgUIlAVGtCxSoFg84QgEAJAlGtqaKK7W2Ph+4j7Ibj8XC4XWI+5bqYgc3Iw+H2nrawaLnu29787jiGnJxsOYd3x4MUtHJ2au1lZ9jg+qnVeYwtTCDKS5cuXcornl9WScX2todjv6/2dre1im0Px7uTpaXdcdiHu+Mw0qLlS3NwGYb3DOCEZE8mk+VyXsY0pto0wZtaSUW/CESZdMmnTM38gqoqNtzeTW+sve34eObOD4NBUJm9XX90G4j+2dbDbXWoy2zVSSppsZoYKY0Fc9HylNnSL91Rabi9t+tmIQ7lzdeOos+wQ6f+DpubihjULqVVbAZn3U3np57pcvzR/TJ5H8fheHfbnBO9vCo7w231NjalPPAZjndRsQzm/hZEyeQVLP6ZrJz/qpKKTSZmGTrNMqqk9CxIyySk7fE4NNnbHY/j997toRW1uE7JUuiayKXVyr+HL1qeMFrxhRGI4XC8ayDs2X8nk2nztXoUq/+eveC5wRMzT0zG1KdVzPbJ5Tx7Klk70/yZZsccCp37e0ZKvYRNEodFszTi96Mp5btjw8sNYvXMx3HauJT3hkCkkkhYFEU6r5rMyVZUsYkkvRvzbzqZs4Oc0hKr3G5Xf7oS84lM2B9+c7vqRcsTRsMLf2LxZ0nxMzTJ5hJj2+rp851M/FkmVr7Y3KpUbJo/2VmaEqt5oUomnvDe1Mc108qlo7OVMhsGINdDApFKTrmkIPVSymdkalMxs2jV3THvjGCW7SQvLa5iaiS1SRIeFCjP86VsWWpPGjNT5xvG2Nvb2zYP212Jclk0QLVNYbI1eZxDl9xc9iwWmiX9CeU6l5IbmXjCe9MhrplWLh2d8ZRZPSL53hGIVMo+1M+WqOY52SoqZu9C/kqgn0/Zs1h8nbBPROKLpLl+6qclkzgteqOc7G3LbxXstcQbWrTc96vhZ2pPWovT55u8SvmTp+iL+VVJeNgUeye12ltRNs1ZN8jms3a27VXYtTRXO+9Ptq8rkUEn3CinMaJ8JoGo1lRVxcbqcb16mmsfmPk/wRChc8/R4ovaMGwdsyvMw11bEzb4LAzmCOOaJ38XsGj5rDGK1qVvoEoE7OOe2FE933GCmzwslOaJp+Zp+/qGKz0G87lNtbM9nOLPVAIqWNvy+MveNv16SL5fFXu6b39NMHVMKnpEIKo1VVGx2qCG9/baTGKoIQL2D2xEhhsalGG6TiCqNa1excLfZfjHQ12P0Dr4L1GTv5hZh1kzx7oIRLWm1atYXVywAwEIdIVAVGtCxboSd/yEQH8IRLUmVKw/K4OZQKArBKJaEyrWlbjjJwT6QyCqNaFi/VkZzAQCXSEQ1ZpQsa7EHT8h0B8CUa0JFevPymAmEOgKgajWhIp1Je74CYH+EIhqTahYf1YGM4FAVwhEtSZUrCtxx08I9IdAVGtCxfqzMpgJBLpCIKo1oWJdiTt+QqA/BKJaEyrWn5XBTCDQFQJRrQkV60rc8RMC/SEQ1ZpQsf6sDGYCga4QiGpNqFhX4o6fEOgPgajWhIr1Z2UwEwh0hUBUa0LFuhJ3/IRAfwhEtSZUrD8rg5lAoCsEoloTKtaVuOMnBPpDIKo1NKZb4QAACPJJREFUoWL9WRnMBAJdIRDVmlCxrsQdPyHQHwJRrQkV68/KYCYQ6AqBqNaEinUl7vgJgf4QiGpNqFh/VgYzgUBXCES1JlSsK3HHTwj0h0BUa0LF+rMymAkEukIgqjWhYl2JO35CoD8EoloTKtaflcFMINAVAlGtCRXrStzxEwL9IRDVmlCx/qwMZgKBrhCIak2oWFfijp8Q6A+BqNaEivVnZTATCHSFQFRrQsW6Enf8hEB/CES1JlSsPyuDmUCgKwSiWhMq1pW44ycE+kMgqjWhYv1ZGcwEAl0hENWaULGuxB0/IdAfAlGtCRXrz8pgJhDoCoGo1oSKdSXu+AmB/hCIak2HDh36nTsfeeUP/vbSF18Z7LNpY2Nj9hAXLlzoD05mAgEINE4gqjXd+Ks3PPfZ7547MTp48CAq1ngwGRACa0kgUunSpUvqlclmS1INUi+HH7rlO0986+b3H0HFJiQIQKAZApFKl2ySgtRLKZ+RuXPzjuc++11UbEKCAAQaIxCp5GTLnb90XjWZkx1/7LEfnL/Ic7EJCQIQaIxAlEwiXiUOYlEUcRZrLHAMBAEIxASiTBIhy9TML0DFJiQIQKBhAlFeWvShvthAxRoOH8NBAAKTqNaEirGkIACBpglEtSZUrOn4MR4EIBDVmvg/kFhREIBA0wSiWlMZFWt6xowHAQj0i0BUayqjYrU6gDEIQAAClQigYpXw0RkCEFg5AVRs5SHAAQhAoBIBVKwSPjpDAAIrJ4CKrTwEOAABCFQigIpVwkdnCEBg5QRQsZWHAAcgAIFKBFCxSvjoDAEIrJwAKrbyEOAABCBQiQAqVgkfnSEAgZUTQMVWHgIcgAAEKhFAxSrhozMEILByAqjYykOAAxCAQCUCqFglfHSGAARWTgAVW3kIcAACEKhEABWrhI/OEIDAygmgYisPAQ5AAAKVCKBilfDRGQIQWDkBVGzlIcABCECgEgFUrBI+OkMAAisngIqtPAQ4AAEIVCKAilXCR+eVELjY61QEaa8BXCxCQLdBxTQN8t0gcPHixSs9TRcvFtrDENArFRXTNMh3gwB7GAJ6paJimgb5bhBgD0NAr1RUTNMg3w0C7GEI6JV66NCh37nzkVf+4G8vffGVwT6bNjY2dAvyEGgbAfYwBPSavPFXb3jus989d2J08OBBVEyTId9eAuxhCOjVOfzQLd954ls3v/8IKqaxkG81gcp7+NWnjwzidOTpV6/Umy6cGZQ32orfUV444+nomeh5WYBnLtQLzlkrSCBS6c7NO5777HdRMYWEbOsJVFKx1AZ89emna96MerdfWTQV3MOVCMz2yUiYqLCB5V+EeYXcbFOlagsSiFQaf+yxH5y/yHMxhYRs6wlU2MNmWy7nDHHFp0p7vOAerkDAu5n/M8MnFMTzCgX5FqqWFiQQqcRZTMEg2xEC5ffw9C0YblGxyNlN+3R8t/LnkStXrhgTLsUN0wVdVrEcPq8+fcTN3gNRLK4sIaFiHdmFuFmNQCUVm7MJRYOsrDmhMlmXM7s8aUDaX7ly4YytUiWLb/KCe7g8gdkuiWSFZiJssc7H2h0a1JwrSCBSibOYgkG2IwTK72HZklcyKRzGnExpMfL5bHdTopLZ4r5xZoQiBQX3cHkCs53ITtCcPRWQCxkZn21w8dqCBCKVUDEFg2xHCFTYwznb9Ep8TZTTltq08e8vvTBle2dLOq1i9r6cOG2FCXoI4WRqyNWeSqjYdddd9573vOcXfuEXrrnmGv5eLCJ1gkAFFbNHJX8/NDvQ/Y7S71C7i6ermKo2fU0ye9p1iAu6rWJuQqJjenbCKIeCn3sNP0uo2MbGxlU27du3DxWLSJ0gUEnFEg/oRYHMkcOkI2fO6AtU6ixmNmm4ecZ73Xc13U1R2O2m+YKp4B6uSmC2V2GK+ve5iXlpeZttbNHaggQilVAxBYNsRwgsdw9fWWUquIchoJcqKqZpkO8GAfYwBPRKRcU0DfLdIMAehoBeqaiYpkG+GwTYwxDQKxUV0zTId4MAexgCeqVed9117s8s3vve9/I7Sk2GfHsJsIchoFcnKqZpkO8GAb4BCAJ6paJimgZ5CECgewRQse7FDI8hAAFNABXTNMhDAALdI4CKdS9meAwBCGgCqJimQR4CEOgeAVSsezHDYwhAQBNAxTQN8hCAQPcIoGLdixkeQwACmgAqpmmQhwAEukcAFetezPAYAhDQBFAxTYM8BCDQPQKoWPdihscQgIAmgIppGuQhAIHuEUDFuhczPIYABDQBVEzTIA8BCHSPACrWvZjhMQQgoAmgYpoGeQhAoHsEULHuxQyPIQABTQAV0zTIQwAC3SOAinUvZngMAQhoAnyTm6ZBHgIQ6B4BVKx7McNjCEBAE0DFNA3yEIBA9wigYt2LGR5DAAKaACqmaZCHAAS6RwAV617M8BgCENAEUDFNgzwEINA9AqhY92KGxxCAgCaAimka5CEAge4RQMW6FzM8hgAENAFUTNMgDwEIdI8AKta9mOExBCCgCZx8+OGnPv57f/7ccy+88MJgn00bGxu6BXkIQAACbSZw8uFHv/3tbzxz71X79p1CxdocKXyDAATyCZx8+NE//b2rrrrqqn379qFi+YwohQAE2kwAFWtzdPANAhCYTwAVm8+IFhCAQJsJoGJtjg6+QQAC8wmgYvMZ0QICEGgzAf5erM3RwTcIQGA+AVRsPiNaQAACbSaAirU5OvgGAQjMJ+BUzP3R/uDqq6/et28ff7s/HxstIACB1hBAxVoTChyBAARKEUDFSmGjEwQg0BoCaRW7+uqrN0jFCFx33XXFGvaj1W+cevTRRx8++WE/mw+ffPhRl079hi9rx0/rqXVNuVuHa79xSgOow2IpG8t0w0a1ZmylJrlhPCm+svb5ZJ6LuUdjvmSf+T8sM+nfkyyB97znPRVJPP4n39LpL5+8p6LB6t3vefIvp7hknc24aNr/yePVx51t4fE/+VZm5Gk9jJ9L8mgRN4J7C/QKC2LmdO958i9n1oexF87Z+JcynplmmIxZUfNCkuk+dWVlBMn8T+AuXX311f8fWDQqtikOKGQAAAAASUVORK5CYII=;" vertex="1" parent="1">
          <mxGeometry x="1140" y="840" width="407" height="587" as="geometry" />
        </mxCell>
        <mxCell id="0uebhjib72tp26NV08e5-123" style="edgeStyle=orthogonalEdgeStyle;rounded=0;orthogonalLoop=1;jettySize=auto;html=1;exitX=1;exitY=0.5;exitDx=0;exitDy=0;entryX=0.5;entryY=1;entryDx=0;entryDy=0;" edge="1" parent="1" source="0uebhjib72tp26NV08e5-119" target="0uebhjib72tp26NV08e5-118">
          <mxGeometry relative="1" as="geometry" />
        </mxCell>
        <mxCell id="0uebhjib72tp26NV08e5-119" value="This module provides a dialog for configuring screenshot event data, including priority, image name,&#xa;Print Screen window configuration, step description, and step acceptance criteria.&#xa;&#xa;for update the data on the Event Window we use:&#xa;update_event(self, event):&#xa;&#xa;in case press the X the App will terminate use:&#xa;# Close any existing mouse listener threadsclose_existing_mouse_threads()&#xa;&#xa;# Terminate running instance using process_util&#xa;terminate_running_instance(&quot;cursor_listener.lock&quot;) " style="rounded=1;whiteSpace=wrap;absoluteArcSize=1;arcSize=14;strokeWidth=2;" vertex="1" parent="1">
          <mxGeometry x="760" y="1410" width="300" height="240" as="geometry" />
        </mxCell>
        <mxCell id="0uebhjib72tp26NV08e5-121" value="" style="edgeStyle=orthogonalEdgeStyle;rounded=0;orthogonalLoop=1;jettySize=auto;html=1;" edge="1" parent="1" source="0uebhjib72tp26NV08e5-120" target="0uebhjib72tp26NV08e5-119">
          <mxGeometry relative="1" as="geometry" />
        </mxCell>
        <mxCell id="0uebhjib72tp26NV08e5-120" value="get event panel dimension and default parameters &#xa;from config &#xa;self.config.get(&#39;Screenshot_Dialog&#39;, {})" style="shape=parallelogram;strokeWidth=2;perimeter=parallelogramPerimeter;whiteSpace=wrap;rounded=1;arcSize=12;size=0.10714285714285784;" vertex="1" parent="1">
          <mxGeometry x="740" y="1210" width="308.27" height="85" as="geometry" />
        </mxCell>
        <mxCell id="0uebhjib72tp26NV08e5-128" value="" style="edgeStyle=orthogonalEdgeStyle;rounded=0;orthogonalLoop=1;jettySize=auto;html=1;" edge="1" parent="1" source="0uebhjib72tp26NV08e5-124" target="0uebhjib72tp26NV08e5-127">
          <mxGeometry relative="1" as="geometry" />
        </mxCell>
        <mxCell id="0uebhjib72tp26NV08e5-124" value="Generate screenshot filename with test name and picture dimention + location from the screen shot configuration form &#xa;save it in the Test folder&#xa;&#xa;screenshot = capture_screen(event.pic_x, event.pic_y, event.pic_width, event.pic_height)  &#xa;:&#xa;generate_screenshot_filename(self.test_name, self.screenshot_counter, dialog.result[&#39;image_name&#39;],&quot;Recording&quot;,&quot;none&quot;)" style="rounded=1;whiteSpace=wrap;absoluteArcSize=1;arcSize=14;strokeWidth=2;" vertex="1" parent="1">
          <mxGeometry x="327" y="1646" width="347" height="190" as="geometry" />
        </mxCell>
        <mxCell id="0uebhjib72tp26NV08e5-127" value="calculate the time in &quot;pause&quot; while the screen shoot dialog is open (for update the event data)&#xa;&#xa;restart the saving of the listener data  and update the event data with the picture configuration " style="rounded=1;whiteSpace=wrap;absoluteArcSize=1;arcSize=14;strokeWidth=2;" vertex="1" parent="1">
          <mxGeometry x="325.5" y="1876" width="350" height="120" as="geometry" />
        </mxCell>
        <mxCell id="0uebhjib72tp26NV08e5-135" value="" style="edgeStyle=orthogonalEdgeStyle;rounded=0;orthogonalLoop=1;jettySize=auto;html=1;" edge="1" parent="1" source="0uebhjib72tp26NV08e5-129" target="0uebhjib72tp26NV08e5-134">
          <mxGeometry relative="1" as="geometry" />
        </mxCell>
        <mxCell id="0uebhjib72tp26NV08e5-136" value="True" style="edgeLabel;html=1;align=center;verticalAlign=middle;resizable=0;points=[];" vertex="1" connectable="0" parent="0uebhjib72tp26NV08e5-135">
          <mxGeometry x="-0.2808" relative="1" as="geometry">
            <mxPoint as="offset" />
          </mxGeometry>
        </mxCell>
        <mxCell id="0uebhjib72tp26NV08e5-129" value="if the key was :&#xa;quit_key" style="strokeWidth=2;shape=mxgraph.flowchart.decision;whiteSpace=wrap;" vertex="1" parent="1">
          <mxGeometry x="59.87" y="2040" width="170" height="110" as="geometry" />
        </mxCell>
        <mxCell id="0uebhjib72tp26NV08e5-132" style="edgeStyle=orthogonalEdgeStyle;rounded=0;orthogonalLoop=1;jettySize=auto;html=1;exitX=0;exitY=0.5;exitDx=0;exitDy=0;exitPerimeter=0;endArrow=oval;endFill=1;" edge="1" parent="1" source="0uebhjib72tp26NV08e5-129">
          <mxGeometry relative="1" as="geometry">
            <mxPoint y="2101" as="targetPoint" />
            <mxPoint x="43.99999999999977" y="1506.0740740740744" as="sourcePoint" />
          </mxGeometry>
        </mxCell>
        <mxCell id="0uebhjib72tp26NV08e5-133" value="False" style="edgeLabel;html=1;align=center;verticalAlign=middle;resizable=0;points=[];" vertex="1" connectable="0" parent="0uebhjib72tp26NV08e5-132">
          <mxGeometry x="-0.0132" relative="1" as="geometry">
            <mxPoint as="offset" />
          </mxGeometry>
        </mxCell>
        <mxCell id="0uebhjib72tp26NV08e5-138" value="" style="edgeStyle=orthogonalEdgeStyle;rounded=0;orthogonalLoop=1;jettySize=auto;html=1;entryX=0;entryY=0.5;entryDx=0;entryDy=0;exitX=1;exitY=0.5;exitDx=0;exitDy=0;" edge="1" parent="1" source="0uebhjib72tp26NV08e5-134" target="0uebhjib72tp26NV08e5-137">
          <mxGeometry relative="1" as="geometry" />
        </mxCell>
        <mxCell id="0uebhjib72tp26NV08e5-140" style="edgeStyle=orthogonalEdgeStyle;rounded=0;orthogonalLoop=1;jettySize=auto;html=1;exitX=1;exitY=0.5;exitDx=0;exitDy=0;entryX=0;entryY=0.5;entryDx=0;entryDy=0;" edge="1" parent="1" source="0uebhjib72tp26NV08e5-134" target="0uebhjib72tp26NV08e5-139">
          <mxGeometry relative="1" as="geometry" />
        </mxCell>
        <mxCell id="0uebhjib72tp26NV08e5-134" value="Save the test data using the imported save_test function&#xa;filepath = save_test(self.current_test, self.test_name, &quot;recording&quot;)&#xa;&#xa;Schedule window destruction and control panel restart in the main thread&#xa;self.event_window.after(0, lambda: cleanup_and_restart(self.event_window))" style="rounded=1;whiteSpace=wrap;absoluteArcSize=1;arcSize=14;strokeWidth=2;" vertex="1" parent="1">
          <mxGeometry x="327" y="2036" width="340" height="120" as="geometry" />
        </mxCell>
        <mxCell id="0uebhjib72tp26NV08e5-148" value="" style="edgeStyle=orthogonalEdgeStyle;rounded=0;orthogonalLoop=1;jettySize=auto;html=1;" edge="1" parent="1" source="0uebhjib72tp26NV08e5-137" target="0uebhjib72tp26NV08e5-147">
          <mxGeometry relative="1" as="geometry" />
        </mxCell>
        <mxCell id="0uebhjib72tp26NV08e5-137" value="    Save the test data to a file.&#xa;    This function saves the test data to a JSON file, either in the result directory or the test directory,&#xa;&#xa;save_test(test, test_name=None, state=&quot;running&quot;, result_folder_path=None): &#xa;" style="rounded=1;whiteSpace=wrap;absoluteArcSize=1;arcSize=14;strokeWidth=2;" vertex="1" parent="1">
          <mxGeometry x="850" y="1910" width="340" height="130" as="geometry" />
        </mxCell>
        <mxCell id="0uebhjib72tp26NV08e5-139" value="This function deletes the lock file, destroys the event window, and restarts the control panel.&#xa;&#xa;cleanup_and_restart(event_window, lock_file=&quot;cursor_listener.lock&quot;)" style="rounded=1;whiteSpace=wrap;absoluteArcSize=1;arcSize=14;strokeWidth=2;" vertex="1" parent="1">
          <mxGeometry x="850" y="2060" width="340" height="120" as="geometry" />
        </mxCell>
        <mxCell id="0uebhjib72tp26NV08e5-141" style="edgeStyle=orthogonalEdgeStyle;rounded=0;orthogonalLoop=1;jettySize=auto;html=1;exitX=1;exitY=0.5;exitDx=0;exitDy=0;entryX=0.5;entryY=0;entryDx=0;entryDy=0;entryPerimeter=0;" edge="1" parent="1" source="0uebhjib72tp26NV08e5-139" target="0uebhjib72tp26NV08e5-38">
          <mxGeometry relative="1" as="geometry">
            <Array as="points">
              <mxPoint x="1620" y="2120" />
              <mxPoint x="1620" y="30" />
              <mxPoint x="303" y="30" />
            </Array>
          </mxGeometry>
        </mxCell>
        <mxCell id="0uebhjib72tp26NV08e5-145" value="" style="edgeStyle=orthogonalEdgeStyle;rounded=0;orthogonalLoop=1;jettySize=auto;html=1;" edge="1" parent="1" source="0uebhjib72tp26NV08e5-143" target="0uebhjib72tp26NV08e5-80">
          <mxGeometry relative="1" as="geometry" />
        </mxCell>
        <mxCell id="0uebhjib72tp26NV08e5-143" value="close the Control Panel window &#xa;self.root.destroy()" style="rounded=1;whiteSpace=wrap;absoluteArcSize=1;arcSize=14;strokeWidth=2;dashed=1;dashPattern=8 8;" vertex="1" parent="1">
          <mxGeometry x="151.5" y="770" width="317" height="60" as="geometry" />
        </mxCell>
        <mxCell id="0uebhjib72tp26NV08e5-147" value=" This function loads test data from a JSON file and generates a Word (.docx) document summarizing the test,&#xa;    including a summary table of steps and optionally embedding images for each step&#xa;&#xa;create_doc_from_json(result_file, DocPictures, Doctype)" style="rounded=1;whiteSpace=wrap;absoluteArcSize=1;arcSize=14;strokeWidth=2;" vertex="1" parent="1">
          <mxGeometry x="850" y="1720" width="340" height="126" as="geometry" />
        </mxCell>
      </root>
    </mxGraphModel>
  </diagram>
</mxfile>
